<svg viewBox="0 0 44 36" xmlns="http://www.w3.org/2000/svg">
<path d="m16.44 29.431c0.1712-0.6749 0.2662-1.2548 0.5229-1.8727 0.4278-1.0647 1.2643-1.7016 2.4146-1.8537 0.1901-0.0285 0.4277 0.038 0.5798 0.1426 0.5609 0.3707 1.1123 0.7795 1.6446 1.1882 0.2662 0.1997 0.4753 0.1902 0.732 0 0.5799-0.4182 1.1598-0.827 1.7586-1.2167 0.1426-0.0951 0.3518-0.1426 0.5229-0.1331 1.3118 0.1426 2.367 1.1217 2.6712 2.4145 0.0476 0.2187-0.0665 0.2662-0.1901 0.3518-1.1122 0.6844-1.6826 1.3594-3.4317 1.7586-3.755 0.6845-4.8767-0.2186-6.9776-0.6559-0.057 0.0095-0.1141-0.1046-0.2472-0.1236z" fill="currentColor"/>
<path d="m19.615 21.265v-0.1806c0-0.5893 0.0856-0.7224 0.6274-0.9411 0.0666-0.0285 0.1616-0.0095 0.2282 0.019 1.0932 0.4944 2.1864 0.4373 3.2891 0.0571 0.3898-0.1331 0.713 0.0855 0.694 0.4943-0.0285 0.5799 0 1.1788-0.1521 1.7301-0.4943 1.7682-2.4621 2.4051-3.755 1.2643-0.5703-0.5038-0.8555-1.1502-0.9221-1.9012-0.0095-0.1806 0-0.3612-0.0095-0.5419 0.0095 0 0.0095 0 0 0z" fill="currentColor"/>
<path d="m24.701 19.697c-0.0855-0.0761-0.1521-0.1141-0.2091-0.1807-0.1901-0.2186-0.3993-0.2376-0.6654-0.1235-0.713 0.3232-1.464 0.5038-2.253 0.3327-0.3232-0.0666-0.6559-0.1616-0.9316-0.3232-0.3137-0.1807-0.5419-0.1807-0.7795 0.0855-0.0856 0.0951-0.2092 0.1521-0.3232 0.2282-0.2662-0.751-0.1331-1.426 0.4563-1.9393 0.9886-0.8651 2.1484-1.1883 3.4412-0.9221 0.1616 0.038 0.3232 0.2091 0.4468 0.3517 0.2091 0.2377 0.3517 0.5324 0.5799 0.7415 0.5989 0.5514 0.6939 1.0267 0.2376 1.7492z" fill="currentColor"/>
<path d="m20.965 24.935h2.0438c0.0476 0.1711 0.1046 0.3803 0.1712 0.6274-0.3518 0.2472-0.713 0.5039-1.0742 0.732-0.0666 0.0475-0.2187 0.019-0.3042-0.038-0.2472-0.1616-0.4754-0.3518-0.7225-0.5134-0.1997-0.1235-0.2947-0.2566-0.1806-0.4943 0.0475-0.1045 0.057-0.2471 0.0665-0.3137z" fill="currentColor"/>
<path d="m3.749 9.877c0.08556-0.42778 0.13309-0.86507 0.24716-1.2928 0.77001-2.8899 2.5477-4.9052 5.3235-6.0364 0.10457-0.04753 0.21864-0.08555 0.39926-0.1521-0.35173-0.25666-0.66543-0.49432-1.0172-0.74148 0.38975-0.55136 0.76049-1.0932 1.1502-1.6541 0.10457 0.066543 0.19959 0.12358 0.28519 0.18062 0.9031 0.63692 1.8157 1.2643 2.7188 1.9012 0.6084 0.42778 0.7224 0.91259 0.3517 1.5685-0.5609 0.98865-1.1217 1.9773-1.7016 3.004-0.5989-0.34222-1.1788-0.67494-1.7777-1.0076 0.23765-0.42778 0.46577-0.82704 0.69397-1.2453-1.8252 0.09507-4.1828 2.7663-4.5345 5.1238-0.4658 3.099 1.1788 6.141 3.8405 7.1487 2.6618-5.5041 6.9205-8.3845 13.128-7.8331 4.8577 0.42778 9.183 4.0591 10.457 8.7552 1.5685 5.7512-0.2471 10.39-4.9052 14.022h8.5746c-0.2852-0.3327-0.5418-0.6369-0.8175-0.9506 0.5228-0.4373 1.0172-0.8555 1.578-1.3308 0.0571 0.0855 0.0951 0.1711 0.1521 0.2376 0.6654 0.789 1.3499 1.5685 2.0153 2.3575 0.4563 0.5419 0.4563 1.0267-0.019 1.5591-0.7415 0.8175-1.4925 1.6255-2.2434 2.4336-0.0191 0.0285-0.0571 0.038-0.1141 0.076-0.4848-0.4468-0.9697-0.8936-1.4735-1.3499 0.2662-0.2852 0.5038-0.5608 0.789-0.8746h-28.557v-2.1198h6.1315c-0.8556-0.751-1.6731-1.4735-2.5382-2.2435 0.5704-0.4848 1.0742-0.9031 1.5971-1.3499 2.2815 2.5097 5.1048 3.774 8.508 3.6124 2.4716-0.1236 4.6391-1.0552 6.4547-2.7378 3.6599-3.3842 4.4394-8.7932 1.8918-13.052-2.5002-4.1828-7.6145-6.0935-12.196-4.5535-4.7911 1.6161-7.4528 6.2266-7.1106 10.571 0.3042-0.3327 0.5894-0.6559 0.8936-0.9982 0.5323 0.5704 0.9791 1.0552 1.4639 1.5781-0.7605 0.7795-1.5875 1.635-2.4336 2.4621-0.3232 0.3232-0.8175 0.3042-1.2548-0.0095-0.96963-0.6845-1.9203-1.3879-2.9279-2.1199 0.39926-0.5514 0.78901-1.0932 1.1978-1.6541 0.3137 0.2282 0.6179 0.4373 0.95062 0.675 0.01901-0.1046 0.02852-0.1712 0.03802-0.2472 0.06655-0.8651 0.13309-1.7301 0.20914-2.5857 0.01901-0.1996-0.00951-0.3137-0.21864-0.4088-2.985-1.3879-4.6961-3.7074-5.1429-6.968-0.00951-0.057-0.03802-0.1046-0.05704-0.1616v-1.5876z" fill="currentColor"/>
</svg>
