<svg width="410" height="296" viewBox="0 0 410 296" fill="none" xmlns="http://www.w3.org/2000/svg">
<g clip-path="url(#clip0_838_714)">
<path d="M255.526 295.843C259.562 287.129 263.595 278.286 265.347 268.844C267.099 259.403 266.363 249.156 261.347 240.967C256.33 232.778 246.452 227.225 237.026 229.076C229.283 230.596 223.066 236.691 219.426 243.689C215.786 250.686 214.326 258.578 212.91 266.337C212.452 257.523 211.968 248.566 209.038 240.24C206.109 231.913 200.341 224.154 192.12 220.931C183.899 217.709 173.204 220.243 168.871 227.934C162.767 238.769 170.861 253.967 163.842 264.234C162.638 253.936 151.864 245.799 141.624 247.455C131.384 249.111 123.727 260.229 125.834 270.381C127.087 276.422 131.21 281.56 136.14 285.272C141.07 288.984 146.804 293.287 152.476 295.72L255.526 295.843Z" fill="#E6FCF6" fill-opacity="0.2"/>
<path d="M131.21 254.731C139.344 257.573 147.553 260.447 154.978 264.89C161.634 268.872 167.56 274.233 171.303 281.099C173.354 284.782 174.571 288.87 174.87 293.075C174.924 293.955 176.3 293.961 176.246 293.075C175.765 285.245 171.947 278.079 166.661 272.412C160.865 266.199 153.354 261.956 145.599 258.663C141.002 256.711 136.289 255.052 131.576 253.405C130.738 253.112 130.378 254.441 131.21 254.731Z" fill="white" fill-opacity="0.1"/>
<path d="M178.127 222.297C183.124 230.618 187.126 239.498 190.05 248.754C192.98 258.006 194.825 267.566 195.549 277.244C195.95 282.661 195.994 288.099 195.68 293.522C195.629 294.406 197.006 294.403 197.056 293.522C197.612 283.744 197.02 273.935 195.292 264.295C193.568 254.657 190.734 245.25 186.847 236.262C184.665 231.214 182.149 226.316 179.315 221.603C179.22 221.452 179.07 221.344 178.896 221.301C178.723 221.259 178.54 221.286 178.385 221.376C178.231 221.466 178.118 221.612 178.07 221.784C178.022 221.956 178.042 222.14 178.127 222.297Z" fill="white" fill-opacity="0.1"/>
<path d="M245.476 230.197C238.407 246.072 233.433 262.798 230.678 279.954C229.904 284.774 229.305 289.616 228.881 294.483C228.804 295.364 230.181 295.359 230.257 294.483C231.756 277.364 235.457 260.511 241.27 244.339C242.903 239.793 244.701 235.31 246.664 230.891C247.02 230.09 245.835 229.389 245.476 230.197Z" fill="white" fill-opacity="0.1"/>
<path d="M48.6519 294.814C34.5542 291.146 22.0966 282.854 13.2761 271.265C4.45561 259.677 -0.216935 245.464 0.00747801 230.905C0.0633867 227.277 0.444964 223.574 1.97053 220.282C3.49609 216.99 6.32981 214.143 9.87446 213.363C13.7429 212.512 17.825 214.252 20.7079 216.967C23.5909 219.682 25.4811 223.265 27.2203 226.822C37.6956 248.248 45.6545 271.239 48.6342 294.9L48.6519 294.814Z" fill="#454B5E"/>
<path d="M8.1194 214.078L15.4611 230.751L22.8027 247.425C25.1279 252.705 27.4486 257.988 29.8518 263.234C32.234 268.433 34.6978 273.597 37.3261 278.677C39.9508 283.75 42.7403 288.74 45.7682 293.584C46.1453 294.188 46.526 294.789 46.9105 295.387C47.1766 295.802 47.8417 295.417 47.5737 295C44.4878 290.191 41.6443 285.232 38.9773 280.18C36.3075 275.123 33.8122 269.975 31.409 264.787C28.993 259.571 26.6699 254.312 24.353 249.052C21.9142 243.514 19.4758 237.976 17.0379 232.439L9.69624 215.765L8.78261 213.69C8.58393 213.239 7.92192 213.629 8.11936 214.078L8.1194 214.078Z" fill="white" fill-opacity="0.1"/>
<path d="M45.5893 294.93C37.2794 296.83 28.572 295.886 20.8627 292.25C13.1534 288.613 6.88887 282.495 3.07318 274.876C2.12249 272.977 1.32032 270.951 1.22328 268.831C1.12625 266.71 1.82849 264.467 3.45815 263.106C5.23668 261.62 7.82601 261.422 10.0561 262.053C12.2862 262.685 14.2352 264.035 16.0989 265.413C27.3244 273.71 37.6659 283.499 45.6035 294.979L45.5893 294.93Z" fill="#454B5E"/>
<path d="M2.74016 263.95L11.0551 270.626L19.3699 277.301C22.0033 279.415 24.635 281.532 27.2994 283.607C29.9405 285.664 32.6143 287.68 35.351 289.608C38.0838 291.533 40.8798 293.372 43.7602 295.07C44.1189 295.281 44.4789 295.49 44.8402 295.697C45.0903 295.841 45.3317 295.462 45.0798 295.317C42.179 293.653 39.3632 291.846 36.6142 289.943C33.8622 288.037 31.1764 286.038 28.5274 283.993C25.8643 281.937 23.2379 279.834 20.6142 277.728C17.8524 275.511 15.0909 273.294 12.3295 271.076L4.01459 264.401L2.97985 263.57C2.75483 263.389 2.51652 263.771 2.74016 263.95H2.74016Z" fill="white" fill-opacity="0.1"/>
<path d="M399.496 296H20.0315C19.9596 296 19.8885 295.986 19.822 295.959C19.7556 295.932 19.6952 295.891 19.6443 295.841C19.5934 295.79 19.553 295.73 19.5255 295.663C19.4979 295.597 19.4838 295.526 19.4838 295.454C19.4838 295.382 19.4979 295.311 19.5255 295.245C19.553 295.179 19.5934 295.118 19.6443 295.068C19.6952 295.017 19.7556 294.977 19.822 294.949C19.8885 294.922 19.9596 294.908 20.0315 294.908H399.496C399.641 294.908 399.78 294.966 399.882 295.068C399.984 295.17 400.042 295.309 400.042 295.454C400.042 295.599 399.984 295.738 399.882 295.84C399.78 295.943 399.641 296 399.496 296Z" fill="#3F3D56"/>
<path d="M389.527 241.307H363.837C363.837 241.611 363.716 241.903 363.501 242.117C363.286 242.332 362.994 242.453 362.69 242.453H337.472C337.115 242.721 336.791 243.029 336.504 243.37C335.642 244.398 335.171 245.697 335.174 247.038V247.955C335.174 249.475 335.778 250.932 336.854 252.007C337.929 253.081 339.387 253.685 340.907 253.686H389.527C391.048 253.685 392.505 253.08 393.58 252.006C394.655 250.932 395.26 249.475 395.261 247.955V247.038C395.259 245.519 394.654 244.062 393.579 242.988C392.504 241.914 391.047 241.309 389.527 241.307Z" fill="#3F3D56"/>
<path d="M368.426 253.458H362.463V295.638H368.426V253.458Z" fill="#3F3D56"/>
<path d="M385.397 295.429C385.397 296.073 376.361 295.678 365.215 295.678C354.069 295.678 345.033 296.073 345.033 295.429C345.033 294.785 354.069 289.678 365.215 289.678C376.361 289.678 385.397 294.785 385.397 295.429Z" fill="#3F3D56"/>
<path d="M388.404 242.628L387.404 236.374C387.277 235.586 386.843 234.88 386.196 234.412C385.549 233.943 384.743 233.75 383.954 233.875L373.639 235.521L355.97 238.341L350.223 239.258H362.69C362.994 239.258 363.286 239.379 363.501 239.594C363.716 239.809 363.837 240.1 363.837 240.404V241.307C363.837 241.611 363.716 241.903 363.501 242.118C363.286 242.332 362.994 242.453 362.69 242.453H330.963C330.52 242.66 330.137 242.976 329.848 243.37C329.604 243.691 329.428 244.058 329.33 244.449C329.233 244.84 329.215 245.247 329.28 245.644L329.564 247.423L329.908 249.583L330.28 251.903C330.406 252.689 330.839 253.393 331.484 253.86C332.129 254.328 332.933 254.521 333.72 254.397L341.916 253.09L365.557 249.317L385.904 246.071C386.691 245.943 387.395 245.509 387.863 244.864C388.332 244.219 388.526 243.415 388.404 242.628Z" fill="#FEF8E4"/>
<path d="M341.288 243.37C340.986 242.97 340.587 242.654 340.127 242.453H331.357C330.896 242.653 330.495 242.969 330.192 243.37C329.784 243.893 329.563 244.537 329.564 245.2V280.14C329.565 280.936 329.882 281.699 330.445 282.262C331.008 282.825 331.772 283.142 332.568 283.143H338.912C339.708 283.142 340.472 282.825 341.035 282.262C341.598 281.699 341.915 280.936 341.916 280.14V245.2C341.917 244.537 341.695 243.893 341.288 243.37Z" fill="#FEF8E4"/>
<path d="M360.378 183.86L360.319 183.782L356.383 178.936C356.174 178.676 355.921 178.454 355.636 178.28C355.484 178.178 355.321 178.095 355.149 178.033C354.898 177.932 354.634 177.867 354.365 177.84C354.185 177.821 354.004 177.818 353.824 177.831C353.82 177.831 353.817 177.833 353.815 177.836C353.207 177.88 352.627 178.111 352.154 178.496L344.077 185.043L333.697 193.46L318.207 206.023L317.079 206.94H336.678L337.811 206.023L341.559 202.983L341.825 202.772L359.924 188.096L359.938 188.087C360.311 187.787 360.605 187.402 360.796 186.964C360.922 186.677 361.002 186.372 361.034 186.061C361.076 185.669 361.039 185.272 360.927 184.895C360.814 184.517 360.628 184.165 360.378 183.86Z" fill="#FEF8E4"/>
<path d="M360.319 183.782C360.066 182.547 359.504 181.395 358.686 180.435C357.87 179.468 356.82 178.726 355.636 178.28C355.452 178.212 355.273 178.147 355.09 178.097C354.676 177.974 354.252 177.885 353.824 177.831C353.82 177.831 353.817 177.833 353.815 177.836C351.885 177.613 349.944 178.149 348.402 179.33L334.431 190.004C334.134 190.269 333.894 190.591 333.725 190.951C333.555 191.311 333.46 191.701 333.445 192.099C333.423 192.566 333.509 193.032 333.697 193.46C333.743 193.557 333.793 193.653 333.848 193.745C333.955 193.931 334.085 194.103 334.234 194.258L336.472 196.771L341.678 202.607L341.825 202.772L342.16 203.153C342.426 203.445 342.748 203.681 343.106 203.849C343.464 204.016 343.851 204.112 344.247 204.129C344.642 204.147 345.036 204.086 345.408 203.951C345.779 203.815 346.12 203.608 346.411 203.341L358.461 190.402C359.087 189.731 359.583 188.949 359.924 188.096C360.475 186.728 360.612 185.228 360.319 183.782Z" fill="#3fbd9a"/>
<path d="M365.646 167.18C378.343 167.18 388.636 156.892 388.636 144.2C388.636 131.509 378.343 121.221 365.646 121.221C352.949 121.221 342.656 131.509 342.656 144.2C342.656 156.892 352.949 167.18 365.646 167.18Z" fill="#FEF8E4"/>
<path d="M374.267 239.464L373.639 235.521L373.267 233.206C373.141 232.419 372.707 231.714 372.061 231.247C371.415 230.779 370.61 230.587 369.823 230.712L353.113 233.375L348.581 234.1L347.664 234.247V239.258H362.69C362.994 239.258 363.286 239.379 363.501 239.594C363.716 239.809 363.837 240.1 363.837 240.404V241.307C363.837 241.611 363.716 241.903 363.501 242.117C363.286 242.332 362.994 242.453 362.69 242.453H315.139C315.139 242.462 315.143 242.472 315.143 242.481L315.428 244.26L316.143 248.734C316.269 249.521 316.703 250.225 317.347 250.692C317.992 251.16 318.796 251.353 319.583 251.229L327.78 249.922L329.564 249.638L329.908 249.583L341.916 247.666L350.086 246.36L363.048 244.292L363.241 244.26L371.767 242.903C372.554 242.777 373.259 242.344 373.728 241.699C374.196 241.055 374.39 240.251 374.267 239.464Z" fill="#FEF8E4"/>
<path d="M396.935 222.601C396.935 241.335 395.032 252.54 365.676 249.33C365.635 249.326 365.598 249.321 365.557 249.317C360.321 248.8 355.143 247.81 350.086 246.36C347.457 245.592 344.903 244.592 342.453 243.37C341.875 243.077 341.32 242.77 340.774 242.453H362.69C362.994 242.453 363.286 242.332 363.501 242.117C363.716 241.903 363.837 241.611 363.837 241.307V240.404C363.837 240.1 363.716 239.808 363.501 239.594C363.286 239.379 362.994 239.258 362.69 239.258H347.664V210.3C347.663 209.409 347.308 208.555 346.678 207.925C346.047 207.295 345.193 206.941 344.302 206.94H332.078C332.183 206.637 332.289 206.33 332.403 206.023C333.55 202.851 334.909 199.76 336.472 196.771C338.612 192.619 341.16 188.691 344.077 185.043C346.108 182.501 348.388 180.168 350.884 178.079C355.484 174.282 360.493 171.935 365.575 171.935C384.317 171.935 396.935 203.868 396.935 222.601Z" fill="#3fbd9a"/>
<path d="M366.129 152.717L366.152 151.859C364.554 151.814 363.145 151.714 362.086 150.941C361.786 150.709 361.539 150.416 361.363 150.08C361.186 149.745 361.084 149.375 361.063 148.997C361.045 148.765 361.08 148.533 361.166 148.317C361.252 148.102 361.386 147.909 361.559 147.754C362.261 147.16 363.392 147.352 364.217 147.73L364.928 148.056L363.564 138.099L362.713 138.215L363.873 146.685C363.398 146.509 362.887 146.455 362.386 146.527C361.885 146.599 361.41 146.795 361.004 147.098C360.731 147.336 360.517 147.634 360.378 147.969C360.24 148.303 360.18 148.665 360.205 149.027C360.23 149.535 360.366 150.032 360.603 150.483C360.841 150.933 361.174 151.326 361.58 151.634C362.94 152.628 364.708 152.678 366.129 152.717Z" fill="#3fbd9a"/>
<path d="M358.504 138.946H353.877V139.804H358.504V138.946Z" fill="#3fbd9a"/>
<path d="M373.109 138.946H368.482V139.804H373.109V138.946Z" fill="#3fbd9a"/>
<path d="M379.313 190.43L377.492 189.165L374.102 186.813C373.447 186.36 372.638 186.185 371.854 186.327C371.07 186.468 370.374 186.915 369.919 187.569L358.869 203.464L348.581 218.264L347.664 219.584V239.258H347.746C348.461 239.187 349.127 238.861 349.622 238.341C349.728 238.232 349.825 238.113 349.911 237.988L353.113 233.375L361.025 221.991L369.226 210.199L370.006 209.076L380.06 194.611C380.115 194.535 380.166 194.455 380.212 194.373C380.258 194.294 380.299 194.213 380.336 194.13C380.624 193.491 380.68 192.771 380.493 192.095C380.306 191.419 379.889 190.83 379.313 190.43Z" fill="#FEF8E4"/>
<path d="M379.345 184.14C379.021 183.927 378.68 183.74 378.326 183.58C376.759 182.862 374.993 182.706 373.324 183.137C371.655 183.567 370.185 184.56 369.162 185.946L358.722 200.095C358.513 200.431 358.372 200.807 358.309 201.198C358.246 201.59 358.261 201.99 358.354 202.376C358.447 202.762 358.616 203.125 358.851 203.445C359.086 203.765 359.382 204.035 359.722 204.239L369.226 210.199L369.345 210.273L369.822 210.571C370.505 210.983 371.323 211.108 372.097 210.919C372.872 210.73 373.54 210.242 373.955 209.562L381.326 194.937L381.45 194.694L381.455 194.689L381.909 193.777C382.737 192.135 382.933 190.247 382.461 188.471C381.988 186.694 380.879 185.153 379.345 184.14Z" fill="#3fbd9a"/>
<path d="M315.427 242.453V276.972C315.429 277.768 315.746 278.531 316.309 279.094C316.872 279.657 317.635 279.974 318.432 279.975H324.775C325.572 279.974 326.335 279.657 326.899 279.094C327.462 278.531 327.779 277.768 327.78 276.972V242.453H315.427Z" fill="#FEF8E4"/>
<path d="M55.9573 165.666C69.5149 165.666 80.5055 154.68 80.5055 141.129C80.5055 127.577 69.5149 116.592 55.9573 116.592C42.3997 116.592 31.4091 127.577 31.4091 141.129C31.4091 154.68 42.3997 165.666 55.9573 165.666Z" fill="#FEF8E4"/>
<path d="M51.172 233.435H44.402C43.6115 233.436 42.8536 233.75 42.2946 234.309C41.7356 234.867 41.4213 235.625 41.4205 236.415V292.812C41.4213 293.603 41.7356 294.36 42.2946 294.919C42.8536 295.477 43.6115 295.792 44.402 295.792H51.172C51.9625 295.792 52.7204 295.477 53.2794 294.919C53.8383 294.36 54.1527 293.603 54.1534 292.812V236.415C54.1527 235.625 53.8383 234.867 53.2794 234.309C52.7204 233.75 51.9625 233.436 51.172 233.435Z" fill="#3fbd9a"/>
<path d="M65.4783 233.435H58.7082C57.9177 233.436 57.1598 233.75 56.6009 234.309C56.0419 234.867 55.7276 235.625 55.7268 236.415V292.812C55.7276 293.603 56.0419 294.36 56.6009 294.919C57.1598 295.477 57.9177 295.792 58.7082 295.792H65.4783C65.8698 295.792 66.2575 295.715 66.6192 295.566C66.981 295.416 67.3096 295.196 67.5865 294.92C67.8633 294.643 68.083 294.314 68.2328 293.953C68.3826 293.591 68.4597 293.204 68.4597 292.812V236.415C68.4597 236.024 68.3826 235.636 68.2328 235.275C68.083 234.913 67.8633 234.585 67.5865 234.308C67.3096 234.031 66.9809 233.812 66.6192 233.662C66.2575 233.512 65.8698 233.435 65.4783 233.435Z" fill="#3fbd9a"/>
<path d="M70.3815 178.533C68.009 175.468 64.7373 173.221 61.0243 172.107C57.3112 170.992 53.3425 171.066 49.6734 172.317C46.0043 173.569 42.8184 175.935 40.5614 179.086C38.3044 182.237 37.0892 186.014 37.0859 189.889V239.835C37.084 239.988 37.0963 240.14 37.1226 240.289C37.2315 241.054 37.6124 241.753 38.1954 242.259C38.7784 242.765 39.5244 243.044 40.2966 243.045H71.0605C71.9115 243.043 72.7272 242.704 73.329 242.103C73.9307 241.501 74.2696 240.686 74.2713 239.835V189.889C74.277 185.776 72.908 181.779 70.3815 178.533Z" fill="#3fbd9a"/>
<path d="M76.6878 151.976L76.6622 151.059C78.3689 151.011 79.8735 150.904 81.004 150.079C81.3246 149.831 81.588 149.518 81.7765 149.16C81.965 148.801 82.0741 148.407 82.0963 148.003C82.1162 147.756 82.0788 147.507 81.9871 147.277C81.8954 147.047 81.7518 146.841 81.5675 146.675C80.817 146.042 79.6094 146.247 78.7292 146.65L77.9702 146.998L79.4257 136.366L80.3346 136.49L79.0965 145.535C80.2925 145.183 81.4007 145.334 82.1597 145.975C82.4511 146.229 82.6798 146.548 82.8278 146.905C82.9758 147.262 83.0392 147.649 83.013 148.035C82.9862 148.578 82.841 149.108 82.5874 149.589C82.3338 150.07 81.9781 150.49 81.5451 150.819C80.0925 151.88 78.2047 151.933 76.6878 151.976Z" fill="#3fbd9a"/>
<path d="M74.1748 137.27H69.2341V138.187H74.1748V137.27Z" fill="#3fbd9a"/>
<path d="M48.7594 179.239C48.4946 178.949 48.175 178.716 47.8191 178.551C47.4631 178.387 47.078 178.295 46.6862 178.28L41.3518 178.06L39.9251 178.001C39.1353 177.968 38.3649 178.25 37.7828 178.785C37.2008 179.32 36.8544 180.063 36.8198 180.852L35.9759 201.172L34.4852 237.204C34.4548 237.956 34.7096 238.691 35.1987 239.263C35.6877 239.836 36.3749 240.202 37.1226 240.289C37.1961 240.299 37.2649 240.303 37.3383 240.308L41.4205 240.477L44.1039 240.587C44.3188 240.597 44.5341 240.583 44.746 240.546C45.3064 240.446 45.8266 240.188 46.2459 239.803C46.5351 239.539 46.7687 239.219 46.9333 238.863C47.0979 238.508 47.19 238.123 47.2044 237.731L47.3834 233.435L48.6999 201.658L49.5438 181.38C49.5767 180.59 49.2946 179.82 48.7594 179.239Z" fill="#FEF8E4"/>
<path d="M44.8515 174.791C44.2814 174.671 43.7002 174.611 43.1176 174.613C40.8679 174.615 38.7111 175.51 37.1203 177.1C35.5296 178.69 34.6347 180.846 34.632 183.094V198.683C34.6332 199.176 34.7566 199.662 34.9911 200.096C35.2256 200.53 35.5639 200.9 35.976 201.172C36.3119 201.393 36.6897 201.543 37.0859 201.612C37.2598 201.645 37.4364 201.662 37.6134 201.663H48.6217C48.6479 201.664 48.674 201.662 48.6999 201.658C49.4764 201.638 50.2144 201.316 50.7567 200.76C51.299 200.205 51.6027 199.459 51.6032 198.683V183.094C51.6007 181.146 50.9286 179.259 49.6994 177.747C48.4702 176.235 46.7587 175.192 44.8515 174.791Z" fill="#3fbd9a"/>
<path d="M103.645 219.186C102.926 218.814 102.361 218.2 102.05 217.453C101.74 216.705 101.704 215.872 101.948 215.101L104.558 206.798L103.797 206.165L83.7659 189.6L70.3815 178.532L68.7533 177.185C68.1444 176.681 67.3602 176.439 66.5732 176.513C65.7861 176.587 65.0607 176.97 64.5564 177.579L60.2401 182.796C59.9899 183.097 59.8015 183.445 59.6858 183.819C59.5702 184.193 59.5295 184.586 59.5662 184.976C59.6028 185.365 59.716 185.744 59.8994 186.09C60.0827 186.436 60.3325 186.742 60.6345 186.991L74.2714 198.27L75.8216 199.549L104.108 222.941C104.632 223.375 105.288 223.617 105.968 223.627C106.648 223.637 107.311 223.414 107.847 222.996C107.994 222.88 108.13 222.749 108.25 222.606C108.27 222.587 108.288 222.567 108.305 222.546L108.851 221.886L103.645 219.186Z" fill="#FEF8E4"/>
<path d="M82.8026 186.418L70.7349 176.547C69.8726 175.842 68.8798 175.313 67.813 174.991C66.7462 174.668 65.6264 174.56 64.5175 174.67C63.4086 174.78 62.3323 175.108 61.3501 175.634C60.3679 176.161 59.499 176.875 58.793 177.737C58.0871 178.599 57.5578 179.591 57.2356 180.658C56.9133 181.724 56.8044 182.843 56.9149 183.952C57.1381 186.19 58.2418 188.248 59.9832 189.673L72.0511 199.544C72.5827 199.98 73.2484 200.218 73.9356 200.219C74.6227 200.219 75.289 199.983 75.8216 199.549C75.9804 199.426 76.1236 199.285 76.248 199.127L83.2201 190.613C83.4669 190.315 83.6523 189.97 83.7659 189.6C83.9375 189.034 83.9377 188.43 83.7662 187.863C83.5948 187.297 83.2595 186.794 82.8026 186.418Z" fill="#3fbd9a"/>
<path d="M139.358 196.083L116.667 182.957C116.102 182.63 115.471 182.435 114.82 182.385C114.169 182.335 113.515 182.431 112.907 182.668C112.298 182.904 111.751 183.274 111.304 183.75C110.858 184.226 110.525 184.797 110.328 185.419L103.796 206.165L101.072 214.825C100.763 215.803 100.81 216.857 101.203 217.804C101.597 218.75 102.312 219.527 103.223 219.997L108.25 222.606L124.653 231.111C125.273 231.433 125.962 231.602 126.662 231.601C127.178 231.6 127.69 231.508 128.175 231.331L128.208 231.317C128.781 231.098 129.301 230.761 129.736 230.328C130.171 229.896 130.509 229.376 130.73 228.804L141.243 201.41C141.618 200.444 141.634 199.375 141.288 198.398C140.942 197.42 140.258 196.599 139.358 196.083ZM140.386 201.085L129.873 228.479C129.698 228.93 129.429 229.34 129.086 229.681C128.742 230.023 128.33 230.288 127.877 230.46L127.854 230.469C127.405 230.635 126.925 230.705 126.447 230.676C125.968 230.647 125.501 230.519 125.075 230.299L108.851 221.886L103.645 219.186C102.926 218.814 102.361 218.2 102.05 217.453C101.74 216.705 101.704 215.872 101.948 215.101L104.558 206.798L111.2 185.694C111.356 185.203 111.62 184.754 111.972 184.379C112.325 184.004 112.757 183.712 113.237 183.526C113.717 183.339 114.232 183.262 114.746 183.301C115.259 183.34 115.758 183.493 116.204 183.75L138.895 196.876C139.606 197.283 140.147 197.932 140.421 198.704C140.694 199.477 140.682 200.321 140.386 201.085Z" fill="#E1D857"/>
<path d="M131.745 204.86C131.515 204.86 131.289 204.802 131.087 204.692L115.951 196.439C115.632 196.264 115.395 195.969 115.293 195.62C115.191 195.27 115.231 194.895 115.406 194.575C115.58 194.256 115.874 194.018 116.223 193.915C116.572 193.812 116.948 193.851 117.269 194.024L132.405 202.277C132.674 202.423 132.886 202.655 133.008 202.935C133.13 203.216 133.155 203.529 133.079 203.825C133.004 204.121 132.831 204.384 132.59 204.571C132.348 204.759 132.051 204.86 131.745 204.86H131.745Z" fill="#FEF8E4"/>
<path d="M128.993 210.82C128.763 210.82 128.537 210.762 128.335 210.652L113.199 202.399C112.88 202.224 112.643 201.929 112.541 201.58C112.439 201.231 112.479 200.855 112.654 200.535C112.828 200.216 113.122 199.978 113.471 199.875C113.82 199.772 114.196 199.811 114.517 199.984L129.653 208.237C129.922 208.383 130.134 208.615 130.256 208.895C130.378 209.176 130.403 209.489 130.327 209.785C130.252 210.081 130.079 210.344 129.838 210.531C129.596 210.719 129.299 210.82 128.993 210.82H128.993Z" fill="#FEF8E4"/>
<path d="M126.7 217.239C126.47 217.239 126.244 217.181 126.042 217.071L110.905 208.818C110.586 208.643 110.35 208.348 110.248 207.999C110.145 207.649 110.186 207.274 110.36 206.954C110.535 206.635 110.829 206.397 111.178 206.294C111.527 206.191 111.903 206.23 112.223 206.403L127.36 214.656C127.628 214.802 127.84 215.034 127.962 215.314C128.085 215.594 128.11 215.907 128.034 216.204C127.958 216.5 127.786 216.763 127.544 216.95C127.303 217.137 127.005 217.239 126.7 217.239H126.7Z" fill="#FEF8E4"/>
<path d="M286.767 87.3595H223.135C222.22 87.3585 221.343 86.9948 220.697 86.3484C220.05 85.7019 219.686 84.8254 219.685 83.9111V3.4484C219.686 2.53415 220.05 1.65763 220.697 1.01116C221.343 0.364684 222.22 0.00103993 223.135 0H286.767C287.682 0.00104599 288.559 0.364692 289.205 1.01117C289.852 1.65764 290.216 2.53415 290.217 3.4484V83.9111C290.216 84.8254 289.852 85.7019 289.205 86.3483C288.559 86.9948 287.682 87.3585 286.767 87.3595ZM223.135 0.766313C222.423 0.767111 221.741 1.04994 221.238 1.55276C220.735 2.05558 220.452 2.73731 220.452 3.4484V83.9111C220.452 84.6222 220.735 85.3039 221.238 85.8067C221.741 86.3096 222.423 86.5924 223.135 86.5932H286.767C287.478 86.5924 288.161 86.3096 288.664 85.8067C289.167 85.3039 289.45 84.6222 289.45 83.9111V3.4484C289.45 2.73731 289.167 2.05558 288.664 1.55276C288.161 1.04994 287.478 0.767112 286.767 0.766313H223.135Z" fill="#3F3D56"/>
<path d="M249.658 38.6764H235.651C235.194 38.6759 234.755 38.494 234.432 38.1708C234.108 37.8476 233.927 37.4093 233.926 36.9522V20.4306C233.927 19.9735 234.108 19.5352 234.432 19.212C234.755 18.8887 235.194 18.7069 235.651 18.7064H249.658C250.115 18.7069 250.554 18.8887 250.877 19.212C251.2 19.5352 251.382 19.9735 251.383 20.4306V36.9522C251.382 37.4093 251.2 37.8476 250.877 38.1708C250.554 38.494 250.115 38.6759 249.658 38.6764Z" fill="#FBBC05"/>
<path d="M276.874 46.3396H262.867C262.41 46.3391 261.971 46.1572 261.648 45.834C261.325 45.5108 261.143 45.0725 261.142 44.6154V28.0938C261.143 27.6367 261.325 27.1984 261.648 26.8752C261.971 26.552 262.41 26.3701 262.867 26.3696H276.874C277.331 26.3701 277.77 26.552 278.093 26.8752C278.416 27.1984 278.598 27.6367 278.599 28.0938V44.6154C278.598 45.0725 278.416 45.5108 278.093 45.834C277.77 46.1572 277.331 46.3391 276.874 46.3396Z" fill="#CCCCCC"/>
<path d="M255.024 69.712H241.018C240.56 69.7115 240.122 69.5297 239.798 69.2064C239.475 68.8832 239.293 68.4449 239.293 67.9878V51.4663C239.293 51.0091 239.475 50.5709 239.798 50.2476C240.122 49.9244 240.56 49.7426 241.018 49.7421H255.024C255.482 49.7426 255.92 49.9244 256.244 50.2476C256.567 50.5709 256.749 51.0091 256.749 51.4663V67.9878C256.749 68.4449 256.567 68.8832 256.244 69.2064C255.92 69.5297 255.482 69.7115 255.024 69.712Z" fill="#FF6584"/>
<path d="M203.764 65.6112C203.499 64.9832 203.056 64.4467 202.49 64.0677C201.923 63.6888 201.258 63.4842 200.576 63.4792H136.943C136.029 63.4798 135.151 63.8432 134.505 64.4896C133.858 65.1361 133.494 66.0127 133.494 66.927V147.39C133.494 148.304 133.858 149.181 134.505 149.827C135.151 150.474 136.029 150.837 136.943 150.837H200.576C201.49 150.836 202.367 150.473 203.014 149.826C203.66 149.18 204.024 148.304 204.025 147.39V66.927C204.027 66.4753 203.938 66.0279 203.764 65.6112ZM203.259 147.39C203.258 148.101 202.975 148.782 202.472 149.285C201.969 149.788 201.287 150.071 200.576 150.072H136.943C136.232 150.072 135.549 149.789 135.046 149.286C134.543 148.783 134.26 148.101 134.26 147.39V66.927C134.261 66.2159 134.544 65.5343 135.047 65.0315C135.55 64.5287 136.232 64.2458 136.943 64.2449H200.576C201.112 64.2469 201.635 64.4085 202.079 64.709C202.522 65.0095 202.866 65.4353 203.067 65.9321C203.106 66.0311 203.139 66.1321 203.168 66.2347C203.229 66.4604 203.259 66.6932 203.259 66.927V147.39Z" fill="#3F3D56"/>
<path d="M190.483 82.4766H171.316C170.91 82.4766 170.52 82.3152 170.232 82.0277C169.945 81.7403 169.783 81.3505 169.783 80.944C169.783 80.5375 169.945 80.1477 170.232 79.8603C170.52 79.5728 170.91 79.4114 171.316 79.4114H190.483C190.889 79.4114 191.279 79.5728 191.567 79.8603C191.854 80.1477 192.016 80.5375 192.016 80.944C192.016 81.3505 191.854 81.7403 191.567 82.0277C191.279 82.3152 190.889 82.4766 190.483 82.4766Z" fill="#3F3D56"/>
<path d="M190.483 90.523H171.316C170.91 90.523 170.52 90.3615 170.232 90.0741C169.945 89.7867 169.783 89.3969 169.783 88.9904C169.783 88.5839 169.945 88.1941 170.232 87.9067C170.52 87.6192 170.91 87.4578 171.316 87.4578H190.483C190.889 87.4578 191.279 87.6192 191.567 87.9067C191.854 88.1941 192.016 88.5839 192.016 88.9904C192.016 89.3969 191.854 89.7867 191.567 90.0741C191.279 90.3615 190.889 90.523 190.483 90.523Z" fill="#3F3D56"/>
<path d="M161.482 95.1046H147.475C147.018 95.1041 146.579 94.9223 146.256 94.599C145.933 94.2758 145.751 93.8375 145.75 93.3804V76.8589C145.751 76.4017 145.933 75.9635 146.256 75.6402C146.579 75.317 147.018 75.1352 147.475 75.1346H161.482C161.939 75.1352 162.378 75.317 162.701 75.6402C163.025 75.9635 163.206 76.4017 163.207 76.8589V93.3804C163.206 93.8375 163.025 94.2758 162.701 94.599C162.378 94.9223 161.939 95.1041 161.482 95.1046Z" fill="#EA4335"/>
<path d="M190.35 106.999H147.034C146.832 106.999 146.633 106.96 146.446 106.883C146.26 106.806 146.091 106.693 145.948 106.551C145.805 106.408 145.692 106.239 145.615 106.053C145.538 105.867 145.498 105.667 145.498 105.466C145.498 105.264 145.538 105.065 145.615 104.879C145.692 104.693 145.805 104.524 145.948 104.381C146.091 104.239 146.26 104.126 146.446 104.049C146.633 103.972 146.832 103.933 147.034 103.933H190.35C190.756 103.934 191.145 104.096 191.432 104.383C191.719 104.671 191.88 105.06 191.88 105.466C191.88 105.872 191.719 106.261 191.432 106.549C191.145 106.836 190.756 106.998 190.35 106.999Z" fill="#CCCCCC"/>
<path d="M190.35 115.045H147.034C146.832 115.045 146.633 115.006 146.446 114.929C146.26 114.852 146.091 114.739 145.948 114.597C145.805 114.455 145.692 114.286 145.615 114.099C145.538 113.913 145.498 113.714 145.498 113.512C145.498 113.311 145.538 113.111 145.615 112.925C145.692 112.739 145.805 112.57 145.948 112.428C146.091 112.285 146.26 112.172 146.446 112.096C146.633 112.019 146.832 111.979 147.034 111.98H190.35C190.756 111.98 191.146 112.141 191.434 112.429C191.722 112.716 191.883 113.106 191.883 113.512C191.883 113.919 191.722 114.309 191.434 114.596C191.146 114.884 190.756 115.045 190.35 115.045Z" fill="#CCCCCC"/>
<path d="M190.35 123.091H147.034C146.832 123.092 146.633 123.052 146.446 122.975C146.26 122.899 146.091 122.786 145.948 122.643C145.805 122.501 145.692 122.332 145.615 122.146C145.538 121.96 145.498 121.76 145.498 121.559C145.498 121.357 145.538 121.158 145.615 120.972C145.692 120.785 145.805 120.616 145.948 120.474C146.091 120.332 146.26 120.219 146.446 120.142C146.633 120.065 146.832 120.026 147.034 120.026H190.35C190.756 120.026 191.146 120.187 191.434 120.475C191.722 120.762 191.883 121.152 191.883 121.559C191.883 121.965 191.722 122.355 191.434 122.642C191.146 122.93 190.756 123.091 190.35 123.091Z" fill="#CCCCCC"/>
<path d="M190.35 131.137H147.034C146.832 131.138 146.633 131.098 146.446 131.022C146.26 130.945 146.091 130.832 145.948 130.69C145.805 130.547 145.692 130.378 145.615 130.192C145.538 130.006 145.498 129.806 145.498 129.605C145.498 129.403 145.538 129.204 145.615 129.018C145.692 128.832 145.805 128.663 145.948 128.52C146.091 128.378 146.26 128.265 146.446 128.188C146.633 128.111 146.832 128.072 147.034 128.072H190.35C190.756 128.072 191.146 128.234 191.434 128.521C191.722 128.809 191.883 129.198 191.883 129.605C191.883 130.011 191.722 130.401 191.434 130.689C191.146 130.976 190.756 131.137 190.35 131.137Z" fill="#CCCCCC"/>
<path d="M190.35 139.184H147.034C146.832 139.184 146.633 139.145 146.446 139.068C146.26 138.991 146.091 138.878 145.948 138.736C145.805 138.593 145.692 138.424 145.615 138.238C145.538 138.052 145.498 137.853 145.498 137.651C145.498 137.45 145.538 137.25 145.615 137.064C145.692 136.878 145.805 136.709 145.948 136.566C146.091 136.424 146.26 136.311 146.446 136.234C146.633 136.158 146.832 136.118 147.034 136.119H190.35C190.756 136.119 191.145 136.281 191.432 136.568C191.719 136.856 191.88 137.245 191.88 137.651C191.88 138.057 191.719 138.447 191.432 138.734C191.145 139.021 190.756 139.183 190.35 139.184Z" fill="#CCCCCC"/>
<path d="M251.996 96.1469L215.721 130.668L216.25 131.223L252.525 96.702L251.996 96.1469Z" fill="#E6E6E6"/>
<path d="M215.383 131.518L219.987 131.464L219.979 130.697L216.198 130.742L216.429 126.971L215.663 126.924L215.383 131.518Z" fill="#E6E6E6"/>
<path d="M252.862 95.8506L252.583 100.445L251.817 100.399L252.047 96.6268L248.267 96.6722L248.259 95.9056L252.862 95.8506Z" fill="#E6E6E6"/>
<path d="M234.123 117.9C236.452 117.9 238.34 116.013 238.34 113.685C238.34 111.357 236.452 109.47 234.123 109.47C231.794 109.47 229.906 111.357 229.906 113.685C229.906 116.013 231.794 117.9 234.123 117.9Z" fill="#E6E6E6"/>
<path d="M203.376 14.538L167.101 49.0588L167.63 49.6139L203.905 15.0931L203.376 14.538Z" fill="#E6E6E6"/>
<path d="M166.762 49.9089L171.367 49.8548L171.358 49.0878L167.578 49.1332L167.809 45.3617L167.043 45.3154L166.762 49.9089Z" fill="#E6E6E6"/>
<path d="M204.242 14.2417L203.962 18.8356L203.196 18.7898L203.427 15.0179L199.647 15.0633L199.639 14.2967L204.242 14.2417Z" fill="#E6E6E6"/>
<path d="M185.503 36.2906C187.832 36.2906 189.719 34.4036 189.719 32.0759C189.719 29.7482 187.832 27.8612 185.503 27.8612C183.174 27.8612 181.286 29.7482 181.286 32.0759C181.286 34.4036 183.174 36.2906 185.503 36.2906Z" fill="#E6E6E6"/>
<path d="M362.841 243H291.383C289.529 243 288 241.425 288 239.515V209.485C288 207.575 289.529 206 291.383 206H344.259C346.112 206 347.641 207.575 347.641 209.485V238.658H362.841C364.208 238.658 364 240.183 364 240.852V241.806C364 242.427 363.49 243 362.841 243Z" fill="#26294B"/>
<path d="M362.69 238.341H348.581V210.3C348.58 209.166 348.129 208.079 347.326 207.277C346.524 206.475 345.436 206.024 344.302 206.023H291.98C290.844 206.023 289.756 206.474 288.952 207.276C288.149 208.078 287.697 209.165 287.696 210.3V239.093C287.697 240.227 288.149 241.315 288.952 242.117C289.756 242.919 290.844 243.37 291.98 243.37H362.69C362.764 243.37 362.832 243.366 362.901 243.361C362.965 243.356 363.03 243.343 363.094 243.334C363.562 243.239 363.983 242.985 364.285 242.616C364.588 242.247 364.753 241.784 364.754 241.307V240.404C364.754 239.857 364.537 239.332 364.15 238.945C363.762 238.558 363.237 238.341 362.69 238.341ZM362.69 242.453H291.98C291.088 242.453 290.232 242.099 289.601 241.469C288.97 240.839 288.615 239.984 288.613 239.093V210.3C288.615 209.409 288.97 208.554 289.601 207.924C290.232 207.294 291.088 206.94 291.98 206.94H344.302C345.193 206.941 346.047 207.295 346.678 207.925C347.308 208.555 347.663 209.409 347.664 210.3V239.258H362.69C362.994 239.258 363.286 239.379 363.501 239.593C363.716 239.808 363.837 240.1 363.837 240.404V241.307C363.837 241.611 363.716 241.902 363.501 242.117C363.286 242.332 362.994 242.453 362.69 242.453Z" fill="#3A385A"/>
<path d="M348.567 238.827H347.65V242.953H348.567V238.827Z" fill="#3F3D56"/>
<path d="M318.139 228.223C320.087 228.223 321.666 226.644 321.666 224.697C321.666 222.75 320.087 221.171 318.139 221.171C316.191 221.171 314.612 222.75 314.612 224.697C314.612 226.644 316.191 228.223 318.139 228.223Z" fill="#FEF8E4"/>
</g>
<defs>
<clipPath id="clip0_838_714">
<rect width="410" height="296" fill="white"/>
</clipPath>
</defs>
</svg>
