<svg width="294" height="328" viewBox="0 0 294 328" fill="none" xmlns="http://www.w3.org/2000/svg">
<path d="M250.555 177.658L197.65 157.627C194.011 156.243 192.119 152.163 193.502 148.521L221.228 75.1713C222.61 71.5293 226.686 69.6354 230.324 71.0194L263.872 83.6936L279.737 120.332L259.651 173.506C258.269 177.221 254.194 179.042 250.555 177.658Z" fill="#F5F5F5"/>
<path d="M263.872 83.7664L256.086 104.38C254.776 107.804 256.522 111.591 259.943 112.902L279.737 120.405L263.872 83.7664Z" fill="#EBEBEB"/>
<path d="M255.649 106.347C255.649 106.347 253.466 111.227 258.56 115.088C258.778 115.233 258.924 115.379 259.142 115.452C261.544 116.909 277.481 126.378 277.626 126.014C277.772 125.577 279.737 120.478 279.737 120.478L259.943 112.903C259.943 112.903 254.994 110.863 255.649 106.347Z" fill="#E0E0E0"/>
<path d="M251.95 101.906C252.049 101.643 246.645 99.3528 239.879 96.7916C233.112 94.2304 227.546 92.3676 227.447 92.631C227.347 92.8944 232.752 95.1842 239.518 97.7454C246.285 100.307 251.85 102.169 251.95 101.906Z" fill="#E0E0E0"/>
<path d="M263.323 119.553C263.423 119.289 254.483 115.661 243.357 111.45C232.23 107.238 223.129 104.037 223.03 104.3C222.93 104.564 231.869 108.192 242.996 112.403C254.123 116.615 263.224 119.816 263.323 119.553Z" fill="#E0E0E0"/>
<path d="M263.366 130.654C263.466 130.391 253.704 126.451 241.562 121.856C229.42 117.26 219.497 113.747 219.397 114.011C219.298 114.274 229.06 118.213 241.202 122.809C253.343 127.405 263.267 130.917 263.366 130.654Z" fill="#E0E0E0"/>
<path d="M259.873 139.859C259.972 139.596 250.21 135.657 238.069 131.061C225.927 126.465 216.003 122.953 215.904 123.216C215.804 123.479 225.566 127.419 237.708 132.015C249.85 136.611 259.773 140.123 259.873 139.859Z" fill="#E0E0E0"/>
<path d="M256.379 149.064C256.479 148.801 246.716 144.861 234.575 140.265C222.433 135.67 212.509 132.157 212.41 132.421C212.31 132.684 222.073 136.623 234.214 141.219C246.356 145.815 256.28 149.327 256.379 149.064Z" fill="#E0E0E0"/>
<path d="M252.886 158.27C252.985 158.006 243.223 154.067 231.082 149.471C218.94 144.875 209.016 141.363 208.917 141.626C208.817 141.89 218.579 145.829 230.721 150.425C242.863 155.021 252.786 158.533 252.886 158.27Z" fill="#E0E0E0"/>
<path d="M112.142 210.363L42.3535 234.837C39.952 235.711 37.3322 234.4 36.4589 231.996L1.45546 131.914C0.582196 129.51 1.8921 126.888 4.29358 126.014L74.0822 101.539C76.4837 100.665 79.1035 101.976 79.9767 104.38L114.98 204.463C115.781 206.867 114.544 209.489 112.142 210.363Z" fill="#EBEBEB"/>
<path d="M74.9434 107.744L7.42853 131.409L42.1345 230.61L109.649 206.946L74.9434 107.744Z" fill="#E0E0E0"/>
<path d="M73.7619 107.317L6.24701 130.982L40.2795 228.259L107.794 204.594L73.7619 107.317Z" fill="#FAFAFA"/>
<path d="M107.776 204.608C107.485 203.807 93.8035 164.765 73.6456 107.367L73.7911 107.439C53.3421 114.651 30.4188 122.663 6.33121 131.113L6.40399 130.967C19.1391 167.533 31.001 201.258 40.3886 228.282L40.3159 228.209C81.2867 213.859 107.121 204.827 107.776 204.608C107.121 204.827 81.3594 213.932 40.3159 228.354H40.2431V228.282C30.7827 201.258 18.9208 167.533 6.18567 130.967V130.894H6.25844C30.3461 122.445 53.2693 114.432 73.7183 107.221H73.7911V107.294C93.8763 164.692 107.485 203.807 107.776 204.608Z" fill="#E0E0E0"/>
<path d="M83.8337 212.985C83.8337 212.985 98.8975 200.311 101.445 187.054C101.445 187.054 97.2966 193.61 88.5639 194.775C88.6367 194.848 88.3456 208.688 83.8337 212.985Z" fill="#E0E0E0"/>
<path d="M32.2381 160.904L28.6723 162.143C27.3624 162.58 25.9797 161.924 25.4703 160.613L24.2332 157.044C23.7965 155.733 24.4515 154.349 25.7614 153.839L29.3272 152.601C30.6371 152.163 32.0198 152.819 32.5292 154.13L33.7663 157.699C34.203 159.01 33.548 160.467 32.2381 160.904Z" fill="#EBEBEB"/>
<path d="M28.8906 158.792C28.8178 158.792 28.745 158.792 28.745 158.792L27.1441 157.845C27.0713 157.772 26.9985 157.699 27.0713 157.554C27.1441 157.481 27.2168 157.408 27.3624 157.481L28.8178 158.282L30.5644 154.567C30.6371 154.494 30.7099 154.421 30.8554 154.494C30.9282 154.567 31.001 154.64 30.9282 154.786L29.1089 158.646C28.9634 158.719 28.9634 158.719 28.8906 158.792Z" fill="white"/>
<path d="M55.9081 144.513C66.7567 140.71 75.5405 137.597 75.5272 137.559C75.5139 137.521 66.7086 140.573 55.86 144.375C45.0114 148.178 36.2276 151.291 36.2408 151.329C36.2541 151.367 45.0595 148.315 55.9081 144.513Z" fill="#E0E0E0"/>
<path d="M54.9431 151.581C54.9431 151.581 54.7247 151.654 54.2881 151.872C53.8515 152.018 53.2693 152.236 52.5416 152.528C51.0861 153.037 48.9757 153.839 46.7198 154.64C44.4638 155.441 42.3535 156.17 40.898 156.68C40.1703 156.898 39.5881 157.117 39.1515 157.262C38.7148 157.408 38.4965 157.481 38.4965 157.481C38.4965 157.481 38.7148 157.408 39.1515 157.189C39.5881 157.044 40.1703 156.825 40.898 156.534C42.3535 156.024 44.4638 155.223 46.7198 154.421C48.9757 153.62 51.0861 152.892 52.5416 152.382C53.2693 152.163 53.8515 151.945 54.2881 151.799C54.652 151.654 54.9431 151.581 54.9431 151.581Z" fill="#E0E0E0"/>
<path d="M56.8596 147.204C67.7082 143.401 76.492 140.288 76.4787 140.25C76.4654 140.212 67.6601 143.264 56.8115 147.066C45.9628 150.869 37.179 153.982 37.1923 154.02C37.2056 154.058 46.0109 151.006 56.8596 147.204Z" fill="#E0E0E0"/>
<path d="M37.2594 175.4L33.6936 176.638C32.3837 177.075 31.001 176.419 30.4916 175.108L29.2545 171.539C28.8178 170.228 29.4728 168.844 30.7827 168.334L34.3485 167.096C35.6584 166.659 37.0411 167.314 37.5505 168.625L38.7876 172.195C39.297 173.506 38.5693 174.963 37.2594 175.4Z" fill="#EBEBEB"/>
<path d="M33.9846 173.287C33.9119 173.287 33.8391 173.287 33.8391 173.287L32.2381 172.34C32.1653 172.267 32.0926 172.194 32.1653 172.049C32.2381 171.976 32.3109 171.903 32.4564 171.976L33.9119 172.777L35.6584 169.062C35.7312 168.99 35.804 168.917 35.9495 168.99C36.0223 169.062 36.095 169.135 36.0223 169.281L34.203 173.141C34.0574 173.214 33.9846 173.214 33.9846 173.287Z" fill="white"/>
<path d="M61.0007 159C71.8493 155.198 80.6331 152.084 80.6198 152.046C80.6065 152.009 71.8012 155.06 60.9526 158.863C50.1039 162.665 41.3202 165.779 41.3334 165.817C41.3467 165.855 50.152 162.803 61.0007 159Z" fill="#E0E0E0"/>
<path d="M59.9644 166.076C59.9644 166.076 59.746 166.149 59.3094 166.367C58.8728 166.513 58.2906 166.731 57.5629 167.023C56.1074 167.533 53.997 168.334 51.7411 169.135C49.4851 169.936 47.3748 170.665 45.9193 171.175C45.1916 171.393 44.6094 171.612 44.1728 171.757C43.7361 171.903 43.5178 171.976 43.5178 171.976C43.5178 171.976 43.7361 171.903 44.1728 171.685C44.6094 171.539 45.1916 171.32 45.9193 171.029C47.3748 170.519 49.4851 169.718 51.7411 168.917C53.997 168.115 56.1074 167.387 57.5629 166.877C58.2906 166.659 58.8728 166.44 59.3094 166.294C59.746 166.149 59.9644 166.076 59.9644 166.076Z" fill="#E0E0E0"/>
<path d="M61.9525 161.691C72.8011 157.888 81.5849 154.775 81.5716 154.737C81.5583 154.699 72.753 157.751 61.9044 161.554C51.0557 165.356 42.2719 168.469 42.2852 168.507C42.2985 168.545 51.1038 165.494 61.9525 161.691Z" fill="#E0E0E0"/>
<path d="M42.3535 189.895L38.7876 191.133C37.4777 191.57 36.0951 190.914 35.5856 189.603L34.3485 186.034C33.9119 184.723 34.5668 183.339 35.8767 182.829L39.4426 181.591C40.7525 181.154 42.1351 181.809 42.6446 183.121L43.8817 186.69C44.3183 188.001 43.6634 189.458 42.3535 189.895Z" fill="#EBEBEB"/>
<path d="M39.0059 187.782C38.9332 187.782 38.8604 187.782 38.8604 187.782L37.2594 186.835C37.1866 186.763 37.1139 186.69 37.1866 186.544C37.2594 186.471 37.3322 186.398 37.4777 186.471L38.9332 187.272L40.6797 183.558C40.7525 183.485 40.8252 183.412 40.9708 183.485C41.0436 183.558 41.1163 183.63 41.0436 183.776L39.2243 187.637C39.1515 187.709 39.0787 187.709 39.0059 187.782Z" fill="white"/>
<path d="M66.0252 173.512C76.8738 169.709 85.6576 166.596 85.6443 166.558C85.6311 166.52 76.8257 169.572 65.9771 173.374C55.1285 177.177 46.3447 180.29 46.358 180.328C46.3713 180.366 55.1766 177.314 66.0252 173.512Z" fill="#E0E0E0"/>
<path d="M65.0584 180.571C65.0584 180.571 64.8401 180.644 64.4035 180.863C63.9668 181.008 63.3846 181.227 62.6569 181.518C61.2015 182.028 59.0911 182.829 56.8351 183.63C54.5792 184.432 52.4688 185.16 51.0134 185.67C50.2856 185.889 49.7035 186.107 49.2668 186.253C48.8302 186.398 48.6119 186.471 48.6119 186.471C48.6119 186.471 48.8302 186.398 49.2668 186.18C49.7035 186.034 50.2856 185.816 51.0134 185.524C52.4688 185.014 54.5792 184.213 56.8351 183.412C59.0911 182.611 61.2015 181.882 62.6569 181.372C63.3846 181.154 63.9668 180.935 64.4035 180.79C64.8401 180.644 65.0584 180.571 65.0584 180.571Z" fill="#E0E0E0"/>
<path d="M66.9768 176.202C77.8254 172.4 86.6092 169.287 86.5959 169.249C86.5827 169.211 77.7773 172.262 66.9287 176.065C56.0801 179.868 47.2963 182.981 47.3096 183.019C47.3229 183.057 56.1282 180.005 66.9768 176.202Z" fill="#E0E0E0"/>
<path d="M47.4475 204.39L43.8817 205.628C42.5718 206.065 41.1891 205.41 40.6797 204.099L39.4426 200.529C39.0059 199.218 39.6609 197.834 40.9708 197.324L44.5366 196.086C45.8465 195.649 47.2292 196.305 47.7386 197.616L48.9757 201.185C49.4124 202.496 48.7574 203.953 47.4475 204.39Z" fill="#EBEBEB"/>
<path d="M44.1 202.278C44.0272 202.278 43.9545 202.278 43.9545 202.278L42.3535 201.331C42.2807 201.258 42.2079 201.185 42.2807 201.039C42.3535 200.966 42.4262 200.894 42.5718 200.966L44.0272 201.768L45.7738 198.053C45.8465 197.98 45.9193 197.907 46.0648 197.98C46.1376 198.053 46.2104 198.126 46.1376 198.271L44.3183 202.132C44.1728 202.205 44.1728 202.205 44.1 202.278Z" fill="white"/>
<path d="M71.1181 187.999C81.9667 184.197 90.7505 181.083 90.7373 181.045C90.724 181.007 81.9186 184.059 71.07 187.862C60.2214 191.664 51.4376 194.777 51.4509 194.815C51.4642 194.853 60.2695 191.802 71.1181 187.999Z" fill="#E0E0E0"/>
<path d="M70.1525 195.066C70.1525 195.066 69.9341 195.139 69.4975 195.358C69.0609 195.503 68.4787 195.722 67.751 196.013C66.2955 196.523 64.1851 197.324 61.9292 198.126C59.6733 198.927 57.5629 199.655 56.1074 200.165C55.3797 200.384 54.7975 200.602 54.3609 200.748C53.9242 200.894 53.7059 200.966 53.7059 200.966C53.7059 200.966 53.9242 200.894 54.3609 200.675C54.7975 200.529 55.3797 200.311 56.1074 200.02C57.5629 199.51 59.6733 198.708 61.9292 197.907C64.1851 197.106 66.2955 196.378 67.751 195.868C68.4787 195.649 69.0609 195.431 69.4975 195.285C69.8614 195.139 70.1525 195.066 70.1525 195.066Z" fill="#E0E0E0"/>
<path d="M72.0696 190.69C82.9183 186.887 91.7021 183.774 91.6888 183.736C91.6755 183.698 82.8702 186.75 72.0215 190.552C61.1729 194.355 52.3891 197.468 52.4024 197.506C52.4157 197.544 61.221 194.492 72.0696 190.69Z" fill="#E0E0E0"/>
<path d="M13.8995 121.498L15.646 126.596C16.6648 129.583 19.9396 131.113 22.8505 130.093L60.1826 116.982C63.1663 115.962 64.6945 112.684 63.6757 109.77L61.9292 104.672L13.8995 121.498Z" fill="#E0E0E0"/>
<path d="M38.4238 114.578C35.6584 115.525 32.602 114.068 31.656 111.3C30.7099 108.532 32.1654 105.473 34.9307 104.526C37.6961 103.579 40.7525 105.036 41.6985 107.804C42.6446 110.572 41.1891 113.631 38.4238 114.578ZM35.5857 106.493C33.9119 107.075 32.9659 108.969 33.548 110.645C34.1302 112.32 36.0223 113.267 37.6961 112.684C39.3698 112.101 40.3159 110.207 39.7337 108.532C39.1515 106.784 37.2594 105.91 35.5857 106.493Z" fill="#E0E0E0"/>
<path d="M46.2938 135.758C58.4701 131.491 68.3086 127.938 68.2687 127.825C68.2289 127.711 58.3258 131.078 46.1495 135.346C33.9732 139.614 24.1347 143.166 24.1746 143.28C24.2144 143.394 34.1175 140.026 46.2938 135.758Z" fill="#E0E0E0"/>
<path d="M45.9866 133.208C51.373 131.32 55.7072 129.698 55.6673 129.584C55.6275 129.47 51.2286 130.908 45.8423 132.796C40.4559 134.684 36.1217 136.307 36.1615 136.421C36.2014 136.535 40.6002 135.096 45.9866 133.208Z" fill="#E0E0E0"/>
<path d="M249.609 277.23C252.229 275.846 255.285 275.701 258.196 276.211C259.724 276.502 261.398 276.939 262.417 278.104C263.508 279.27 263.654 281.309 262.49 282.329C261.762 282.912 260.743 282.985 259.797 282.985C257.541 282.985 254.994 282.548 253.175 283.932C252.156 284.733 251.428 286.044 250.191 286.408C248.954 286.772 247.644 286.044 246.989 284.951C246.334 283.859 246.334 282.475 246.625 281.236C246.625 281.236 246.989 278.541 249.609 277.23Z" fill="#FF725E"/>
<path d="M243.569 265.649C245.17 267.907 248.299 267.178 249.682 265.794C251.137 264.41 251.719 262.371 252.301 260.477C253.539 256.107 254.848 251.445 253.902 247.002C253.611 245.69 253.102 244.306 252.156 243.359C251.21 242.34 249.754 241.757 248.445 242.121C246.844 242.558 245.897 244.088 245.17 245.545C243.132 249.842 242.041 254.577 241.968 259.384C242.113 261.497 242.332 263.828 243.569 265.649Z" fill="#FF725E"/>
<path d="M239.202 268.926C240.949 266.887 241.24 263.828 240.512 261.278C239.712 258.729 237.965 256.471 236.001 254.723C233.672 252.61 230.906 251.008 227.923 249.915C226.758 249.478 225.521 249.187 224.284 249.26C223.047 249.405 221.81 249.988 221.228 251.081C220.354 252.683 221.228 254.65 222.101 256.325C223.629 259.166 225.449 261.861 227.413 264.41C229.014 266.45 230.834 268.489 233.235 269.436C235.637 270.383 238.184 270.238 239.494 268.562" fill="#FF725E"/>
<path d="M243.496 300.102C243.496 300.102 243.569 299.738 243.642 299.082C243.714 298.354 243.787 297.407 243.933 296.242C244.078 295.076 244.224 293.619 244.588 292.09C244.951 290.56 245.461 288.885 246.116 287.209C246.771 285.534 247.644 284.005 248.59 282.766C249.536 281.528 250.7 280.654 251.719 280.144C252.811 279.634 253.757 279.416 254.412 279.343C255.067 279.27 255.431 279.197 255.431 279.197C255.431 279.197 255.067 279.197 254.412 279.197C253.757 279.27 252.738 279.416 251.646 279.925C250.555 280.435 249.318 281.309 248.299 282.548C247.28 283.786 246.407 285.388 245.679 287.064C245.024 288.812 244.515 290.487 244.151 292.017C243.86 293.619 243.714 295.003 243.569 296.242C243.496 297.48 243.423 298.427 243.423 299.082C243.423 299.738 243.496 300.102 243.496 300.102Z" fill="#AFC7D2"/>
<path d="M243.714 297.917C243.714 297.917 243.714 297.771 243.714 297.407C243.714 297.043 243.714 296.606 243.714 296.023C243.714 294.858 243.714 293.109 243.787 290.997C243.86 286.699 244.296 282.111 244.951 275.628C245.606 269.509 246.552 262.444 247.498 257.855C247.717 256.835 247.935 255.888 248.081 255.014C248.299 254.213 248.445 253.484 248.59 252.902C248.736 252.392 248.808 251.882 248.881 251.59C248.954 251.299 248.954 251.153 248.954 251.081C248.954 251.081 248.881 251.226 248.808 251.518C248.736 251.882 248.59 252.319 248.445 252.829C248.299 253.411 248.081 254.14 247.862 254.941C247.644 255.742 247.426 256.689 247.207 257.782C246.261 261.934 245.243 267.834 244.515 274.317C243.787 280.799 243.496 286.699 243.423 290.997C243.423 293.109 243.423 294.858 243.496 296.096C243.496 296.679 243.569 297.116 243.569 297.48C243.642 297.771 243.642 297.917 243.714 297.917Z" fill="#AFC7D2"/>
<path d="M243.714 286.481C243.714 286.481 243.714 285.971 243.714 285.024C243.642 284.077 243.569 282.766 243.278 281.091C242.987 279.488 242.623 277.522 242.041 275.409C241.75 274.462 241.167 272.132 239.639 268.708C237.674 264.046 234.982 260.186 232.653 257.855C232.144 257.199 231.489 256.762 230.979 256.325C230.761 256.107 230.47 255.888 230.251 255.742C230.033 255.597 229.815 255.451 229.597 255.305C228.796 254.796 228.432 254.504 228.359 254.504C228.287 254.577 230.106 255.67 232.362 258.073C234.618 260.477 237.238 264.265 239.13 268.927C240.221 271.476 240.949 273.661 241.531 275.555C242.186 277.667 242.55 279.561 242.914 281.164C243.205 282.766 243.351 284.077 243.496 285.024C243.642 285.971 243.714 286.481 243.714 286.481Z" fill="#AFC7D2"/>
<path d="M232.726 306.658L233.817 322.318H253.975L255.067 306.658H232.726Z" fill="#5A717C"/>
<path d="M257.468 300.466H230.761V306.658H257.468V300.466Z" fill="#677982"/>
<path d="M230.761 321.663V323.411H231.998H257.032V321.663H230.761Z" fill="#455A64"/>
<path d="M233.235 326.398L231.998 323.411H256.086L254.63 326.398H233.235Z" fill="#455A64"/>
<path d="M254.703 311.757C254.703 311.757 254.703 311.83 254.63 311.902C254.557 311.975 254.485 312.121 254.339 312.267C254.048 312.631 253.684 313.141 253.175 313.796L253.102 313.869L253.029 313.796C252.301 312.776 251.283 311.392 250.118 309.79H250.264C249.391 311.028 248.445 312.339 247.426 313.796V313.942L247.353 313.796C246.334 312.558 245.17 311.174 244.005 309.79H244.224C244.151 309.863 244.078 309.936 244.005 310.008C242.987 311.32 241.968 312.558 241.022 313.796L240.876 313.942L240.803 313.796C239.785 312.339 238.839 311.028 237.965 309.79H238.111C236.728 311.392 235.564 312.704 234.618 313.796L234.545 313.869L234.472 313.796C234.036 312.995 233.672 312.412 233.381 311.975C233.235 311.757 233.162 311.611 233.09 311.465C233.017 311.32 233.017 311.32 233.017 311.32C233.017 311.32 233.09 311.392 233.162 311.465C233.235 311.611 233.381 311.757 233.453 311.902C233.745 312.339 234.108 312.922 234.618 313.723H234.545C235.418 312.704 236.583 311.32 237.965 309.717L238.038 309.644L238.111 309.79C238.984 311.028 239.93 312.339 240.949 313.796H240.731C241.677 312.631 242.696 311.32 243.714 310.008C243.787 309.936 243.86 309.863 243.933 309.79L244.005 309.644L244.078 309.79C245.243 311.174 246.407 312.558 247.426 313.796H247.207C248.226 312.339 249.172 311.028 250.046 309.79L250.118 309.644L250.191 309.79C251.355 311.392 252.301 312.776 253.029 313.796H252.956C253.466 313.213 253.902 312.704 254.194 312.339C254.339 312.194 254.412 312.048 254.485 311.975C254.703 311.757 254.703 311.757 254.703 311.757Z" fill="#E0E0E0"/>
<path d="M244.151 306.658C250.381 306.658 255.431 306.593 255.431 306.512C255.431 306.432 250.381 306.366 244.151 306.366C237.921 306.366 232.871 306.432 232.871 306.512C232.871 306.593 237.921 306.658 244.151 306.658Z" fill="#455A64"/>
<path d="M244.151 323.702C250.903 323.702 256.377 323.637 256.377 323.557C256.377 323.476 250.903 323.411 244.151 323.411C237.399 323.411 231.925 323.476 231.925 323.557C231.925 323.637 237.399 323.702 244.151 323.702Z" fill="#263238"/>
<path d="M58.0461 273.606C58.0964 273.543 57.7301 273.166 57.2281 272.764C56.726 272.362 56.2783 272.086 56.2281 272.149C56.1779 272.212 56.5441 272.589 57.0462 272.991C57.5482 273.393 57.9959 273.669 58.0461 273.606Z" fill="#263238"/>
<path d="M72.0445 252.756C72.1173 250.789 72.1901 248.823 71.5351 246.929C70.953 245.108 69.4975 243.36 67.6054 242.995C65.4223 242.558 63.1663 243.942 62.002 245.763C60.7648 247.657 60.3282 249.915 60.0371 252.1C57.5629 267.251 56.6168 282.62 57.2718 297.99L66.15 299.228C70.0797 283.203 71.3168 269.218 72.0445 252.756Z" fill="#455A64"/>
<path d="M66.3683 242.922C66.3683 242.922 66.3683 242.995 66.2955 243.068C66.2228 243.141 66.2228 243.287 66.15 243.505C66.0045 243.869 65.7861 244.379 65.5678 245.035C65.4223 245.399 65.2767 245.763 65.1312 246.127C64.9856 246.564 64.8401 247.002 64.6945 247.511C64.549 248.021 64.4035 248.531 64.1851 249.041C64.0396 249.624 63.8941 250.207 63.7485 250.789C63.0936 253.266 62.5114 256.252 62.002 259.603C61.4926 262.954 61.2015 266.668 60.9832 270.602C60.5465 278.396 60.4738 285.534 60.2554 290.633C60.1827 293.182 60.0371 295.295 59.9644 296.679C59.8916 297.407 59.8916 297.917 59.8188 298.354C59.8188 298.5 59.8188 298.645 59.746 298.791C59.746 298.864 59.746 298.937 59.746 298.937C59.746 298.937 59.746 298.864 59.746 298.791C59.746 298.645 59.746 298.5 59.746 298.354C59.746 297.917 59.746 297.407 59.8188 296.679C59.8916 295.222 59.9644 293.182 59.9644 290.633C60.1099 285.534 60.1099 278.396 60.6193 270.602C60.8376 266.668 61.2015 262.954 61.7109 259.603C62.2203 256.252 62.8025 253.266 63.5302 250.789C63.6757 250.207 63.8941 249.551 64.0396 249.041C64.2579 248.458 64.4035 247.948 64.549 247.511C64.6945 247.002 64.8401 246.565 64.9856 246.2C65.1312 245.763 65.2767 245.399 65.4223 245.108C65.7134 244.452 65.9317 243.942 66.0772 243.578C66.15 243.432 66.2228 243.287 66.2228 243.214C66.3683 242.995 66.3683 242.922 66.3683 242.922Z" fill="#263238"/>
<path d="M67.1688 242.922C67.1688 242.922 67.751 243.505 68.2604 244.743C68.8425 245.982 69.2064 248.021 69.0609 250.498C68.8425 255.451 68.4059 262.225 67.8237 269.728C67.2416 277.23 66.5866 284.004 66.0772 288.885C65.7861 291.361 65.5678 293.328 65.4223 294.712C65.3495 295.368 65.2767 295.877 65.2039 296.314C65.2039 296.46 65.1312 296.606 65.1312 296.751C65.1312 296.824 65.1312 296.897 65.1312 296.897C65.1312 296.897 65.1312 296.824 65.1312 296.751C65.1312 296.606 65.1312 296.533 65.1312 296.314C65.1312 295.95 65.2039 295.368 65.2767 294.712C65.4223 293.328 65.5678 291.361 65.8589 288.885C66.2955 284.004 66.9505 277.23 67.5326 269.728C68.1148 262.225 68.6242 255.451 68.9153 250.498C69.0609 248.021 68.697 246.055 68.1876 244.816C67.6782 243.578 67.1688 242.995 67.1688 242.922Z" fill="#263238"/>
<path d="M73.3765 265.997C73.4037 265.921 72.6896 265.596 71.7816 265.27C70.8737 264.944 70.1156 264.741 70.0885 264.817C70.0614 264.892 70.7754 265.218 71.6834 265.544C72.5913 265.87 73.3494 266.073 73.3765 265.997Z" fill="#263238"/>
<path d="M72.8322 257.846C73.7493 257.435 74.4662 257.042 74.4334 256.969C74.4005 256.896 73.6304 257.169 72.7133 257.58C71.7961 257.991 71.0792 258.383 71.112 258.456C71.1449 258.53 71.915 258.256 72.8322 257.846Z" fill="#263238"/>
<path d="M73.8447 249.535C73.8502 249.455 73.2696 249.35 72.5479 249.3C71.8262 249.25 71.2367 249.275 71.2312 249.355C71.2256 249.435 71.8062 249.541 72.5279 249.59C73.2496 249.64 73.8391 249.616 73.8447 249.535Z" fill="#263238"/>
<path d="M64.6982 244.749C64.7663 244.707 64.4917 244.147 64.085 243.5C63.6783 242.854 63.2935 242.364 63.2254 242.407C63.1574 242.45 63.4319 243.009 63.8386 243.656C64.2454 244.303 64.6302 244.792 64.6982 244.749Z" fill="#263238"/>
<path d="M61.6677 249.239C61.6694 249.159 61.117 249.082 60.4339 249.067C59.7508 249.053 59.1956 249.106 59.1939 249.187C59.1922 249.267 59.7446 249.344 60.4277 249.359C61.1108 249.373 61.6659 249.32 61.6677 249.239Z" fill="#263238"/>
<path d="M59.4751 258.207C59.5052 258.133 58.9554 257.84 58.2472 257.555C57.539 257.269 56.9406 257.097 56.9105 257.172C56.8804 257.247 57.4302 257.539 58.1384 257.825C58.8466 258.111 59.445 258.282 59.4751 258.207Z" fill="#263238"/>
<path d="M58.0939 266.158C58.7232 266.026 59.22 265.855 59.2035 265.776C59.187 265.698 58.6635 265.741 58.0341 265.873C57.4047 266.005 56.9079 266.176 56.9244 266.255C56.9409 266.334 57.4645 266.29 58.0939 266.158Z" fill="#263238"/>
<path d="M57.0034 278.46C57.676 278.339 58.2096 278.177 58.1955 278.098C58.1813 278.019 57.6246 278.053 56.9521 278.173C56.2796 278.294 55.7459 278.456 55.7601 278.535C55.7742 278.614 56.3309 278.581 57.0034 278.46Z" fill="#263238"/>
<path d="M56.5562 285.662C57.1602 285.342 57.6194 285.026 57.5818 284.954C57.5442 284.883 57.0241 285.085 56.4201 285.405C55.8161 285.724 55.357 286.041 55.3945 286.112C55.4321 286.184 55.9522 285.982 56.5562 285.662Z" fill="#263238"/>
<path d="M63.0629 292.628C63.1327 292.588 62.8654 291.99 62.466 291.292C62.0666 290.593 61.6862 290.06 61.6165 290.1C61.5467 290.14 61.814 290.738 62.2134 291.436C62.6128 292.135 62.9931 292.668 63.0629 292.628Z" fill="#263238"/>
<path d="M63.7015 280.995C64.3042 280.404 64.7472 279.878 64.6909 279.82C64.6347 279.763 64.1004 280.196 63.4977 280.787C62.895 281.379 62.4521 281.905 62.5083 281.962C62.5646 282.02 63.0988 281.587 63.7015 280.995Z" fill="#263238"/>
<path d="M64.3079 273.092C64.3669 273.038 64.0604 272.611 63.6234 272.138C63.1864 271.666 62.7843 271.328 62.7253 271.382C62.6663 271.437 62.9728 271.864 63.4098 272.336C63.8469 272.809 64.2489 273.147 64.3079 273.092Z" fill="#263238"/>
<path d="M64.5846 265.616C65.0942 265.047 65.4588 264.542 65.3989 264.488C65.339 264.434 64.8774 264.852 64.3679 265.422C63.8583 265.991 63.4937 266.496 63.5536 266.549C63.6134 266.603 64.0751 266.185 64.5846 265.616Z" fill="#263238"/>
<path d="M66.0816 258.205C66.1379 258.148 65.7188 257.644 65.1456 257.08C64.5723 256.516 64.0619 256.105 64.0055 256.163C63.9492 256.22 64.3682 256.724 64.9415 257.288C65.5148 257.852 66.0252 258.262 66.0816 258.205Z" fill="#263238"/>
<path d="M66.698 250.994C67.0891 250.337 67.3503 249.772 67.2812 249.73C67.2122 249.689 66.8391 250.188 66.448 250.844C66.0569 251.501 65.7958 252.066 65.8648 252.108C65.9338 252.149 66.3069 251.65 66.698 250.994Z" fill="#263238"/>
<path d="M69.0344 243.162C69.3975 242.49 69.6345 241.914 69.5637 241.875C69.493 241.837 69.1414 242.351 68.7784 243.024C68.4153 243.696 68.1784 244.272 68.2491 244.31C68.3198 244.349 68.6714 243.835 69.0344 243.162Z" fill="#263238"/>
<path d="M71.3995 246.042C71.8708 245.816 72.2248 245.574 72.1901 245.501C72.1554 245.429 71.7452 245.553 71.2738 245.779C70.8025 246.004 70.4485 246.246 70.4832 246.319C70.5179 246.391 70.9281 246.267 71.3995 246.042Z" fill="#263238"/>
<path d="M72.2629 273.588C72.2629 273.661 71.4624 273.588 70.5163 273.151C69.5703 272.787 68.9881 272.277 68.9881 272.204C69.0609 272.131 69.7158 272.496 70.5891 272.86C71.5351 273.297 72.2629 273.515 72.2629 273.588Z" fill="#263238"/>
<path d="M69.9569 279.926C70.6278 279.797 71.1593 279.628 71.1441 279.549C71.1289 279.47 70.5727 279.511 69.9018 279.64C69.2309 279.77 68.6994 279.939 68.7146 280.018C68.7299 280.097 69.2861 280.056 69.9569 279.926Z" fill="#263238"/>
<path d="M69.8614 289.759C69.7886 289.832 69.1337 289.395 68.4787 288.593C67.8238 287.792 67.5327 287.064 67.6055 286.991C67.6782 286.918 68.1149 287.646 68.697 288.375C69.352 289.176 69.9342 289.759 69.8614 289.759Z" fill="#263238"/>
<path d="M56.5644 293.79C57.0531 293.372 57.407 292.983 57.3547 292.922C57.3025 292.861 56.8639 293.15 56.3752 293.569C55.8865 293.987 55.5327 294.376 55.5849 294.437C55.6371 294.498 56.0757 294.208 56.5644 293.79Z" fill="#263238"/>
<path d="M51.45 272.131C50.8678 270.31 49.7762 268.198 47.8842 268.198C46.7198 268.198 45.7738 268.999 45.1916 270.019C44.6822 271.039 44.4639 272.204 44.4639 273.297C44.6822 280.727 45.9921 289.322 48.5391 297.043H55.5253C55.4525 288.375 54.0698 280.362 51.45 272.131Z" fill="#455A64"/>
<path d="M38.8604 260.768C37.9144 256.908 35.0035 254.795 31.5832 254.577C28.5267 255.087 27.2896 258.146 26.9257 261.278C26.5619 264.41 27.5079 267.47 28.454 270.456C31.5104 279.998 34.5668 289.54 37.6233 299.155C40.5342 298.864 43.3723 298.5 46.2832 298.208C43.5906 285.316 41.9896 273.443 38.8604 260.768Z" fill="#455A64"/>
<path d="M47.8842 268.198C47.8842 268.198 47.5931 268.489 47.302 269.218C47.0109 269.873 46.8653 270.966 47.0109 272.277C47.1564 273.588 47.302 275.191 47.5203 276.939C47.7386 278.687 48.0297 280.581 48.4663 282.621C49.2668 286.627 50.1401 290.196 50.7223 292.818C51.0134 294.129 51.2317 295.222 51.3772 295.95C51.45 296.315 51.45 296.606 51.5228 296.824C51.5228 297.043 51.5955 297.116 51.5228 297.116C51.45 297.116 51.45 297.043 51.45 296.824C51.3772 296.606 51.3044 296.315 51.2317 296.023C51.0134 295.222 50.795 294.202 50.504 292.964C49.9218 290.342 48.9757 286.772 48.1752 282.766C47.8114 280.727 47.4475 278.833 47.2292 277.085C47.0837 276.211 47.0109 275.336 46.9381 274.608C46.8653 273.807 46.7926 273.078 46.7198 272.423C46.647 271.112 46.7926 269.946 47.1564 269.291C47.5203 268.489 47.8842 268.198 47.8842 268.198Z" fill="#263238"/>
<path d="M31.7287 254.286C31.7287 254.286 31.2921 254.723 30.7099 255.67C30.1277 256.617 29.4728 258.219 29.4 260.186C29.2544 262.225 29.6911 264.629 30.4916 267.178C31.2193 269.728 32.0926 272.569 32.9658 275.555C34.7124 281.528 36.2406 286.845 37.4049 290.779C37.9144 292.673 38.4238 294.275 38.7148 295.44C38.8604 295.95 38.9332 296.387 39.0787 296.679C39.1515 296.97 39.1515 297.116 39.1515 297.116C39.1515 297.116 39.0787 296.97 39.0059 296.679C38.9332 296.387 38.7876 295.95 38.6421 295.44C38.2782 294.348 37.8416 292.745 37.2594 290.851C36.095 286.918 34.4941 281.528 32.7475 275.628C31.8743 272.641 31.0738 269.801 30.2733 267.251C29.5455 264.702 29.1089 262.225 29.2544 260.186C29.4 258.146 30.0549 256.544 30.7099 255.597C31.2193 254.723 31.7287 254.286 31.7287 254.286Z" fill="#263238"/>
<path d="M44.4639 297.189C44.4639 297.189 44.3911 297.043 44.2455 296.752C44.1 296.46 43.9544 296.096 43.7361 295.513C43.2995 294.421 42.7901 292.891 42.2807 290.924C41.6985 288.958 41.1891 286.554 40.6797 283.932C40.1703 281.309 39.6609 278.396 39.0787 275.336C38.4965 272.277 37.8416 269.436 37.0411 266.814C36.2406 264.265 35.3673 262.007 34.4941 260.113C33.6208 258.292 32.8203 256.835 32.1653 255.888C31.8742 255.378 31.5832 255.087 31.4376 254.795C31.2921 254.577 31.2193 254.431 31.2193 254.431C31.2193 254.431 31.3648 254.577 31.5104 254.795C31.6559 255.014 31.947 255.378 32.3109 255.888C32.9658 256.835 33.8391 258.219 34.7124 260.04C35.5856 261.861 36.5317 264.119 37.3322 266.741C38.1327 269.291 38.7876 272.204 39.4426 275.264C40.0247 278.323 40.5342 281.237 41.0436 283.859C41.553 286.481 42.0624 288.885 42.5718 290.851C43.0812 292.818 43.5906 294.421 43.9544 295.44C44.1 295.95 44.3183 296.387 44.3911 296.679C44.3911 297.043 44.4639 297.189 44.4639 297.189Z" fill="#263238"/>
<path d="M27.5989 269.364C28.1847 269.222 28.6443 269.043 28.6253 268.965C28.6064 268.887 28.1161 268.939 27.5302 269.081C26.9444 269.224 26.4848 269.402 26.5037 269.48C26.5227 269.559 27.013 269.507 27.5989 269.364Z" fill="#263238"/>
<path d="M27.7263 263.026C27.7263 263.099 27.0713 263.172 26.2708 263.172C25.4703 263.172 24.8154 263.245 24.8154 263.099C24.8154 263.026 25.4703 262.881 26.2708 262.808C27.0713 262.881 27.7263 262.954 27.7263 263.026Z" fill="#263238"/>
<path d="M28.7333 257.625C28.7853 257.564 28.4051 257.155 27.8841 256.713C27.363 256.27 26.8985 255.962 26.8465 256.023C26.7945 256.084 27.1747 256.493 27.6958 256.935C28.2168 257.377 28.6813 257.686 28.7333 257.625Z" fill="#263238"/>
<path d="M31.3649 252.683C31.4376 252.683 31.4376 253.12 31.4376 253.63C31.4376 254.14 31.4376 254.577 31.3649 254.577C31.2921 254.577 31.1465 254.14 31.1465 253.63C31.1465 253.047 31.2921 252.61 31.3649 252.683Z" fill="#263238"/>
<path d="M36.2974 255.96C36.6201 255.498 36.8283 255.087 36.7625 255.041C36.6966 254.994 36.3817 255.331 36.059 255.792C35.7363 256.254 35.528 256.665 35.5939 256.711C35.6597 256.757 35.9747 256.421 36.2974 255.96Z" fill="#263238"/>
<path d="M39.2914 261.693C39.8869 261.45 40.345 261.192 40.3147 261.118C40.2843 261.043 39.777 261.18 39.1815 261.423C38.5861 261.666 38.1279 261.923 38.1583 261.998C38.1886 262.072 38.6959 261.936 39.2914 261.693Z" fill="#263238"/>
<path d="M42.4262 267.397C42.4262 267.47 41.844 267.834 41.0435 267.98C40.243 268.198 39.5153 268.125 39.5153 268.052C39.5153 267.98 40.1703 267.834 40.9708 267.688C41.6985 267.47 42.3534 267.251 42.4262 267.397Z" fill="#263238"/>
<path d="M33.075 264.753C33.2312 264.253 33.2957 263.829 33.219 263.805C33.1423 263.781 32.9535 264.166 32.7973 264.665C32.641 265.164 32.5766 265.588 32.6533 265.613C32.73 265.637 32.9188 265.252 33.075 264.753Z" fill="#263238"/>
<path d="M34.6636 272.229C34.9678 271.528 35.1546 270.934 35.0809 270.902C35.0072 270.87 34.7008 271.412 34.3967 272.113C34.0925 272.814 33.9057 273.409 33.9794 273.441C34.0532 273.473 34.3595 272.931 34.6636 272.229Z" fill="#263238"/>
<path d="M30.6371 275.628C30.6371 275.701 30.055 275.555 29.4 275.336C28.7451 275.118 28.2357 274.972 28.2357 274.827C28.2357 274.754 28.8178 274.827 29.5456 274.972C30.2005 275.264 30.6371 275.555 30.6371 275.628Z" fill="#263238"/>
<path d="M31.7404 282.804C32.2639 282.43 32.6504 282.074 32.6037 282.008C32.557 281.943 32.0948 282.193 31.5714 282.566C31.0479 282.94 30.6614 283.296 30.7081 283.362C30.7548 283.427 31.217 283.177 31.7404 282.804Z" fill="#263238"/>
<path d="M33.0838 288.824C33.6696 288.682 34.1291 288.503 34.1101 288.425C34.0911 288.346 33.6008 288.399 33.015 288.541C32.4292 288.684 31.9697 288.863 31.9887 288.941C32.0077 289.019 32.498 288.967 33.0838 288.824Z" fill="#263238"/>
<path d="M42.5718 272.714C42.6446 272.787 42.2079 273.078 41.6258 273.297C41.0436 273.516 40.5342 273.516 40.5342 273.443C40.5342 273.37 40.9708 273.224 41.4802 273.006C42.0624 272.787 42.499 272.641 42.5718 272.714Z" fill="#263238"/>
<path d="M43.7662 282.653C43.8004 282.58 43.386 282.313 42.8405 282.056C42.295 281.799 41.8251 281.65 41.7909 281.723C41.7566 281.795 42.1711 282.063 42.7165 282.32C43.262 282.577 43.732 282.726 43.7662 282.653Z" fill="#263238"/>
<path d="M45.8843 289.732C45.9136 289.657 45.361 289.37 44.65 289.091C43.939 288.812 43.3388 288.647 43.3095 288.722C43.2801 288.796 43.8327 289.083 44.5437 289.362C45.2548 289.641 45.8549 289.806 45.8843 289.732Z" fill="#263238"/>
<path d="M34.4941 295.367C34.4213 295.295 35.0035 294.93 35.6584 294.421C36.3134 293.911 36.8228 293.474 36.8956 293.474C36.9683 293.546 36.5317 294.129 35.8768 294.639C35.149 295.149 34.4941 295.44 34.4941 295.367Z" fill="#263238"/>
<path d="M40.0975 291.726C40.0248 291.726 39.8792 291.289 39.6609 290.706C39.4426 290.123 39.2243 289.686 39.2971 289.686C39.3698 289.613 39.7337 290.05 39.952 290.633C40.1703 291.216 40.1703 291.726 40.0975 291.726Z" fill="#263238"/>
<path d="M38.5805 283.116C38.6274 283.051 38.3478 282.769 37.956 282.488C37.5643 282.206 37.2087 282.031 37.1618 282.097C37.1149 282.162 37.3945 282.443 37.7863 282.725C38.178 283.006 38.5336 283.181 38.5805 283.116Z" fill="#263238"/>
<path d="M50.8736 270.537C51.3588 270.179 51.7135 269.836 51.6657 269.771C51.618 269.707 51.186 269.944 50.7008 270.303C50.2156 270.661 49.861 271.004 49.9087 271.068C49.9564 271.133 50.3884 270.895 50.8736 270.537Z" fill="#263238"/>
<path d="M53.7059 275.191C53.7059 275.264 53.1238 275.409 52.4688 275.337C51.8139 275.264 51.2317 275.045 51.3044 274.972C51.3044 274.899 51.8866 274.972 52.5416 275.045C53.1238 275.045 53.7059 275.045 53.7059 275.191Z" fill="#263238"/>
<path d="M45.1916 276.356C45.1916 276.429 44.6822 276.648 44.0272 276.648C43.3723 276.72 42.8629 276.575 42.8629 276.502C42.8629 276.429 43.3723 276.356 44.0272 276.356C44.6822 276.356 45.1916 276.283 45.1916 276.356Z" fill="#263238"/>
<path d="M45.9193 271.257C45.9193 271.33 45.4099 271.33 44.8277 271.112C44.2455 270.82 43.9545 270.456 44.0272 270.383C44.1 270.311 44.4639 270.602 44.9733 270.82C45.4827 271.039 45.9193 271.185 45.9193 271.257Z" fill="#263238"/>
<path d="M54.4589 280.945C54.5017 280.877 54.0401 280.509 53.4278 280.123C52.8156 279.738 52.2845 279.48 52.2417 279.548C52.1989 279.616 52.6605 279.984 53.2727 280.37C53.885 280.756 54.416 281.013 54.4589 280.945Z" fill="#263238"/>
<path d="M75.1737 296.096H29.8366V304.108H75.1737V296.096Z" fill="#FF725E"/>
<path d="M33.1841 302.579L38.7148 326.616H65.7134L71.7534 302.579H33.1841Z" fill="#FF725E"/>
<path d="M52.3233 304.327C64.9433 304.327 75.1738 304.262 75.1738 304.181C75.1738 304.101 64.9433 304.036 52.3233 304.036C39.7033 304.036 29.4728 304.101 29.4728 304.181C29.4728 304.262 39.7033 304.327 52.3233 304.327Z" fill="#263238"/>
<path d="M49.8713 276.505C49.9395 276.462 49.753 276.04 49.4548 275.563C49.1566 275.085 48.8596 274.733 48.7914 274.775C48.7232 274.818 48.9097 275.24 49.2079 275.717C49.5062 276.195 49.8032 276.547 49.8713 276.505Z" fill="#263238"/>
<path d="M50.4172 281.923C50.6325 281.274 50.7453 280.728 50.669 280.702C50.5927 280.677 50.3563 281.182 50.1409 281.831C49.9256 282.48 49.8128 283.027 49.8891 283.053C49.9654 283.078 50.2018 282.572 50.4172 281.923Z" fill="#263238"/>
<path d="M52.1209 289.767C52.1934 289.732 51.9849 289.145 51.6552 288.455C51.3256 287.766 50.9996 287.235 50.9271 287.27C50.8546 287.305 51.063 287.892 51.3927 288.581C51.7223 289.271 52.0483 289.801 52.1209 289.767Z" fill="#263238"/>
<path d="M48.199 294.508C48.5941 294.052 48.8653 293.64 48.8046 293.587C48.7439 293.535 48.3743 293.861 47.9791 294.317C47.584 294.773 47.3128 295.185 47.3735 295.238C47.4342 295.29 47.8038 294.964 48.199 294.508Z" fill="#263238"/>
<path d="M46.3365 285.352C46.3505 285.272 45.9447 285.134 45.4302 285.044C44.9156 284.953 44.4872 284.943 44.4732 285.022C44.4593 285.102 44.865 285.24 45.3796 285.33C45.8941 285.421 46.3226 285.431 46.3365 285.352Z" fill="#263238"/>
<path d="M203.908 240.883H96.496V326.616H203.908V240.883Z" fill="#E0E0E0"/>
<path opacity="0.3" d="M104.355 241.101C117.018 245.618 130.99 246.564 144.526 246.856C147.364 246.929 150.202 246.929 152.895 247.584C155.587 248.313 158.28 249.842 159.662 252.246C161.191 254.868 161.045 258.219 160.172 261.205C159.299 264.119 157.843 266.887 156.751 269.728C154.859 274.754 154.277 280.29 155.078 285.607C155.442 287.865 156.024 290.123 157.334 292.017C158.644 293.911 160.754 295.295 163.01 295.368C167.085 295.44 169.923 291.434 171.888 287.865C180.184 273.297 189.208 256.762 194.52 240.883L104.355 241.101Z" fill="black"/>
<path d="M133.101 326.179C133.028 326.179 132.882 307.168 132.882 283.713C132.882 260.259 132.955 241.247 133.101 241.247C133.173 241.247 133.319 260.259 133.319 283.713C133.319 307.168 133.246 326.179 133.101 326.179Z" fill="#455A64"/>
<path d="M177.128 177.512C176.837 175.399 170.433 168.334 170.433 168.334C170.433 168.334 167.231 155.514 166.285 151.726C166.066 150.779 165.557 149.687 164.902 148.594C162.646 144.807 159.371 141.747 155.587 139.562L146.782 134.609L144.671 129.874L123.422 118.948L117.673 129.146C117.673 129.146 103.701 133.589 101.808 136.794C99.9891 139.999 102.754 182.538 102.754 182.538C102.754 182.538 96.9327 207.085 95.6956 212.184C94.4584 217.283 96.0594 223.328 96.0594 223.328L106.466 210.217C109.668 206.138 116.8 204.317 121.894 204.39L165.484 204.608L163.738 192.371L198.959 199.218C198.959 199.218 205 187.345 205.509 187.127C206.018 186.908 177.128 177.512 177.128 177.512Z" fill="#FF725E"/>
<path d="M122.476 133.152C122.185 132.861 124.95 142.184 128.443 151.726C130.335 156.898 131.281 162.288 131.281 167.824V188.802V202.35L152.167 200.894L149.038 178.167C149.038 178.167 146.491 163.527 145.763 157.918C145.108 152.819 142.852 138.979 142.852 138.979C142.852 138.979 131.281 142.112 122.476 133.152Z" fill="white"/>
<path d="M168.904 186.107C168.904 186.107 168.904 185.889 168.904 185.597C168.904 185.233 169.05 184.796 169.196 184.213C169.487 183.048 170.287 181.445 171.597 180.134C172.907 178.823 174.508 178.095 175.672 177.73C176.254 177.585 176.764 177.512 177.055 177.439C177.419 177.439 177.564 177.439 177.564 177.439C177.564 177.512 176.837 177.585 175.745 177.949C174.653 178.313 173.125 179.114 171.888 180.353C170.651 181.591 169.851 183.121 169.487 184.213C169.05 185.379 168.977 186.107 168.904 186.107Z" fill="#263238"/>
<path d="M169.996 177.803C169.923 177.73 171.306 177.002 173.198 176.856C175.09 176.711 176.546 177.148 176.473 177.221C176.473 177.366 175.017 177.075 173.198 177.221C171.379 177.439 169.996 177.949 169.996 177.803Z" fill="#263238"/>
<path opacity="0.3" d="M100.644 196.669L98.8248 198.708C100.79 200.967 103.264 202.86 106.175 203.589C109.086 204.317 112.069 204.39 115.053 204.39C116.29 204.39 117.454 204.39 118.619 204.026C119.783 203.662 120.875 203.006 122.112 202.933C122.912 202.86 123.713 203.079 124.586 203.297C125.387 203.443 126.26 203.589 127.06 203.37C127.861 203.152 128.516 202.423 128.516 201.549C119.419 198.927 110.032 197.252 100.644 196.669Z" fill="black"/>
<path d="M160.317 199.291L155.223 193.828L144.671 191.133C144.671 191.133 134.993 194.047 134.774 194.047C134.556 194.047 126.333 191.789 126.333 191.789L123.495 202.278L138.267 203.297L155.078 202.642C155.078 202.642 155.951 201.841 155.442 201.258C154.932 200.675 158.28 202.205 158.644 202.205C159.007 202.205 159.808 202.496 160.317 201.913C160.608 201.549 161.118 200.165 160.317 199.291Z" fill="#FFBE9D"/>
<path d="M155.369 201.258C155.369 201.331 154.714 201.112 153.695 200.748C152.676 200.457 151.294 200.02 149.693 199.583C148.092 199.145 146.636 198.854 145.617 198.636C144.599 198.417 143.944 198.271 143.944 198.271C143.944 198.199 144.599 198.271 145.69 198.417C146.782 198.563 148.237 198.854 149.838 199.218C151.439 199.655 152.822 200.092 153.841 200.529C154.787 200.966 155.369 201.258 155.369 201.258Z" fill="#EB996E"/>
<path d="M160.317 199.291C160.317 199.364 159.444 199 157.989 198.563C156.533 198.053 154.568 197.47 152.312 196.887C150.056 196.232 148.092 195.576 146.563 195.504C145.035 195.358 144.162 195.649 144.162 195.576C144.162 195.576 144.38 195.431 144.817 195.358C145.253 195.285 145.836 195.212 146.636 195.212C148.164 195.212 150.202 195.868 152.458 196.523C154.714 197.179 156.679 197.762 158.134 198.344C158.862 198.636 159.444 198.854 159.808 199.073C160.099 199.146 160.317 199.291 160.317 199.291Z" fill="#EB996E"/>
<path d="M101.808 136.794C101.808 136.794 94.1673 142.112 92.348 149.687C90.5287 157.335 82.451 188.438 84.1247 193.1C85.7985 197.762 117.746 202.35 117.746 202.35L121.53 186.326L105.301 181.882C105.301 181.882 105.52 167.023 105.738 160.904C105.956 154.786 101.808 136.794 101.808 136.794Z" fill="#FF725E"/>
<path d="M121.384 188.729L126.551 190.04L123.422 202.132L118.255 201.258L121.384 188.729Z" fill="white"/>
<path d="M84.052 191.497C84.052 191.497 84.052 191.789 84.1248 192.226C84.1975 192.736 84.5614 193.391 85.2164 194.047C86.599 195.358 89.2916 196.45 92.6391 197.033C94.1673 197.543 95.9139 197.907 97.806 198.344C99.698 198.781 101.663 199.218 103.846 199.655C108.067 200.529 112.797 201.476 117.818 202.35L117.6 202.496C117.964 201.039 118.328 199.437 118.764 197.834C119.638 194.192 120.511 190.623 121.384 187.2L121.53 187.418C116.145 185.889 111.269 184.505 107.121 183.266C104.938 182.392 102.754 182.028 100.79 182.174C98.8975 182.247 97.2965 182.756 96.0594 183.266C94.8223 183.776 93.949 184.359 93.2941 184.796C93.003 185.014 92.7847 185.16 92.6391 185.306C92.4936 185.379 92.4208 185.451 92.4208 185.451C92.4208 185.451 92.4936 185.379 92.6391 185.233C92.7847 185.087 93.003 184.942 93.2941 184.723C93.8763 184.286 94.7495 183.703 95.9866 183.121C97.2238 182.538 98.8248 182.028 100.79 181.955C102.754 181.809 104.938 182.101 107.194 183.048C111.342 184.213 116.29 185.597 121.675 187.127L121.821 187.2L121.748 187.345C120.948 190.696 120.074 194.265 119.201 197.98C118.837 199.582 118.401 201.112 118.037 202.642L117.964 202.787H117.818C112.797 201.841 108.14 200.894 103.846 200.02C101.736 199.583 99.698 199.145 97.806 198.708C95.9139 198.271 94.1673 197.834 92.6391 197.324C89.2188 196.669 86.599 195.576 85.1436 194.192C84.4159 193.537 84.1248 192.808 84.052 192.298C83.9792 191.716 84.052 191.497 84.052 191.497Z" fill="#263238"/>
<path d="M106.175 182.975C106.102 183.048 105.593 182.538 104.647 181.882C103.7 181.227 102.245 180.426 100.499 179.988C98.752 179.479 97.151 179.333 95.9866 179.406C94.8223 179.406 94.0945 179.551 94.0945 179.479C94.0945 179.406 94.8223 179.187 95.9866 179.114C97.151 179.042 98.8247 179.114 100.644 179.624C102.391 180.134 103.846 181.008 104.792 181.664C105.738 182.392 106.248 182.975 106.175 182.975Z" fill="#263238"/>
<path d="M108.358 156.898C108.358 156.898 108.358 157.262 108.358 157.845C108.358 158.501 108.285 159.375 108.212 160.467C108.067 162.725 107.703 165.785 107.121 169.135C106.539 172.486 105.811 175.545 105.083 177.658C104.938 178.167 104.719 178.677 104.574 179.114C104.428 179.479 104.21 179.843 104.137 180.134C103.846 180.717 103.628 181.008 103.628 181.008C103.628 181.008 103.7 180.644 103.992 180.134C104.137 179.843 104.21 179.479 104.428 179.042C104.574 178.604 104.719 178.167 104.865 177.585C105.52 175.472 106.175 172.413 106.757 169.062C107.339 165.712 107.703 162.652 107.994 160.394C108.14 159.375 108.212 158.428 108.285 157.772C108.285 157.262 108.285 156.898 108.358 156.898Z" fill="#263238"/>
<path d="M126.842 148.667C126.842 148.667 126.769 148.449 126.624 148.157C126.478 147.793 126.114 147.356 125.532 146.992C124.95 146.628 124.077 146.336 123.131 146.628C122.257 146.919 121.384 147.793 121.166 148.886L121.093 149.396L120.875 148.886C120.074 147.21 119.347 145.316 118.619 143.277C117.382 139.562 116.872 135.92 116.945 133.371C116.945 132.715 117.018 132.132 117.091 131.622C117.163 131.113 117.236 130.676 117.309 130.311C117.527 129.583 117.6 129.219 117.6 129.219C117.673 129.219 117.163 130.748 117.163 133.371C117.091 135.92 117.673 139.489 118.91 143.204C119.565 145.244 120.365 147.137 121.093 148.813L120.802 148.886C121.093 147.575 122.039 146.7 123.058 146.409C124.077 146.118 125.023 146.409 125.605 146.846C126.187 147.283 126.551 147.793 126.697 148.157C126.769 148.376 126.842 148.521 126.842 148.594C126.842 148.594 126.915 148.667 126.842 148.667Z" fill="#263238"/>
<path d="M144.599 150.27C144.599 150.27 144.526 149.978 144.453 149.396C144.38 148.813 144.162 148.012 144.307 146.919C144.453 145.899 144.962 144.661 146.054 143.714C146.636 143.277 147.364 142.986 148.164 142.986C148.965 142.986 149.838 143.277 150.42 144.005L150.129 144.224C149.911 143.641 149.693 143.058 149.474 142.476C148.092 139.052 146.927 135.92 146.054 133.662C145.617 132.569 145.326 131.695 145.035 130.967C144.817 130.311 144.671 129.947 144.744 129.947C144.744 129.947 144.962 130.311 145.181 130.894C145.472 131.55 145.836 132.497 146.272 133.516C147.218 135.774 148.455 138.834 149.765 142.257C149.984 142.84 150.202 143.423 150.42 144.005L150.857 145.098L150.056 144.151C149.547 143.568 148.819 143.277 148.092 143.277C147.364 143.277 146.709 143.495 146.2 143.932C145.181 144.734 144.671 145.972 144.453 146.919C144.307 147.939 144.453 148.74 144.526 149.323C144.671 149.978 144.671 150.27 144.599 150.27Z" fill="#263238"/>
<path d="M165.106 201.589C165.225 201.573 163.763 190.483 161.84 176.82C159.917 163.156 158.261 152.094 158.142 152.111C158.022 152.127 159.484 163.217 161.407 176.881C163.331 190.544 164.986 201.606 165.106 201.589Z" fill="#263238"/>
<path opacity="0.3" d="M118.837 143.35C118.91 146.191 119.565 148.958 120.656 151.581C121.457 150.634 122.33 149.541 123.567 149.25C125.096 148.886 126.624 149.833 127.643 150.925C127.424 149.833 127.06 148.667 126.333 147.793C125.605 146.919 124.586 146.263 123.422 146.263C122.33 146.263 121.166 147.137 121.02 148.23L118.91 143.35" fill="black"/>
<path d="M106.539 151.362C106.466 151.362 106.466 150.634 106.248 149.395C106.029 148.23 105.52 146.628 104.501 145.098C103.992 144.37 103.409 143.641 102.827 143.131C102.245 142.621 101.663 142.111 101.153 141.82C100.135 141.165 99.4069 140.946 99.4069 140.873C99.4069 140.873 99.6252 140.873 99.9163 141.019C100.062 141.092 100.28 141.165 100.499 141.237C100.717 141.31 101.008 141.456 101.226 141.602C101.808 141.893 102.391 142.33 102.973 142.84C103.555 143.423 104.21 144.078 104.719 144.879C105.811 146.482 106.32 148.157 106.466 149.395C106.539 149.978 106.539 150.488 106.539 150.852C106.611 151.144 106.611 151.362 106.539 151.362Z" fill="#263238"/>
<path d="M148.819 99.3541C147.946 91.2689 141.033 85.2231 132.882 85.4417H132.082C123.422 86.1701 119.128 93.964 120.147 102.632L122.548 133.152L123.567 134.39C128.225 140.145 136.157 142.039 142.925 138.979L142.27 129.146C142.27 129.146 150.639 127.616 150.493 119.24C150.348 115.233 149.62 106.93 148.819 99.3541Z" fill="#FFBE9D"/>
<path d="M142.27 129.146C142.27 129.146 136.957 129.583 131.208 126.232C131.208 126.232 133.974 132.205 142.27 131.258V129.146Z" fill="#EB996E"/>
<path d="M146.127 106.274C146.2 106.93 145.69 107.439 145.035 107.512C144.38 107.585 143.798 107.075 143.798 106.493C143.725 105.837 144.235 105.327 144.89 105.254C145.545 105.181 146.127 105.691 146.127 106.274Z" fill="#263238"/>
<path d="M146.709 101.758C146.636 101.904 145.69 101.976 144.526 102.632C143.361 103.215 142.706 104.016 142.561 104.016C142.488 104.016 142.561 103.797 142.852 103.433C143.143 103.069 143.652 102.632 144.38 102.268C145.108 101.904 145.763 101.685 146.127 101.685C146.563 101.612 146.709 101.685 146.709 101.758Z" fill="#263238"/>
<path d="M134.047 106.93C134.119 107.585 133.61 108.095 132.955 108.168C132.3 108.241 131.718 107.731 131.718 107.148C131.645 106.493 132.154 105.983 132.809 105.91C133.464 105.837 134.047 106.274 134.047 106.93Z" fill="#263238"/>
<path d="M133.901 103.506C133.755 103.579 132.955 102.996 131.718 102.705C130.481 102.414 129.462 102.486 129.316 102.341C129.244 102.268 129.462 102.195 129.899 102.195C130.335 102.122 131.063 102.195 131.791 102.414C132.591 102.632 133.173 102.923 133.537 103.142C133.901 103.36 133.974 103.506 133.901 103.506Z" fill="#263238"/>
<path d="M138.922 113.485C138.922 113.412 139.723 113.267 141.033 113.048C141.324 112.975 141.688 112.903 141.688 112.684C141.76 112.465 141.615 112.101 141.469 111.737C141.105 110.936 140.814 110.135 140.451 109.261C138.995 105.764 137.976 102.851 138.122 102.778C138.267 102.705 139.577 105.546 140.96 109.042C141.324 109.916 141.615 110.717 141.979 111.519C142.124 111.883 142.343 112.32 142.197 112.83C142.124 113.048 141.906 113.267 141.688 113.34C141.469 113.412 141.324 113.412 141.105 113.412C139.723 113.558 138.922 113.558 138.922 113.485Z" fill="#263238"/>
<path d="M133.901 98.5529C133.755 98.9171 132.518 98.6986 130.99 98.7715C129.462 98.8443 128.225 99.2085 128.079 98.9171C128.006 98.7715 128.225 98.4801 128.734 98.1159C129.244 97.8245 130.044 97.5332 130.917 97.4603C131.863 97.3875 132.664 97.606 133.173 97.8245C133.683 98.1159 133.974 98.4073 133.901 98.5529Z" fill="#263238"/>
<path d="M146.636 98.8443C146.345 99.1357 145.253 98.8443 143.944 98.8443C142.634 98.7715 141.469 99.0629 141.251 98.7715C141.105 98.6258 141.324 98.3345 141.833 98.0431C142.343 97.7517 143.143 97.5332 144.016 97.5332C144.962 97.5332 145.69 97.8246 146.199 98.1159C146.636 98.4073 146.782 98.6987 146.636 98.8443Z" fill="#263238"/>
<path d="M151.221 91.9973C151.075 91.2689 150.348 90.6133 149.547 90.6862C149.984 90.5405 150.348 90.3948 150.711 90.1034C151.003 89.8121 151.221 89.375 151.075 88.938C150.857 88.2824 150.056 88.1367 149.402 87.9911C148.528 87.7725 147.801 87.2627 147.218 86.5343C146.418 85.5145 146.127 84.2034 145.399 83.1108C144.526 81.7268 142.998 80.7799 141.324 80.5613C139.65 80.4157 137.976 80.9984 136.812 82.1638C135.502 80.8527 133.61 80.1971 131.791 80.4885C129.971 80.7799 128.298 81.9453 127.497 83.6206C125.241 82.6737 122.549 83.1108 120.656 84.5676C118.764 86.0972 117.818 88.6466 118.255 90.9775L123.495 94.1825C123.567 92.58 125.387 91.2689 126.915 91.7059C128.516 92.143 129.462 93.964 131.136 94.1096C132.373 94.1825 133.464 93.2356 134.702 92.8714C136.23 92.4343 137.758 93.0899 139.141 93.8183C140.523 94.5467 141.76 95.4936 143.289 95.9307C145.035 96.3677 146.927 96.0035 148.601 95.2751C149.329 94.9837 150.056 94.6195 150.566 94.0368C151.075 93.5269 151.366 92.7257 151.221 91.9973Z" fill="#263238"/>
<path d="M124.368 91.706L148.237 91.5603C147.437 89.9579 146.054 88.6467 144.599 87.627C141.469 85.3689 137.612 83.985 133.683 84.0578C129.826 84.1306 122.039 89.0838 119.274 91.8517C117.091 94.0369 117.163 95.9308 117.163 95.9308C116.872 99.0629 118.692 102.486 119.492 105.546C119.856 107.075 120.729 111.81 120.729 111.81C122.039 111.737 122.476 110.717 122.257 109.406L121.894 104.307C121.894 104.307 126.26 101.03 124.004 95.2752C123.64 94.6925 122.84 92.5801 124.368 91.706Z" fill="#263238"/>
<path d="M121.457 103.87C120.22 99.6456 119.128 95.1295 120.438 90.9048C120.22 90.9048 120.001 90.9048 119.71 90.9048L119.419 91.1233C118.109 90.6863 116.508 91.1961 115.635 92.2887C114.835 93.4542 114.835 95.1295 115.635 96.2221C114.252 96.1493 112.87 97.3147 112.724 98.7715C112.651 99.7185 113.088 100.665 113.525 101.539C113.961 102.414 114.398 103.288 114.398 104.307C114.398 105.254 113.743 106.347 112.797 106.493C113.234 107.512 114.471 108.095 115.49 107.804C115.126 108.605 114.544 109.333 113.816 109.843C115.344 110.936 117.527 110.572 119.201 109.698C120.22 109.188 121.166 108.532 121.602 107.44C122.185 106.347 121.821 105.109 121.457 103.87Z" fill="#263238"/>
<path d="M121.093 108.823C120.948 108.751 115.271 107.294 115.635 112.975C115.999 118.73 121.603 117.2 121.603 117.054C121.603 116.909 121.093 108.823 121.093 108.823Z" fill="#FFBE9D"/>
<path d="M120.293 114.942C120.293 114.942 120.22 115.015 120.002 115.088C119.856 115.161 119.565 115.233 119.274 115.161C118.692 114.942 118.109 114.068 118.037 113.048C117.964 112.538 118.037 112.028 118.255 111.591C118.401 111.154 118.692 110.863 118.983 110.79C119.274 110.717 119.492 110.863 119.565 111.009C119.638 111.154 119.638 111.3 119.638 111.3C119.638 111.3 119.783 111.227 119.71 110.936C119.71 110.79 119.638 110.717 119.492 110.572C119.347 110.499 119.128 110.426 118.91 110.426C118.473 110.499 118.109 110.936 117.891 111.373C117.673 111.81 117.6 112.393 117.673 112.975C117.746 114.141 118.401 115.161 119.274 115.379C119.71 115.452 120.002 115.306 120.147 115.161C120.293 115.088 120.293 114.942 120.293 114.942Z" fill="#EB996E"/>
<path d="M115.126 104.089C115.126 104.089 114.98 103.87 115.053 103.433C115.126 102.996 115.417 102.341 116.145 101.976C116.872 101.539 117.818 101.467 118.764 101.321C119.71 101.248 120.802 100.957 121.384 100.01C121.966 99.0628 121.966 97.9702 121.821 97.0233C121.675 96.0764 121.457 95.2023 121.311 94.4739C121.02 92.9442 121.311 91.9973 121.384 91.9973C121.457 91.9973 121.311 92.9442 121.675 94.401C121.821 95.1294 122.112 96.0035 122.257 97.0233C122.403 98.0431 122.403 99.2085 121.748 100.301C121.457 100.811 120.948 101.248 120.365 101.467C119.856 101.685 119.274 101.758 118.764 101.831C117.746 101.904 116.872 101.976 116.217 102.341C115.562 102.705 115.271 103.215 115.199 103.579C115.126 103.87 115.199 104.089 115.126 104.089Z" fill="#455A64"/>
<path d="M113.816 101.612C113.816 101.612 113.67 101.467 113.67 101.102C113.598 100.738 113.67 100.228 113.961 99.6456C114.107 99.3542 114.325 99.0629 114.616 98.8443C114.907 98.6258 115.344 98.4073 115.708 98.3345C116.072 98.1888 116.508 98.1159 116.8 97.8974C117.091 97.6789 117.236 97.3147 117.236 96.8777C117.236 96.4406 117.163 96.0036 117.163 95.4937C117.163 95.0567 117.236 94.6196 117.309 94.1826C117.454 93.3813 117.818 92.6529 118.109 92.143C118.473 91.5603 118.983 91.3418 119.347 91.3418C119.71 91.3418 119.856 91.4875 119.856 91.5603C119.856 91.5603 119.638 91.4875 119.347 91.5603C119.055 91.6332 118.619 91.8517 118.328 92.3616C118.037 92.8714 117.818 93.527 117.673 94.3282C117.6 94.6925 117.527 95.1295 117.527 95.5665C117.527 96.0036 117.6 96.4406 117.6 96.9505C117.6 97.4604 117.454 97.9703 117.018 98.3345C116.581 98.6258 116.145 98.6987 115.781 98.8443C114.98 98.99 114.471 99.4271 114.18 99.937C113.525 100.811 113.889 101.612 113.816 101.612Z" fill="#455A64"/>
<path d="M147.218 86.5343C147.218 86.5343 146.782 86.8256 146.054 86.4614C145.69 86.3157 145.326 85.9515 144.962 85.5145C144.599 85.0775 144.235 84.6404 143.652 84.3491C142.561 83.6935 140.742 83.5478 139.359 84.6404C138.631 85.1503 138.049 85.8787 137.176 86.4614C136.739 86.7528 136.302 87.0441 135.72 87.117C135.211 87.1898 134.629 87.117 134.119 86.9713C133.101 86.6071 132.3 85.9515 131.354 85.6602C130.481 85.296 129.535 85.1503 128.661 85.1503C126.915 85.1503 125.387 85.8059 124.368 86.6071C123.276 87.4084 122.694 88.3553 122.33 89.0108C121.966 89.6664 121.821 90.1034 121.821 90.0306C121.821 90.0306 121.821 89.9578 121.894 89.7392C121.966 89.5207 122.039 89.2294 122.185 88.938C122.476 88.2096 123.131 87.2627 124.222 86.3886C125.314 85.5145 126.915 84.7861 128.734 84.7133C129.68 84.7133 130.626 84.8589 131.572 85.2231C132.518 85.5873 133.392 86.1701 134.265 86.5343C134.702 86.68 135.211 86.7528 135.648 86.6799C136.084 86.6071 136.521 86.3886 136.885 86.0972C137.685 85.5145 138.267 84.8589 139.068 84.2762C139.796 83.6935 140.742 83.475 141.542 83.475C142.343 83.475 143.143 83.6935 143.725 84.0577C144.307 84.4219 144.744 84.9318 145.108 85.3688C145.472 85.8059 145.763 86.0972 146.054 86.3157C146.782 86.6799 147.218 86.4614 147.218 86.5343Z" fill="#455A64"/>
<path d="M135.72 115.015C135.866 114.942 136.084 116.18 137.321 116.909C138.486 117.637 139.796 117.273 139.796 117.419C139.796 117.491 139.577 117.71 138.995 117.783C138.486 117.929 137.612 117.856 136.885 117.419C136.157 116.982 135.793 116.326 135.648 115.816C135.575 115.379 135.648 115.015 135.72 115.015Z" fill="#263238"/>
<path d="M211.04 228.791C208.856 226.898 205.873 225.951 203.035 226.169L198.086 241.83C201.725 241.976 205.291 243.869 208.784 242.922C211.549 242.121 213.732 239.499 214.096 236.658C214.46 233.745 213.223 230.758 211.04 228.791Z" fill="#FF725E"/>
<path d="M203.107 225.805C203.107 225.659 203.617 225.587 204.563 225.587C205.509 225.587 206.892 225.732 208.565 226.315C210.239 226.898 212.058 228.209 213.441 230.103C214.169 231.05 214.751 232.215 215.042 233.526C215.406 234.837 215.479 236.221 215.188 237.605C214.897 238.989 214.314 240.3 213.368 241.32C212.495 242.34 211.331 243.068 210.166 243.505C207.838 244.379 205.654 244.234 203.981 243.869C202.307 243.505 200.997 243.068 200.124 242.704C199.25 242.34 198.814 242.048 198.814 241.903C198.887 241.757 199.396 241.83 200.269 241.976C201.215 242.121 202.525 242.413 204.126 242.558C205.727 242.704 207.619 242.631 209.439 241.903C210.312 241.539 211.185 240.956 211.84 240.155C212.495 239.353 213.004 238.334 213.223 237.241C213.659 234.983 213.004 232.798 211.913 231.122C210.748 229.447 209.293 228.209 207.91 227.553C206.528 226.825 205.218 226.533 204.345 226.315C203.617 226.096 203.107 225.951 203.107 225.805Z" fill="#F5F5F5"/>
<path d="M157.552 284.442L146.854 314.452L184.041 328C185.133 324.358 168.468 310.227 168.468 310.227L176.109 291.289L157.552 284.442Z" fill="#FF725E"/>
<path opacity="0.6" d="M157.552 304.4C156.751 304.327 155.951 304.982 155.878 305.784C155.805 306.585 156.388 307.386 157.188 307.459C157.989 307.532 158.935 306.803 158.935 306.002C158.935 305.201 158.134 304.327 157.334 304.4" fill="white"/>
<path d="M146.854 314.452L147.946 311.392L183.313 325.523C183.313 325.523 184.696 326.835 184.114 327.927L146.854 314.452Z" fill="white"/>
<path d="M169.123 310.227C169.05 310.373 168.104 310.154 167.012 310.446C165.921 310.664 165.12 311.32 165.048 311.174C164.902 311.101 165.557 310.081 166.867 309.79C168.25 309.499 169.268 310.081 169.123 310.227Z" fill="#263238"/>
<path d="M172.47 313.286C172.47 313.505 171.524 313.505 170.651 314.015C169.705 314.525 169.268 315.326 169.123 315.253C168.977 315.253 169.196 314.087 170.36 313.432C171.451 312.776 172.543 313.141 172.47 313.286Z" fill="#263238"/>
<path d="M172.98 318.749C172.834 318.749 172.907 317.73 173.707 316.928C174.508 316.127 175.527 315.981 175.527 316.2C175.6 316.418 174.799 316.71 174.144 317.438C173.489 318.094 173.198 318.822 172.98 318.749Z" fill="#263238"/>
<path d="M170.433 305.711C170.287 305.857 169.559 305.274 168.468 304.982C167.449 304.691 166.503 304.691 166.43 304.545C166.357 304.4 167.376 303.963 168.613 304.327C169.923 304.764 170.505 305.638 170.433 305.711Z" fill="#263238"/>
<path d="M171.088 300.976C171.088 301.049 170.287 300.903 169.196 300.321C168.686 300.029 168.031 299.592 167.449 299.009C167.158 298.718 166.867 298.427 166.576 298.063C166.43 297.917 166.285 297.698 166.139 297.407C165.994 297.116 166.066 296.606 166.43 296.387C166.721 296.169 167.085 296.169 167.376 296.242C167.667 296.314 167.886 296.46 168.031 296.606C168.395 296.824 168.759 297.116 169.05 297.407C169.632 297.99 170.069 298.572 170.36 299.155C170.942 300.248 171.015 301.049 170.942 301.049C170.869 301.049 170.651 300.393 169.996 299.374C169.705 298.864 169.268 298.354 168.686 297.844C168.395 297.626 168.104 297.334 167.74 297.116C167.376 296.897 167.085 296.751 166.867 296.897C166.794 296.97 166.794 296.97 166.867 297.116C166.94 297.261 167.012 297.407 167.158 297.553C167.376 297.917 167.667 298.208 167.958 298.5C168.468 299.082 169.05 299.519 169.487 299.811C170.433 300.612 171.16 300.903 171.088 300.976Z" fill="#263238"/>
<path d="M170.797 301.195C170.724 301.195 170.578 300.394 170.942 299.228C171.088 298.645 171.451 297.917 171.961 297.261C172.179 296.897 172.47 296.606 172.834 296.315C173.198 296.023 173.635 295.659 174.362 295.805C174.726 295.95 174.945 296.315 174.945 296.606C174.945 296.897 174.945 297.116 174.872 297.334C174.799 297.771 174.653 298.208 174.435 298.573C173.999 299.301 173.489 299.884 172.907 300.175C171.815 300.903 171.015 300.831 171.015 300.758C171.015 300.612 171.743 300.539 172.616 299.811C173.052 299.447 173.489 298.937 173.853 298.281C173.999 297.917 174.144 297.553 174.217 297.189C174.29 296.752 174.29 296.387 174.071 296.387C173.853 296.315 173.489 296.533 173.198 296.752C172.907 297.043 172.616 297.334 172.398 297.626C171.888 298.208 171.597 298.791 171.379 299.374C170.942 300.394 170.869 301.195 170.797 301.195Z" fill="#263238"/>
<path d="M121.457 204.317C115.781 204.463 110.468 205.264 106.539 209.343C101.372 214.806 94.9678 222.527 94.604 227.917C94.0946 235.93 98.8975 238.334 102.463 240.3C103.992 241.174 105.811 241.539 107.557 241.466L172.834 240.956L174.872 229.884L132.664 219.468L134.41 203.589L121.457 204.317Z" fill="#5C6C74"/>
<path d="M134.483 203.589L155.005 202.642C155.005 202.642 190.445 204.609 198.013 211.528C205.582 218.448 204.636 226.388 202.089 233.963C199.542 241.539 177.346 289.977 177.346 289.977C177.346 289.977 179.165 293.037 178.147 296.096C176.546 300.831 172.325 301.632 172.325 301.632L152.603 294.348C152.603 294.348 149.911 293.401 151.803 290.851C153.695 288.302 154.932 287.865 154.932 287.865V282.839C154.932 282.839 161.846 270.238 162.501 268.49C163.155 266.741 169.778 241.102 169.778 241.102L174.217 233.526C174.217 233.526 163.519 228.5 154.277 224.858L132.664 219.541L134.483 203.589Z" fill="#566871"/>
<path d="M167.813 293.474C167.74 293.547 167.158 293.037 166.066 292.308C164.975 291.58 163.447 290.779 161.627 290.05C159.808 289.395 158.061 288.958 156.824 288.812C155.587 288.593 154.787 288.593 154.787 288.521C154.787 288.448 155.587 288.448 156.897 288.521C158.207 288.666 159.953 288.958 161.773 289.686C163.592 290.414 165.193 291.288 166.212 292.09C167.231 292.891 167.813 293.474 167.813 293.474Z" fill="#455A64"/>
<path d="M177.637 290.05C177.564 290.05 177.128 289.613 176.473 288.812C175.818 288.011 174.945 286.918 173.999 285.68C173.052 284.442 172.252 283.203 171.743 282.402C171.16 281.528 170.869 280.945 170.942 280.945C171.015 280.945 171.379 281.455 171.961 282.256C172.616 283.203 173.416 284.296 174.29 285.461C175.163 286.627 175.963 287.719 176.691 288.666C177.346 289.467 177.71 289.977 177.637 290.05Z" fill="#455A64"/>
<path d="M184.914 226.606C184.914 226.679 184.187 226.825 183.022 227.189C181.858 227.553 180.33 228.209 178.801 229.156C177.273 230.103 175.963 231.268 175.163 232.069C174.29 232.943 173.853 233.526 173.78 233.453C173.78 233.453 174.144 232.798 174.945 231.851C175.745 230.904 176.982 229.738 178.583 228.791C180.184 227.772 181.785 227.189 182.95 226.898C184.114 226.606 184.914 226.533 184.914 226.606Z" fill="#455A64"/>
<path d="M164.684 260.841C164.684 260.841 164.684 260.696 164.756 260.404C164.829 260.113 164.902 259.676 165.048 259.166C165.339 258.073 165.775 256.617 166.212 254.723C167.231 250.935 168.686 245.836 170.287 240.227C171.088 237.387 171.815 234.692 172.616 232.288C173.562 229.884 175.017 227.99 176.327 226.606C177.71 225.222 178.947 224.275 179.82 223.693C180.257 223.401 180.621 223.183 180.912 223.037C181.13 222.891 181.276 222.819 181.276 222.819C181.276 222.819 180.766 223.183 179.893 223.766C179.02 224.421 177.783 225.368 176.473 226.752C175.163 228.136 173.78 230.03 172.907 232.361C172.179 234.764 171.451 237.532 170.651 240.3C169.05 245.909 167.595 251.008 166.503 254.795C165.994 256.616 165.557 258.073 165.193 259.166C165.048 259.676 164.902 260.04 164.829 260.331C164.756 260.768 164.684 260.841 164.684 260.841Z" fill="#455A64"/>
<path d="M146.545 223.887C146.665 223.876 146.414 220.002 145.984 215.234C145.554 210.466 145.108 206.609 144.988 206.62C144.868 206.631 145.119 210.505 145.549 215.273C145.979 220.041 146.425 223.898 146.545 223.887Z" fill="#455A64"/>
<path d="M112.36 234.109C112.288 234.109 111.997 233.526 111.342 232.579C110.687 231.632 109.668 230.467 108.358 229.447C107.048 228.427 105.665 227.699 104.574 227.335C103.555 226.898 102.827 226.752 102.9 226.679C102.9 226.606 103.628 226.679 104.719 227.043C105.811 227.407 107.266 228.063 108.649 229.156C110.032 230.248 111.051 231.487 111.633 232.433C112.142 233.453 112.433 234.109 112.36 234.109Z" fill="#455A64"/>
<path d="M124.95 220.196C124.877 220.269 124.077 219.686 122.549 219.031C121.02 218.375 118.837 217.574 116.363 217.21C113.889 216.846 111.56 216.991 109.959 217.21C108.285 217.428 107.339 217.72 107.339 217.647C107.339 217.647 107.557 217.501 107.994 217.356C108.431 217.21 109.086 217.064 109.886 216.919C111.56 216.627 113.889 216.481 116.436 216.846C118.983 217.21 121.166 218.011 122.694 218.812C123.422 219.177 124.004 219.541 124.441 219.832C124.732 219.978 124.95 220.196 124.95 220.196Z" fill="#455A64"/>
<path d="M174.071 229.884C174.071 229.884 173.926 229.884 173.562 229.811C173.198 229.738 172.689 229.593 172.106 229.52C170.797 229.229 168.977 228.791 166.794 228.354C162.282 227.335 156.097 226.024 149.183 224.64C142.27 223.256 136.011 222.163 131.5 221.362C129.244 220.998 127.424 220.633 126.114 220.415C125.532 220.342 125.023 220.196 124.659 220.123C124.295 220.051 124.15 220.051 124.15 219.978C124.15 219.905 124.295 219.978 124.659 220.051C125.023 220.123 125.532 220.196 126.114 220.269C127.424 220.415 129.244 220.706 131.5 221.07C136.084 221.799 142.343 222.891 149.183 224.203C156.097 225.586 162.282 226.97 166.794 228.063C169.05 228.573 170.869 229.083 172.106 229.374C172.689 229.52 173.198 229.666 173.562 229.738C173.926 229.884 174.144 229.884 174.071 229.884Z" fill="#455A64"/>
<path d="M132.737 221.362C132.664 221.362 132.518 220.488 131.863 219.249C131.499 218.667 130.99 217.938 130.335 217.283C129.68 216.627 128.88 215.972 128.079 215.316C126.405 214.005 124.659 213.058 123.422 212.402C122.185 211.747 121.384 211.31 121.457 211.237C121.457 211.164 122.257 211.528 123.567 212.111C124.877 212.694 126.624 213.641 128.37 214.952C129.244 215.607 130.044 216.263 130.699 216.991C131.354 217.647 131.863 218.375 132.154 219.031C132.446 219.687 132.664 220.269 132.737 220.633C132.737 221.143 132.737 221.362 132.737 221.362Z" fill="#455A64"/>
<path d="M205.436 231.268C205.509 231.341 204.417 232.434 203.544 234.109C202.671 235.784 202.452 237.314 202.307 237.314C202.234 237.314 202.307 235.711 203.18 233.963C204.126 232.215 205.363 231.195 205.436 231.268Z" fill="#263238"/>
<path opacity="0.3" d="M158.716 156.607L163.374 189.531L163.592 190.04C164.756 178.75 163.01 167.169 158.716 156.607Z" fill="black"/>
<path d="M183.896 175.545L168.686 202.132L131.281 202.933L131.208 204.608L167.449 204.317L168.613 204.244L206.892 204.317L214.605 190.987L224.502 176.783C225.157 175.837 224.502 174.598 223.338 174.598L185.133 174.744C184.551 174.817 184.114 175.108 183.896 175.545Z" fill="#E0E0E0"/>
<path d="M214.533 191.06C214.533 191.06 216.498 192.881 216.206 194.411C215.915 195.94 215.988 197.106 214.533 197.179C214.533 197.179 214.605 199.145 212.568 199.437C212.568 199.437 213.004 201.841 210.239 202.278C210.239 202.278 209.366 204.827 207.619 204.244C205.873 203.589 204.708 202.933 204.708 202.933L204.199 201.986C204.199 201.986 201.579 201.039 202.234 199.51C202.598 198.636 203.981 198.417 203.981 198.417C203.981 198.417 203.399 197.106 204.126 196.159C204.781 195.358 206.746 196.013 206.746 196.013C206.746 196.013 206.6 194.921 207.401 194.047C208.056 193.245 211.331 195.431 211.331 195.431L213.077 193.318L214.533 191.06Z" fill="#FFBE9D"/>
<path d="M210.252 202.282C210.315 202.18 208.955 201.219 207.214 200.136C205.473 199.053 204.01 198.258 203.947 198.361C203.883 198.463 205.243 199.424 206.984 200.507C208.725 201.59 210.188 202.385 210.252 202.282Z" fill="#EB996E"/>
<path d="M212.583 199.507C212.645 199.404 211.384 198.529 209.767 197.552C208.149 196.576 206.787 195.869 206.725 195.972C206.662 196.075 207.923 196.951 209.541 197.927C211.159 198.903 212.521 199.61 212.583 199.507Z" fill="#EB996E"/>
<path d="M209.366 194.192C209.439 194.119 210.603 194.702 212.058 195.576C213.441 196.45 214.605 197.179 214.533 197.252C214.46 197.397 213.223 196.815 211.84 195.94C210.457 195.066 209.366 194.265 209.366 194.192Z" fill="#EB996E"/>
<path d="M224.43 175.691C224.43 175.691 224.357 175.691 224.211 175.691C224.066 175.691 223.92 175.691 223.702 175.691C223.193 175.691 222.538 175.691 221.664 175.691C219.845 175.691 217.225 175.691 214.096 175.764C207.619 175.764 198.814 175.764 188.99 175.837C188.407 175.837 187.753 175.837 187.17 175.837C186.588 175.764 186.079 176.055 185.788 176.492C185.205 177.512 184.623 178.532 184.114 179.551C183.022 181.591 181.931 183.558 180.912 185.379C178.874 189.094 176.982 192.444 175.454 195.212C173.926 197.98 172.616 200.238 171.743 201.841C171.306 202.569 170.942 203.225 170.724 203.662C170.578 203.88 170.505 204.026 170.433 204.099C170.36 204.171 170.36 204.244 170.36 204.244C170.36 204.244 170.36 204.171 170.433 204.099C170.505 203.953 170.578 203.807 170.651 203.589C170.869 203.152 171.233 202.569 171.597 201.768C172.47 200.165 173.707 197.907 175.236 195.066C176.764 192.226 178.583 188.875 180.621 185.16C181.64 183.266 182.731 181.372 183.823 179.333C184.405 178.313 184.987 177.293 185.569 176.201C185.933 175.618 186.661 175.327 187.243 175.4C187.825 175.4 188.48 175.4 189.062 175.4C198.814 175.4 207.692 175.472 214.169 175.472C217.371 175.472 219.918 175.545 221.737 175.545C222.61 175.545 223.265 175.545 223.775 175.545C223.993 175.545 224.139 175.545 224.284 175.545C224.357 175.691 224.43 175.691 224.43 175.691Z" fill="#263238"/>
<path d="M199.853 191.215C200.526 190.468 200.539 189.382 199.883 188.79C199.226 188.197 198.148 188.322 197.475 189.069C196.802 189.815 196.789 190.901 197.445 191.494C198.102 192.087 199.18 191.962 199.853 191.215Z" fill="white"/>
<path opacity="0.3" d="M91.2564 178.823C90.9653 178.969 90.5287 179.187 90.5287 179.551C90.5287 179.843 90.8198 180.061 91.0381 180.134C91.3292 180.207 92.348 179.77 92.5663 179.697C96.496 178.823 99.7708 179.697 103.482 181.154L103.628 181.008C102.245 177.803 95.4772 177.075 91.2564 178.823Z" fill="black"/>
<path d="M294 326.616C294 326.689 228.141 326.835 147 326.835C65.7861 326.835 0 326.762 0 326.616C0 326.47 65.7861 326.397 147 326.397C228.214 326.47 294 326.543 294 326.616Z" fill="#263238"/>
<path d="M70.8802 94.474C71.0257 94.6196 95.1861 86.3159 95.1861 86.3159L85.8713 64.9736L64.3307 73.2046L76.1926 79.9787L70.8802 94.474Z" fill="#455A64"/>
<path d="M82.2327 71.3835V42.3202C82.2327 42.3202 115.562 36.2016 139.577 36.5658C163.592 36.93 188.335 40.8634 188.335 40.8634V68.7612C188.335 68.7612 113.088 62.0599 82.2327 71.3835Z" fill="#455A64"/>
<path d="M82.0872 71.3835L95.1862 86.3886V68.7612C95.1862 68.7612 84.1976 70.0724 82.0872 71.3835Z" fill="#263238"/>
<path d="M82.3447 56.8442C82.3926 48.7985 82.3337 42.2756 82.2131 42.2748C82.0925 42.2741 81.9559 48.7959 81.908 56.8416C81.8601 64.8873 81.919 71.4103 82.0395 71.411C82.1601 71.4117 82.2967 64.8899 82.3447 56.8442Z" fill="#263238"/>
<path d="M199.614 92.2159C199.469 92.3616 175.308 84.0578 175.308 84.0578L184.623 62.7156L206.164 70.9465L194.302 77.7207L199.614 92.2159Z" fill="#455A64"/>
<path d="M188.48 69.1983L175.381 84.2034V67.8143C179.748 67.96 184.114 68.3971 188.48 69.1983Z" fill="#263238"/>
<path d="M188.478 69.1262C188.599 69.1256 188.666 62.7985 188.628 54.9941C188.59 47.1898 188.462 40.8636 188.341 40.8642C188.221 40.8648 188.153 47.1919 188.191 54.9963C188.229 62.8006 188.358 69.1268 188.478 69.1262Z" fill="#263238"/>
<path d="M203.253 43.4857L205.145 45.7437L210.53 43.4857L209.002 41.1548L203.253 43.4857Z" fill="#455A64"/>
<path d="M198.013 35.6189C199.541 35.6189 200.779 34.3796 200.779 32.8509C200.779 31.3223 199.541 30.083 198.013 30.083C196.486 30.083 195.248 31.3223 195.248 32.8509C195.248 34.3796 196.486 35.6189 198.013 35.6189Z" fill="#FF725E"/>
<path d="M136.812 75.9725C137.575 75.9725 138.195 75.3529 138.195 74.5886C138.195 73.8242 137.575 73.2046 136.812 73.2046C136.048 73.2046 135.429 73.8242 135.429 74.5886C135.429 75.3529 136.048 75.9725 136.812 75.9725Z" fill="#FF725E"/>
<path d="M72.0446 54.703C72.6475 54.703 73.1362 54.2139 73.1362 53.6104C73.1362 53.007 72.6475 52.5178 72.0446 52.5178C71.4417 52.5178 70.953 53.007 70.953 53.6104C70.953 54.2139 71.4417 54.703 72.0446 54.703Z" fill="#FF725E"/>
<path d="M69.1337 41.8832L72.2629 42.0289L73.7911 35.9103L70.8802 36.056L69.1337 41.8832Z" fill="#455A64"/>
<path d="M166.94 91.0504L168.031 94.0369L174.29 92.9443L172.98 90.322L166.94 91.0504Z" fill="#FF725E"/>
<path d="M103.846 74.0057L101.881 76.4823L106.102 81.2169L107.703 78.6675L103.846 74.0057Z" fill="#455A64"/>
<path d="M96.3505 15.8064L103.7 23.3818L114.107 19.4484L114.544 21.9978L110.032 31.2485L114.18 38.0955L113.816 40.2079L103.773 38.4597L97.8059 45.0154L96.4232 43.9956L95.1861 35.619L85.7985 30.7387L85.4346 28.8448L94.8223 26.2954L96.3505 15.8064Z" fill="#FF725E"/>
<path opacity="0.3" d="M96.3505 15.8064L103.7 23.3818L114.107 19.4484L114.544 21.9978L110.032 31.2485L114.18 38.0955L113.816 40.2079L103.773 38.4597L97.8059 45.0154L96.4232 43.9956L95.1861 35.619L85.7985 30.7387L85.4346 28.8448L94.8223 26.2954L96.3505 15.8064Z" fill="black"/>
<path d="M96.3505 13.694L103.7 21.2694L114.107 19.4484L109.231 28.7719L114.18 38.0955L103.773 36.3473L96.4232 43.9956L94.895 33.5065L85.4346 28.8448L94.8223 24.183L96.3505 13.694Z" fill="#FF725E"/>
<path d="M172.907 15.8064L165.557 23.3818L155.15 19.4484L154.714 21.9978L159.226 31.2485L155.078 38.0955L155.442 40.2079L165.484 38.4597L171.452 45.0154L172.834 43.9956L174.071 35.619L183.459 30.7387L183.896 28.8448L174.435 26.2954L172.907 15.8064Z" fill="#FF725E"/>
<path opacity="0.3" d="M172.907 15.8064L165.557 23.3818L155.15 19.4484L154.714 21.9978L159.226 31.2485L155.078 38.0955L155.442 40.2079L165.484 38.4597L171.452 45.0154L172.834 43.9956L174.071 35.619L183.459 30.7387L183.896 28.8448L174.435 26.2954L172.907 15.8064Z" fill="black"/>
<path d="M172.907 13.694L165.557 21.2694L155.151 19.4484L160.026 28.7719L155.078 38.0955L165.484 36.3473L172.834 43.9956L174.362 33.5065L183.896 28.8448L174.435 24.183L172.907 13.694Z" fill="#FF725E"/>
<path d="M134.41 2.54944L140.523 14.5681L154.714 13.7668L154.277 17.0447L145.253 26.6596L147.655 36.6387L146.491 38.9696L134.847 33.0695L125.096 38.8239L123.786 37.0029L125.459 26.3682L115.853 16.8261L116.072 14.3496L128.589 14.7866L134.41 2.54944Z" fill="#FF725E"/>
<path opacity="0.3" d="M134.41 2.54944L140.523 14.5681L154.714 13.7668L154.277 17.0447L145.253 26.6596L147.655 36.6387L146.491 38.9696L134.847 33.0695L125.096 38.8239L123.786 37.0029L125.459 26.3682L115.853 16.8261L116.072 14.3496L128.589 14.7866L134.41 2.54944Z" fill="black"/>
<path d="M135.211 0L141.324 12.0187L154.714 13.7668L145.181 23.3089L147.655 36.6387L135.648 30.5201L123.786 37.0029L125.896 23.6003L116.072 14.3495L129.389 12.1643L135.211 0Z" fill="#FF725E"/>
<path d="M159.662 107.877L169.923 109.042C172.398 105.546 175.818 102.632 180.111 100.811C192.337 95.5665 206.455 101.175 211.695 113.412C216.934 125.65 211.331 139.781 199.105 145.025C186.879 150.27 172.761 144.661 167.522 132.424C165.339 127.325 165.048 121.862 166.357 116.909L159.662 107.877Z" fill="#FAFAFA"/>
<path d="M159.662 107.876C160.099 108.386 162.137 111.154 166.43 116.836H166.285C166.285 116.763 166.357 116.763 166.43 116.763C166.503 116.763 166.503 116.836 166.503 116.836C165.63 120.186 165.339 124.557 166.648 129.292C167.012 130.457 167.376 131.695 167.958 132.861C168.249 133.443 168.541 134.026 168.832 134.609C169.196 135.192 169.559 135.774 169.923 136.357C171.451 138.615 173.489 140.727 176.036 142.476C178.51 144.224 181.421 145.535 184.623 146.19C187.825 146.919 191.246 146.992 194.666 146.263C198.013 145.535 201.361 144.005 204.272 141.82C207.11 139.635 209.657 136.721 211.258 133.298C212.932 129.801 213.805 126.014 213.659 122.299C213.587 118.584 212.568 115.015 210.967 111.883C209.366 108.751 207.11 106.055 204.49 104.016C201.87 101.976 198.959 100.592 195.976 99.7912C192.992 98.9899 190.081 98.8443 187.316 99.0628C184.55 99.3542 182.003 100.155 179.748 101.175C175.236 103.215 172.179 106.347 170.214 109.115L170.142 109.188C163.447 108.314 160.317 107.949 159.662 107.876C160.317 107.949 163.447 108.241 169.923 108.896L169.85 108.969C171.815 106.201 174.872 102.996 179.384 100.957C181.64 99.9369 184.187 99.1356 187.025 98.8443C189.79 98.5529 192.847 98.6986 195.83 99.4998C198.814 100.301 201.798 101.685 204.49 103.725C207.183 105.764 209.439 108.532 211.112 111.664C212.786 114.869 213.732 118.511 213.878 122.226C214.023 126.014 213.15 129.874 211.476 133.371C209.875 136.867 207.328 139.781 204.417 142.039C201.506 144.297 198.086 145.826 194.666 146.555C191.246 147.283 187.752 147.21 184.478 146.482C181.276 145.753 178.292 144.442 175.818 142.694C173.271 140.946 171.233 138.761 169.705 136.503C169.341 135.92 168.977 135.337 168.613 134.755C168.322 134.172 168.031 133.516 167.74 132.934C167.158 131.768 166.721 130.53 166.43 129.364C165.12 124.557 165.484 120.186 166.357 116.836L166.503 116.909C166.503 116.982 166.43 116.982 166.357 116.982C162.137 111.227 160.099 108.459 159.662 107.876Z" fill="#263238"/>
<path d="M180.766 114.286C180.766 114.286 180.766 114.432 180.766 114.651C180.766 114.869 180.766 115.233 180.766 115.598C180.766 116.472 180.766 117.637 180.839 119.094C180.839 122.08 180.912 126.378 180.912 131.477L180.766 131.331C185.788 131.331 191.609 131.331 197.868 131.331C197.941 131.258 197.504 131.695 197.65 131.55V131.477V131.404V131.258V130.967V130.384C197.65 130.02 197.65 129.583 197.65 129.219C197.65 128.417 197.65 127.689 197.65 126.961C197.65 125.431 197.65 123.974 197.65 122.517C197.65 119.677 197.65 116.909 197.65 114.432L197.795 114.578C192.701 114.578 188.48 114.505 185.424 114.505C183.968 114.505 182.731 114.505 181.931 114.432C181.567 114.432 181.203 114.432 180.985 114.432C180.912 114.286 180.766 114.286 180.766 114.286C180.766 114.286 180.839 114.286 181.057 114.286C181.276 114.286 181.567 114.286 181.931 114.286C182.731 114.286 183.896 114.286 185.424 114.214C188.48 114.214 192.774 114.141 197.868 114.141H198.013V114.286C198.013 116.763 198.013 119.531 198.013 122.372C198.013 123.829 198.013 125.285 198.013 126.815C198.013 127.543 198.013 128.345 198.013 129.073C198.013 129.437 198.013 129.874 198.013 130.238V130.821V131.113V131.258V131.331V131.404C198.159 131.258 197.795 131.622 197.795 131.622C191.537 131.622 185.642 131.622 180.694 131.622H180.548V131.477C180.548 126.305 180.621 122.007 180.621 119.021C180.621 117.564 180.621 116.399 180.694 115.525C180.694 115.161 180.694 114.869 180.694 114.651C180.766 114.432 180.766 114.286 180.766 114.286Z" fill="#263238"/>
<path d="M196.049 117.127C196.267 117.346 194.011 120.624 190.882 124.557C190.3 125.358 189.645 126.087 189.135 126.742L188.771 127.179L188.335 126.815C185.642 124.411 183.823 122.517 184.041 122.372C184.187 122.153 186.297 123.683 189.062 126.014L188.262 126.087C188.771 125.358 189.353 124.63 190.008 123.829C193.138 119.968 195.83 116.982 196.049 117.127Z" fill="#FF725E"/>
</svg>
