<svg width="46" height="46" viewBox="0 0 46 46" fill="none" xmlns="http://www.w3.org/2000/svg">
<path d="M23 44.9639C10.8784 44.9639 1.03601 35.1216 1.03601 23C1.03601 10.8784 10.8784 1.03601 23 1.03601C35.1216 1.03601 44.9639 10.8784 44.9639 23C44.8603 35.1216 35.1216 44.9639 23 44.9639Z" stroke="#6576FF" stroke-width="2" stroke-miterlimit="10" stroke-linejoin="round"/>
<path d="M31.5991 29.8378C29.4234 33.2567 26.2117 35.4324 22.6892 35.4324C19.0631 35.4324 15.955 33.2567 13.7793 29.9414" stroke="#6576FF" stroke-width="2" stroke-miterlimit="10" stroke-linecap="round" stroke-linejoin="round"/>
<path d="M14.7117 13.9865C16.5766 12.2252 19.4775 13.7793 20.2027 15.7478C20.6171 16.7838 20.6171 17.7162 20.0991 18.7523C19.063 20.6171 17.8198 22.3784 16.1621 23.7252C15.2297 24.4505 14.6081 24.5541 13.6757 23.7252C11.9144 22.2748 10.5675 20.5135 9.53151 18.5451C8.39187 16.3694 10.0495 13.6757 12.536 13.3649C13.2612 13.0541 14.0901 13.3649 14.7117 13.9865ZM14.7117 21.964C15.0225 21.6532 15.2297 21.446 15.4369 21.1351C16.2657 19.9955 17.1982 18.8559 18.027 17.7162C18.6486 16.7838 18.1306 15.6442 16.991 15.3333C16.6802 15.2297 16.3693 15.2297 16.0585 15.5406C15.8513 15.7478 15.7477 15.8514 15.5405 16.0586C14.9189 16.5766 14.4009 16.5766 13.7793 16.0586C13.5721 15.8514 13.3648 15.6442 13.1576 15.5406C13.054 15.4369 12.8468 15.3333 12.6396 15.3333C11.6036 15.3333 10.6712 16.7838 11.1892 17.6126C12.2252 19.2703 13.3648 20.6171 14.7117 21.964Z" fill="#6576FF"/>
<path d="M31.2883 13.8829C33.0496 12.1216 35.9505 13.6757 36.6757 15.5405C37.0901 16.5766 37.0901 17.6126 36.5721 18.5451C35.5361 20.4099 34.2928 22.0676 32.6352 23.4144C31.5991 24.2433 30.9775 24.2433 29.9415 23.4144C28.1802 21.964 26.937 20.2027 25.9009 18.2342C24.8649 16.1622 26.419 13.6757 28.491 13.1577C29.5271 13.0541 30.1487 13.1577 31.2883 13.8829ZM31.1847 21.964C31.4955 21.6532 31.8063 21.3424 32.0135 21.1351C32.8424 19.9955 33.6712 18.8559 34.5 17.7162C35.2253 16.5766 34.1892 15.5405 33.3604 15.3333C33.0496 15.2297 32.8424 15.3333 32.6352 15.5405C32.428 15.7478 32.2208 15.955 32.0135 16.1622C31.4955 16.5766 30.9775 16.5766 30.5631 16.1622C30.3559 15.955 30.0451 15.7478 29.8379 15.5405C29.7343 15.4369 29.5271 15.3333 29.3199 15.3333C28.2838 15.3333 27.3514 16.6802 27.8694 17.6126C28.5946 19.2703 29.8379 20.6171 31.1847 21.964Z" fill="#6576FF"/>
</svg>
