<svg width="46" height="46" viewBox="0 0 46 46" fill="none" xmlns="http://www.w3.org/2000/svg">
<g clip-path="url(#clip0_838_587)">
<path d="M37.0024 36.6088H2.69924C1.51831 36.6088 0.562317 35.6528 0.562317 34.4719V2.69927C0.562317 1.51834 1.51831 0.562347 2.69924 0.562347H37.0024C38.1833 0.562347 39.1393 1.51834 39.1393 2.69927V34.4156C39.1393 35.5966 38.1833 36.6088 37.0024 36.6088Z" fill="#E3E7FE" stroke="#6576FF" stroke-width="2" stroke-miterlimit="10"/>
<path d="M9.33496 5.96088H43.0758C44.4254 5.96088 45.5501 6.9731 45.5501 8.2665V39.7017C45.5501 40.9389 44.4254 42.0073 43.0758 42.0073H12.7653C12.2592 42.0073 11.7531 42.176 11.3594 42.401L6.9731 45.5501C6.9731 45.5501 6.86063 16.533 6.91687 8.2665C6.91687 6.9731 7.98533 5.96088 9.33496 5.96088Z" fill="white" stroke="#6576FF" stroke-width="1.5" stroke-miterlimit="10" stroke-linejoin="round"/>
<path d="M20.0757 23.6748C17.264 21.0318 16.9266 17.7702 19.1198 15.5208C21.088 13.4963 24.4621 13.4963 26.4865 15.5208C28.7921 17.8264 28.4547 20.8631 25.5867 23.6748C28.5672 24.7433 30.6479 26.7115 31.7163 29.6919C32.0537 30.5917 32.1662 31.6039 32.2224 32.6161C32.2787 33.9095 31.7163 34.4719 30.3667 34.4719C28.6234 34.4719 26.8801 34.4719 25.1369 34.4719C21.9315 34.4719 18.7261 34.4719 15.4645 34.4719C13.8899 34.4719 13.44 33.9658 13.4963 32.3912C13.7212 28.2298 16.0831 25.0244 20.0757 23.6748Z" fill="white" stroke="#6576FF" stroke-width="1.5" stroke-miterlimit="10"/>
<path d="M32.2787 23.0562C35.8214 24.3496 37.5647 26.7677 38.0146 30.1418C38.1271 30.8729 38.0708 31.7726 37.2835 31.9976C36.4963 32.2787 35.5965 32.1663 34.753 32.1663C34.5843 32.1663 34.4156 31.7164 34.3031 31.4352C33.4596 28.2298 31.7163 25.643 29.242 23.5623C29.0733 23.4499 29.017 23 29.0733 22.8313C30.4791 21.0318 30.1417 19.1198 29.5232 17.2078C29.4107 16.8704 29.4107 16.4768 29.3544 16.0831C29.7481 16.0269 30.198 15.9144 30.5916 15.9707C32.1662 16.3081 33.3471 17.1516 33.8532 18.7262C34.3031 20.3007 33.9657 21.7066 32.7285 22.8313C32.6161 22.9438 32.4474 23 32.2787 23.0562Z" fill="#E3E7FE" stroke="#6576FF" stroke-width="1.5" stroke-miterlimit="10" stroke-linejoin="round"/>
</g>
<defs>
<clipPath id="clip0_838_587">
<rect width="46" height="46" fill="white"/>
</clipPath>
</defs>
</svg>
