<svg width="46" height="46" viewBox="0 0 46 46" fill="none" xmlns="http://www.w3.org/2000/svg">
<g clip-path="url(#clip0_838_556)">
<path d="M37.8497 45.5678H2.84027C1.54362 45.5678 0.493958 44.5181 0.493958 43.2215V8.70604C0.493958 7.40939 1.54362 6.35973 2.84027 6.35973H37.8497C39.1463 6.35973 40.196 7.40939 40.196 8.70604V43.1597C40.196 44.4564 39.1463 45.5678 37.8497 45.5678Z" fill="#E3E7FE" stroke="#6576FF" stroke-width="2" stroke-miterlimit="10"/>
<path d="M40.196 11.5463H0.493958V8.64429C0.493958 7.34765 1.54362 6.29798 2.84027 6.29798H37.8497C39.1463 6.29798 40.196 7.34765 40.196 8.64429V11.5463Z" fill="#B3C2FF" stroke="#6576FF" stroke-miterlimit="10"/>
<path d="M36.4913 9.69396C36.8664 9.69396 37.1705 9.38987 37.1705 9.01477C37.1705 8.63966 36.8664 8.33557 36.4913 8.33557C36.1162 8.33557 35.8121 8.63966 35.8121 9.01477C35.8121 9.38987 36.1162 9.69396 36.4913 9.69396Z" fill="#E3E7FE" stroke="#6576FF" stroke-width="1.5" stroke-miterlimit="10"/>
<path d="M34.4537 9.69396C34.8288 9.69396 35.1329 9.38987 35.1329 9.01477C35.1329 8.63966 34.8288 8.33557 34.4537 8.33557C34.0786 8.33557 33.7745 8.63966 33.7745 9.01477C33.7745 9.38987 34.0786 9.69396 34.4537 9.69396Z" fill="#E3E7FE" stroke="#6576FF" stroke-width="1.5" stroke-miterlimit="10"/>
<path d="M32.4161 9.69396C32.7912 9.69396 33.0953 9.38987 33.0953 9.01477C33.0953 8.63966 32.7912 8.33557 32.4161 8.33557C32.041 8.33557 31.7369 8.63966 31.7369 9.01477C31.7369 9.38987 32.041 9.69396 32.4161 9.69396Z" fill="#E3E7FE" stroke="#6576FF" stroke-width="1.5" stroke-miterlimit="10"/>
<path d="M43.1597 39.7637H8.15032C6.85368 39.7637 5.80402 38.7141 5.80402 37.4174V2.90201C5.80402 1.60537 6.85368 0.555702 8.15032 0.555702H43.1597C44.4564 0.555702 45.506 1.60537 45.506 2.90201V37.3557C45.5678 38.7141 44.4564 39.7637 43.1597 39.7637Z" fill="white" stroke="#6576FF" stroke-width="2" stroke-miterlimit="10" stroke-linejoin="round"/>
<path d="M45.5678 5.74228H5.80402V2.84027C5.80402 1.54362 6.85368 0.493958 8.15032 0.493958H43.1597C44.4564 0.493958 45.506 1.54362 45.506 2.84027V5.74228H45.5678Z" fill="#E3E7FE" stroke="#6576FF" stroke-width="1.5" stroke-miterlimit="10"/>
<path d="M23.1544 26.5503C26.2575 26.5503 28.7732 24.0347 28.7732 20.9315C28.7732 17.8284 26.2575 15.3127 23.1544 15.3127C20.0512 15.3127 17.5356 17.8284 17.5356 20.9315C17.5356 24.0347 20.0512 26.5503 23.1544 26.5503Z" fill="#E3E7FE" stroke="#6576FF" stroke-width="1.5" stroke-miterlimit="10"/>
<path d="M27.1551 24.8982L26.3692 25.684L28.8141 28.129L29.6 27.3431L27.1551 24.8982Z" fill="#6576FF"/>
<path d="M32.8483 31.1195L32.7248 31.3047C32.4161 31.6134 31.9839 31.6134 31.6752 31.3047L28.8966 28.5262C28.5879 28.2174 28.5879 27.7852 28.8966 27.4765L29.0819 27.2913C29.3906 26.9825 29.8228 26.9825 30.1315 27.2913L32.9101 30.0698C33.157 30.3785 33.157 30.8725 32.8483 31.1195Z" fill="#6576FF"/>
<path d="M25.439 24.0805L24.5745 24.7597C24.5128 24.8215 24.451 24.7597 24.451 24.698V20.0671H25.5007V23.957C25.5007 24.0188 25.5007 24.0805 25.439 24.0805Z" fill="#C4CEFE"/>
<path d="M23.3396 25.0684H22.6604C22.5369 25.0684 22.4752 25.0067 22.4752 24.8832V21.1168H23.5248V24.8832C23.5866 25.0067 23.4631 25.0684 23.3396 25.0684Z" fill="#C4CEFE"/>
<path d="M21.6108 24.698L20.5611 24.1423V23.3396H21.6108V24.698Z" fill="#C4CEFE"/>
<path d="M42.6658 3.95167C43.0409 3.95167 43.345 3.64759 43.345 3.27248C43.345 2.89737 43.0409 2.59328 42.6658 2.59328C42.2907 2.59328 41.9866 2.89737 41.9866 3.27248C41.9866 3.64759 42.2907 3.95167 42.6658 3.95167Z" fill="#6576FF"/>
<path d="M40.6282 3.95167C41.0033 3.95167 41.3074 3.64759 41.3074 3.27248C41.3074 2.89737 41.0033 2.59328 40.6282 2.59328C40.2531 2.59328 39.949 2.89737 39.949 3.27248C39.949 3.64759 40.2531 3.95167 40.6282 3.95167Z" fill="#6576FF"/>
<path d="M38.5906 3.95167C38.9657 3.95167 39.2698 3.64759 39.2698 3.27248C39.2698 2.89737 38.9657 2.59328 38.5906 2.59328C38.2155 2.59328 37.9114 2.89737 37.9114 3.27248C37.9114 3.64759 38.2155 3.95167 38.5906 3.95167Z" fill="#6576FF"/>
</g>
<defs>
<clipPath id="clip0_838_556">
<rect width="46" height="46" fill="white"/>
</clipPath>
</defs>
</svg>
