<svg viewBox="0 0 44 36" xmlns="http://www.w3.org/2000/svg">
<path d="m4.0054 20.544v-13.86c0-1.0711 0.47129-1.5424 1.5317-1.5424h27.795c1.0389 0 1.5209 0.48199 1.5209 1.5317v27.795c0 1.039-0.482 1.5317-1.5209 1.5317h-27.795c-1.0604-0.0107-1.5317-0.4927-1.5317-1.5531v-13.903zm28.256-12.8h-25.653v25.653h25.653v-25.653z" fill="currentColor"/>
<path d="m37.424 2.5707h-0.5784-26.146c-0.225 0-0.4606-0.01071-0.6748-0.07497-0.58915-0.18209-0.95333-0.7712-0.87835-1.371 0.07497-0.59983 0.57839-1.0711 1.189-1.114 0.1178-0.010711 0.2356 0 0.3642 0 9.2436-0.010711 18.477-0.010711 27.72-0.010711 1.1139 0 1.5745 0.46058 1.5745 1.5852v27.667c0 0.2357-0.0107 0.482-0.075 0.7069-0.1714 0.5784-0.7498 0.9319-1.3389 0.8676-0.5998-0.0642-1.0925-0.5569-1.1461-1.1568-0.0107-0.1499-0.0107-0.2892-0.0107-0.4391v-26.146-0.51414z" fill="currentColor"/>
<path d="m20.715 21.851v5.1091c0 0.6213-0.3642 1.0926-0.9319 1.264-0.5248 0.1606-1.1139-0.0322-1.4031-0.5142-0.1393-0.2356-0.225-0.5462-0.225-0.8247-0.0214-1.5103-0.0107-3.0206-0.0107-4.5415v-0.4927h-0.4498-5.8162c-0.8569 0-1.4353-0.5249-1.446-1.2747 0-0.7605 0.5784-1.2853 1.4246-1.296h6.2874v-0.4392c0-1.5638-0.0107-3.1276 0-4.7021 0-0.6855 0.4927-1.2211 1.1461-1.2854 0.632-0.0642 1.2211 0.3428 1.3817 0.9747 0.0429 0.1607 0.0429 0.3428 0.0429 0.5142v4.4558 0.4713h0.4606 5.9446c0.6213 0 1.114 0.3963 1.2639 0.9747 0.1393 0.5248-0.0749 1.1139-0.5677 1.3817-0.2463 0.1286-0.5569 0.2035-0.8354 0.2035-1.928 0.0215-3.856 0.0107-5.784 0.0107-0.1393 0.0108-0.2892 0.0108-0.482 0.0108z" fill="currentColor"/>
</svg>
