<svg width="46" height="46" viewBox="0 0 46 46" fill="none" xmlns="http://www.w3.org/2000/svg">
<path d="M23 44.9639C10.8784 44.9639 1.03601 35.1216 1.03601 23C1.03601 10.8784 10.8784 1.03601 23 1.03601C35.1216 1.03601 44.9639 10.8784 44.9639 23C44.8603 35.1216 35.1216 44.9639 23 44.9639Z" stroke="#6576FF" stroke-width="2" stroke-miterlimit="10" stroke-linejoin="round"/>
<path d="M31.3919 16.6802C32.7388 16.6802 33.7748 17.7162 33.7748 19.0631C33.7748 20.4099 32.7388 21.4459 31.3919 21.4459C30.0451 21.4459 29.009 20.4099 29.009 19.0631C29.009 17.7162 30.0451 16.6802 31.3919 16.6802Z" fill="#6576FF"/>
<path d="M31.8063 29.8378C29.6306 33.2567 26.4189 35.4324 22.8964 35.4324C19.2702 35.4324 16.1621 33.2567 13.9865 29.9414" stroke="#6576FF" stroke-width="2" stroke-miterlimit="10" stroke-linecap="round" stroke-linejoin="round"/>
<path d="M14.1937 17.4054C15.0225 17.4054 15.8514 17.4054 16.7838 17.4054C17.4054 17.4054 17.8198 17.9234 17.8198 18.5451C17.8198 19.0631 17.4054 19.5811 16.8874 19.6847C16.7838 19.6847 16.6802 19.7883 16.5766 19.7883C15.0225 19.7883 13.5721 19.7883 12.018 19.7883C11.2928 19.7883 10.7748 19.2703 10.7748 18.5451C10.7748 17.9234 11.2928 17.4054 12.018 17.4054C12.6396 17.3018 13.4685 17.4054 14.1937 17.4054Z" fill="#6576FF"/>
</svg>
