<svg width="46" height="46" viewBox="0 0 46 46" fill="none" xmlns="http://www.w3.org/2000/svg">
<path d="M23 44.9639C10.8784 44.9639 1.03601 35.1216 1.03601 23C1.03601 10.8784 10.8784 1.03601 23 1.03601C35.1216 1.03601 44.9639 10.8784 44.9639 23C44.8603 35.1216 35.1216 44.9639 23 44.9639Z" stroke="#6576FF" stroke-width="2" stroke-miterlimit="10" stroke-linejoin="round"/>
<path d="M29.8378 14.1937C31.1847 14.1937 32.2207 15.2298 32.2207 16.5766C32.2207 17.9235 31.1847 18.9595 29.8378 18.9595C28.491 18.9595 27.455 17.9235 27.455 16.5766C27.455 15.3334 28.491 14.1937 29.8378 14.1937Z" fill="#6576FF"/>
<path d="M15.5406 14.1937C16.8874 14.1937 17.9235 15.2298 17.9235 16.5766C17.9235 17.9235 16.8874 18.9595 15.5406 18.9595C14.1938 18.9595 13.1577 17.9235 13.1577 16.5766C13.1577 15.3334 14.1938 14.1937 15.5406 14.1937Z" fill="#6576FF"/>
<path d="M32.6352 28.0765C30.3559 31.4955 26.8334 33.6711 23 33.6711C19.1667 33.6711 15.7478 31.4955 13.4685 28.1801" stroke="#6576FF" stroke-width="2" stroke-miterlimit="10" stroke-linecap="round" stroke-linejoin="round"/>
</svg>
