<svg width="72" height="66" viewBox="0 0 72 66" fill="none" xmlns="http://www.w3.org/2000/svg">
<path d="M57.5487 46.3841H5.56653C3.60494 46.3841 2 45.1358 2 43.62V3.76406C2 2.24829 3.60494 1 5.56653 1H57.5487C59.5103 1 61.1152 2.24829 61.1152 3.76406V43.7092C61.1152 45.225 59.5103 46.3841 57.5487 46.3841Z" fill="#E2F5F0" stroke="#3fbd9a" stroke-width="2" stroke-miterlimit="10"/>
<path d="M67.0892 53.6063H15.107C13.1454 53.6063 11.5405 52.358 11.5405 50.8422V10.8971C11.5405 9.38134 13.1454 8.13306 15.107 8.13306H67.0892C69.0508 8.13306 70.6557 9.38134 70.6557 10.8971V50.8422C70.6557 52.358 69.0508 53.6063 67.0892 53.6063Z" fill="white" stroke="#3fbd9a" stroke-width="1.5" stroke-miterlimit="10" stroke-linejoin="round"/>
<path d="M50.4856 64.6626H25.3415C24.8957 64.6626 24.5391 64.306 24.5391 63.8601V59.5803C24.5391 59.1345 24.8957 58.7778 25.3415 58.7778H50.5747C51.0205 58.7778 51.3772 59.1345 51.3772 59.5803V63.8601C51.288 64.306 50.9314 64.6626 50.4856 64.6626Z" fill="white" stroke="#3fbd9a" stroke-miterlimit="10" stroke-linejoin="round"/>
<path d="M47.1166 39.786H27.8573V28.284L37.9327 18.5652L47.1166 27.9273" stroke="#3fbd9a" stroke-miterlimit="10"/>
<path d="M45.8683 53.6063H31.3347V58.7778H45.8683V53.6063Z" fill="white" stroke="#3fbd9a" stroke-miterlimit="10" stroke-linejoin="round"/>
<path d="M43.8175 21.24L37.8436 16.9602L32.8504 20.5267V18.476H28.5706V23.38L23.4883 27.1248L25.4499 29.978L37.6652 21.24L42.6584 24.7174" fill="#E2F5F0"/>
<path d="M43.8175 21.24L37.8436 16.9602L32.8504 20.5267V18.476H28.5706V23.38L23.4883 27.1248L25.4499 29.978L37.6652 21.24L42.6584 24.7174" stroke="#3fbd9a" stroke-miterlimit="10" stroke-linejoin="round"/>
<path d="M36.417 39.8752H37.9328V35.8628C37.9328 35.8628 38.2003 31.583 43.2826 30.9589C44.5308 31.7613 46.3141 33.2771 46.3141 33.2771L49.2565 30.9589C49.2565 30.9589 53.893 31.4047 54.7846 35.7737C54.8738 38.8052 54.8738 39.6969 54.8738 39.6969H56.0329L36.417 39.8752Z" stroke="#3fbd9a" stroke-miterlimit="10"/>
<path d="M35.882 32.0288H31.8697C31.7805 32.0288 31.6913 31.9397 31.6913 31.8505V27.749C31.6913 27.6598 31.7805 27.5707 31.8697 27.5707H35.882C35.9712 27.5707 36.0603 27.6598 36.0603 27.749V31.7614C36.0603 31.9397 35.9712 32.0288 35.882 32.0288Z" fill="#C5EBE1" stroke="#3fbd9a" stroke-width="0.5" stroke-miterlimit="10"/>
<path d="M46.3141 28.9973C48.8748 28.9973 50.9506 26.9215 50.9506 24.3609C50.9506 21.8002 48.8748 19.7244 46.3141 19.7244C43.7534 19.7244 41.6776 21.8002 41.6776 24.3609C41.6776 26.9215 43.7534 28.9973 46.3141 28.9973Z" fill="white" stroke="#3fbd9a" stroke-miterlimit="10" stroke-linejoin="round"/>
<path d="M56.122 39.786H26.609" stroke="#3fbd9a" stroke-miterlimit="10"/>
<path d="M52.823 44.8684H40.1618L38.3785 42.2826C38.2894 42.1935 38.3785 42.0151 38.5569 42.0151H54.8737C55.0521 42.0151 55.1412 42.2826 55.0521 42.3718L52.823 44.8684Z" stroke="#3fbd9a" stroke-width="0.75" stroke-miterlimit="10"/>
<path d="M52.823 45.0467H40.3402C40.1618 45.0467 39.9835 44.8683 39.9835 44.69V36.3087C39.9835 36.1304 40.1618 35.952 40.3402 35.952H52.823C53.0014 35.952 53.1797 36.1304 53.1797 36.3087V44.69C53.0905 44.9575 53.0014 45.0467 52.823 45.0467Z" fill="#E2F5F0" stroke="#3fbd9a" stroke-width="0.75" stroke-miterlimit="10" stroke-linejoin="round"/>
<path d="M46.5816 41.3019C46.9755 41.3019 47.2949 40.9825 47.2949 40.5886C47.2949 40.1946 46.9755 39.8752 46.5816 39.8752C46.1876 39.8752 45.8683 40.1946 45.8683 40.5886C45.8683 40.9825 46.1876 41.3019 46.5816 41.3019Z" fill="#C5EBE1"/>
<path d="M20.6351 17.0494V17.8519H21.4376V18.0302H20.6351V18.8327H20.4568V18.0302H19.6543V17.8519H20.4568V17.0494H20.6351Z" fill="#E2F5F0"/>
<path d="M32.7613 43.5309V44.155H33.3854V44.3334H32.7613V44.9575H32.5829V44.3334H31.9588V44.155H32.5829V43.5309H32.7613Z" fill="#6D7DFF"/>
<path d="M59.1536 31.1372V32.0288H59.9561V32.2072H59.1536V33.0988H58.8861V32.2072H58.0837V32.0288H58.8861V31.1372H59.1536Z" fill="#E2F5F0"/>
<path d="M55.2304 20.2593C55.4766 20.2593 55.6762 20.0597 55.6762 19.8135C55.6762 19.5673 55.4766 19.3677 55.2304 19.3677C54.9842 19.3677 54.7846 19.5673 54.7846 19.8135C54.7846 20.0597 54.9842 20.2593 55.2304 20.2593Z" stroke="#6D7DFF" stroke-width="0.25" stroke-miterlimit="10"/>
<path d="M18.4952 39.2511C18.7906 39.2511 19.0302 39.0116 19.0302 38.7161C19.0302 38.4207 18.7906 38.1812 18.4952 38.1812C18.1997 38.1812 17.9602 38.4207 17.9602 38.7161C17.9602 39.0116 18.1997 39.2511 18.4952 39.2511Z" stroke="#E2F5F0" stroke-width="0.25" stroke-miterlimit="10"/>
</svg>
