<svg width="46" height="46" viewBox="0 0 46 46" fill="none" xmlns="http://www.w3.org/2000/svg">
<g clip-path="url(#clip0_838_681)">
<path d="M8.49683 6.91466V40.5503C8.49683 40.7847 8.49683 41.0191 8.43823 41.3121L8.49683 6.91466Z" stroke="#A00000" stroke-width="1.5" stroke-miterlimit="10"/>
<path d="M8.43823 6.91466V41.2535C8.14524 43.5389 6.56307 45.2968 4.62931 45.3554C4.62931 45.3554 4.57071 45.3554 4.51211 45.3554C2.34396 45.414 0.585999 43.1873 0.585999 40.5503V8.20383C0.585999 7.50064 1.05479 6.91466 1.64078 6.91466H8.43823Z" fill="#E2F5F0" stroke="#3fbd9a" stroke-width="2" stroke-miterlimit="10"/>
<path d="M8.49683 6.91466V40.5503C8.49683 40.7847 8.49683 41.0191 8.43823 41.3121L8.49683 6.91466Z" stroke="#00B600" stroke-width="1.5" stroke-miterlimit="10"/>
<path d="M8.49683 39.8471V40.5503C8.49683 40.7847 8.49683 41.0191 8.43823 41.3121L8.49683 39.8471Z" stroke="#00B600" stroke-width="1.5" stroke-miterlimit="10"/>
<path d="M45.414 1.81656V42.9529C45.414 44.3006 44.535 45.3554 43.4217 45.3554H8.43822H4.6293C6.56306 45.2968 8.14523 43.5389 8.43822 41.2535C8.49682 41.0191 8.49682 40.7847 8.49682 40.4917V6.91465H8.43822V1.81656C8.43822 1.17198 8.90701 0.585991 9.493 0.585991H44.4178C44.9452 0.585991 45.414 1.17198 45.414 1.81656Z" fill="white" stroke="#3fbd9a" stroke-width="2" stroke-miterlimit="10" stroke-linejoin="round"/>
<path d="M13.9465 26.721H25.3147" stroke="#CFEEE6" stroke-width="2" stroke-miterlimit="10" stroke-linecap="round"/>
<path d="M28.3032 26.721H40.0815" stroke="#CFEEE6" stroke-width="2" stroke-miterlimit="10" stroke-linecap="round"/>
<path d="M13.9465 32.1707H25.3147" stroke="#CFEEE6" stroke-width="2" stroke-miterlimit="10" stroke-linecap="round"/>
<path d="M28.3032 32.1707H40.0815" stroke="#CFEEE6" stroke-width="2" stroke-miterlimit="10" stroke-linecap="round"/>
<path d="M13.9465 37.386H25.3147" stroke="#CFEEE6" stroke-width="2" stroke-miterlimit="10" stroke-linecap="round"/>
<path d="M28.3032 37.386H40.0815" stroke="#CFEEE6" stroke-width="2" stroke-miterlimit="10" stroke-linecap="round"/>
<path d="M40.1987 21.3299H13.8293C13.6535 21.3299 13.5363 21.2127 13.5363 21.0369V7.85223C13.5363 7.67643 13.6535 7.55923 13.8293 7.55923H40.1987C40.3745 7.55923 40.4917 7.67643 40.4917 7.85223V21.0955C40.4917 21.2127 40.3745 21.3299 40.1987 21.3299Z" fill="#C5EBE1"/>
<path d="M23.0879 16.8178H22.2089L20.744 14.0637V16.8178H19.865V12.3057H20.744L22.2089 15.1185V12.3057H23.0879V16.8178Z" fill="#3fbd9a"/>
<path d="M24.6115 13.1847V14.1223H25.7835V14.9427H24.6115V15.9389H25.9593V16.8178H23.7325V12.3057H25.9593V13.1847H24.6115Z" fill="#3fbd9a"/>
<path d="M31.5847 12.3057L30.6472 16.8178H29.5924L29.0064 13.8879L28.4204 16.8178H27.3656L26.3694 12.3057H27.307L27.8344 15.5873L28.479 12.3057H29.4752L30.1198 15.5873L30.6472 12.3057H31.5847Z" fill="#3fbd9a"/>
<path d="M32.6395 16.7006C32.4051 16.5834 32.2293 16.4077 32.1121 16.2319C31.9949 15.9975 31.9363 15.7631 31.9363 15.4701H32.8739C32.8739 15.6459 32.9325 15.7631 32.9911 15.8217C33.0497 15.8803 33.1669 15.9389 33.2841 15.9389C33.4013 15.9389 33.5185 15.8803 33.5771 15.8217C33.6357 15.7631 33.6943 15.6459 33.6943 15.5287C33.6943 15.4115 33.6357 15.3529 33.5771 15.2357C33.5185 15.1771 33.4599 15.1185 33.3427 15.0599C33.2255 15.0013 33.1083 14.9427 32.9911 14.8841C32.7567 14.7669 32.5809 14.7083 32.4051 14.5911C32.2293 14.4739 32.1121 14.3567 31.9949 14.1809C31.8777 14.0051 31.8191 13.7707 31.8191 13.4777C31.8191 13.0675 31.9363 12.7159 32.1707 12.4815C32.4051 12.2471 32.7567 12.1299 33.1083 12.1299C33.5185 12.1299 33.8115 12.2471 34.1045 12.4815C34.3389 12.7159 34.4561 13.0675 34.5147 13.4777H33.5771C33.5771 13.3605 33.5185 13.2433 33.4599 13.1261C33.4013 13.0675 33.2841 13.0089 33.1669 13.0089C33.0497 13.0089 32.9911 13.0675 32.9325 13.1261C32.8739 13.1847 32.8153 13.3019 32.8153 13.4191C32.8153 13.5363 32.8739 13.6535 32.9911 13.7707C33.1083 13.8293 33.2841 13.9465 33.5185 14.0051C33.7529 14.1223 33.9287 14.1809 34.1045 14.2981C34.2803 14.4153 34.3975 14.5325 34.5147 14.7083C34.6319 14.8841 34.6905 15.1185 34.6905 15.3529C34.6905 15.5873 34.6319 15.8217 34.5147 16.0561C34.3975 16.2905 34.2803 16.4077 34.0459 16.5834C33.8701 16.7006 33.6357 16.7592 33.3427 16.7592C33.1083 16.8178 32.8739 16.8178 32.6395 16.7006Z" fill="#3fbd9a"/>
</g>
<defs>
<clipPath id="clip0_838_681">
<rect width="46" height="46" fill="white"/>
</clipPath>
</defs>
</svg>
