<svg viewBox="0 0 45 36" xmlns="http://www.w3.org/2000/svg">
<path d="m7.721 5.5404c0.03454-0.71378 0.02302-1.393 0.11512-2.0608 0.28782-1.9111 1.9802-3.3962 3.9143-3.4653 0.4951-0.023025 1.0016-0.011513 1.5082-0.011513h20.631c2.0838 0 3.7301 1.2549 4.2021 3.2235 0.0921 0.39143 0.1037 0.79437 0.1267 1.1973 0.023 0.35689 0 0.71378 0 1.1398 0.6101 0 1.1858-0.05757 1.7614 0.01151 2.1759 0.24176 3.7071 1.9341 3.7646 4.133 0.0231 0.94408 0.0116 1.8996 0 2.8436-0.0115 0.8289-0.6332 1.4506-1.416 1.4276-0.7714-0.023-1.3355-0.6332-1.3355-1.4506v-2.6709c0-1.0016-0.5526-1.5427-1.5542-1.5427h-32.892c-1.0016 0-1.5427 0.5411-1.5427 1.5542v21.805c0 1.0361 0.52958 1.5657 1.5772 1.5657h32.857c1.0246 0 1.5657-0.5526 1.5657-1.5887v-13.688c0-1.1283 1.0707-1.8075 2.0263-1.2894 0.4835 0.2648 0.7253 0.6907 0.7253 1.2318 0 4.6511 0.023 9.3022-0.0116 13.942-0.023 2.3831-1.8535 4.1445-4.2481 4.1445-10.995 0.0116-21.989 0.0116-32.984 0-2.4752 0-4.2827-1.8305-4.2827-4.2942v-21.839c0-2.4867 1.8075-4.2942 4.2942-4.3172h1.1973zm27.734-0.01151v-1.0246c0-1.2434-0.4835-1.7269-1.7153-1.7269h-21.483c-0.1382 0-0.2878-0.01151-0.426 0-0.6332 0.04605-1.1512 0.44899-1.2318 1.0707-0.0806 0.5526-0.0231 1.1052-0.0231 1.6808h24.879z" fill="currentColor"/>
<path d="m24.368 25.71c0.1842-0.1727 0.2878-0.2648 0.3914-0.3569 0.9325-0.9325 1.8766-1.8765 2.8091-2.809 0.5986-0.5872 1.4506-0.6102 2.0032-0.0691 0.5526 0.5526 0.5411 1.416-0.0461 2.0032l-5.4915 5.4915c-0.6447 0.6447-1.4506 0.6332-2.0953-0.0115-1.8075-1.796-3.6034-3.6035-5.3994-5.411-0.6217-0.6331-0.6332-1.4621-0.0461-2.0377 0.5757-0.5526 1.3815-0.5181 2.0032 0.0921 1.0131 1.0016 2.0147 2.0147 3.1199 3.1199v-0.5986c0-4.1446-0.0115-8.2891 0.0116-12.434 0-0.3684 0.1151-0.7713 0.2993-1.0821 0.2993-0.4951 0.898-0.6563 1.4391-0.4951 0.5756 0.1727 0.944 0.6217 0.9901 1.2203 0.0115 0.1727 0.0115 0.3454 0.0115 0.5181v12.261 0.5986z" fill="currentColor"/>
</svg>