<svg width="76" height="66" viewBox="0 0 76 66" fill="none" xmlns="http://www.w3.org/2000/svg">
<path d="M63.9802 58.7571H5.22317C3.2952 58.7571 1.73447 57.1963 1.73447 55.2684V4.31499C1.73447 2.38703 3.2952 0.826294 5.22317 0.826294H63.9802C65.9082 0.826294 67.4689 2.38703 67.4689 4.31499V55.2684C67.5607 57.1963 65.9082 58.7571 63.9802 58.7571Z" fill="white"/>
<path d="M63.8884 59.3997H5.13136C2.83616 59.3997 1 57.5635 1 55.2683V4.31495C1 2.01975 2.83616 0.183594 5.13136 0.183594H63.8884C66.1836 0.183594 68.1116 2.01975 68.1116 4.31495V55.2683C68.2034 56.2782 67.7443 57.3799 67.0099 58.1144C66.1836 58.9407 65.0819 59.3997 63.8884 59.3997ZM5.13136 1.4689C3.57062 1.4689 2.37712 2.75422 2.37712 4.22314V55.1765C2.37712 56.7373 3.66243 57.9308 5.13136 57.9308H63.8884C64.7147 57.9308 65.4492 57.5635 66 57.0127C66.459 56.4618 66.7345 55.8192 66.7345 55.1765V4.22314C66.7345 2.66241 65.4492 1.4689 63.8884 1.4689H5.13136Z" fill="#3fbd9a"/>
<path d="M67.5607 8.53817H1.73447V4.2232C1.73447 2.29523 3.2952 0.734497 5.22317 0.734497H63.9802C65.9082 0.734497 67.4689 2.29523 67.4689 4.2232V8.53817H67.5607Z" fill="#E2F5F0"/>
<path d="M67.5607 9.18079H1V4.13136C1 1.83616 2.83616 0 5.13136 0H63.8884C66.1836 0 68.1116 1.83616 68.1116 4.13136V8.44633H67.4689V9.18079H67.5607ZM2.37712 7.80367H66.7345V4.13136C66.7345 2.57062 65.4492 1.37712 63.8884 1.37712H5.13136C3.57062 1.37712 2.37712 2.66243 2.37712 4.13136V7.80367Z" fill="#3fbd9a"/>
<path d="M7.70197 29.9293C7.70197 29.9293 16.2401 20.4731 17.8008 20.0141C19.3616 19.555 24.87 27.3587 28.0833 29.1949C31.2966 31.031 32.3983 26.7161 33.4082 26.257C34.4181 25.798 39.6511 31.7655 39.6511 31.7655V37.6412H8.0692C8.0692 37.6412 7.97739 30.2048 7.70197 29.9293Z" fill="#C5EBE1"/>
<path d="M39.5593 37.733H7.61016C7.33474 37.733 7.15112 37.5494 7.15112 37.274V14.8729C7.15112 14.5974 7.33474 14.4138 7.61016 14.4138H39.5593C39.8347 14.4138 40.0184 14.5974 40.0184 14.8729V37.274C40.0184 37.5494 39.8347 37.733 39.5593 37.733ZM8.0692 36.8149H39.1003V15.3319H8.0692V36.8149Z" fill="#3fbd9a"/>
<path d="M9.35453 13.3121H5.77402V16.6172H9.35453V13.3121Z" fill="white"/>
<path d="M9.44633 17.0763H5.77401C5.49859 17.0763 5.31497 16.8927 5.31497 16.6173V13.3122C5.31497 13.1286 5.5904 12.8531 5.77401 12.8531H9.35452C9.62994 12.8531 9.81356 13.0368 9.81356 13.3122V16.6173C9.90537 16.8927 9.62994 17.0763 9.44633 17.0763ZM6.23305 16.1582H8.89548V13.7712H6.23305V16.1582Z" fill="#3fbd9a"/>
<path d="M41.1201 13.3121H37.5396V16.6172H41.1201V13.3121Z" fill="white"/>
<path d="M41.1201 17.0763H37.5395C37.2641 17.0763 37.0805 16.8927 37.0805 16.6173V13.3122C37.0805 13.0368 37.2641 12.8531 37.5395 12.8531H41.1201C41.3955 12.8531 41.5791 13.0368 41.5791 13.3122V16.6173C41.5791 16.8927 41.3955 17.0763 41.1201 17.0763ZM37.9986 16.1582H40.661V13.7712H37.9986V16.1582Z" fill="#3fbd9a"/>
<path d="M9.35453 35.5297H5.77402V38.8347H9.35453V35.5297Z" fill="white"/>
<path d="M9.44633 39.2937H5.77401C5.49859 39.2937 5.31497 39.1101 5.31497 38.8347V35.5296C5.31497 35.2542 5.49859 35.0706 5.77401 35.0706H9.35452C9.62994 35.0706 9.81356 35.2542 9.81356 35.5296V38.8347C9.90537 39.1101 9.62994 39.2937 9.44633 39.2937ZM6.23305 38.3756H8.89548V35.9886H6.23305V38.3756Z" fill="#3fbd9a"/>
<path d="M41.1201 35.5297H37.5396V38.8347H41.1201V35.5297Z" fill="white"/>
<path d="M41.1201 39.2937H37.5395C37.2641 39.2937 37.0805 39.1101 37.0805 38.8347V35.5296C37.0805 35.2542 37.2641 35.0706 37.5395 35.0706H41.1201C41.3955 35.0706 41.5791 35.2542 41.5791 35.5296V38.8347C41.5791 39.1101 41.3955 39.2937 41.1201 39.2937ZM37.9986 38.3756H40.661V35.9886H37.9986V38.3756Z" fill="#3fbd9a"/>
<path d="M29.5523 23.3192C30.9213 23.3192 32.0311 22.2094 32.0311 20.8404C32.0311 19.4714 30.9213 18.3616 29.5523 18.3616C28.1833 18.3616 27.0735 19.4714 27.0735 20.8404C27.0735 22.2094 28.1833 23.3192 29.5523 23.3192Z" fill="#C5EBE1"/>
<path d="M34.4181 42.1398H23.952V47.3728H34.4181V42.1398Z" fill="#C5EBE1"/>
<path d="M19.9124 42.1398H9.44632V47.3728H19.9124V42.1398Z" fill="#E2F5F0"/>
<path d="M49.291 15.8827C49.3828 15.6991 49.3828 15.5155 49.4746 15.3319C49.75 14.8728 50.1172 14.5974 50.6681 14.5974C52.596 14.5974 54.524 14.5974 56.3602 14.5974C56.6356 14.5974 56.7274 14.781 56.7274 14.9646C56.7274 15.1483 56.5438 15.3319 56.2684 15.3319C54.4322 15.3319 52.5042 15.3319 50.6681 15.3319C50.209 15.3319 49.9336 15.6073 49.9336 16.0663C49.9336 18.7288 49.9336 21.483 49.9336 24.1454C49.9336 24.6045 50.209 24.8799 50.6681 24.8799C53.4223 24.8799 56.0848 24.8799 58.839 24.8799C59.298 24.8799 59.5735 24.6045 59.5735 24.1454C59.5735 22.3093 59.5735 20.4731 59.5735 18.637C59.5735 18.5452 59.5735 18.5452 59.5735 18.4533C59.5735 18.2697 59.7571 18.0861 60.0325 18.1779C60.2161 18.1779 60.3997 18.3615 60.3997 18.5452C60.3997 18.7288 60.3997 18.8206 60.3997 19.0042C60.3997 20.7485 60.3997 22.4929 60.3997 24.2372C60.3997 25.0635 59.7571 25.6144 59.2062 25.7062C56.2684 25.7062 53.4223 25.7062 50.4845 25.7062C50.4845 25.7062 50.4845 25.7062 50.3927 25.7062C49.8418 25.6144 49.4746 25.2471 49.291 24.6963C49.291 24.6045 49.291 24.5127 49.1992 24.4209C49.291 21.6666 49.291 18.8206 49.291 15.8827Z" fill="#C5EBE1"/>
<path d="M61.1342 12.4858C61.4096 12.5776 61.5932 12.6695 61.7768 12.9449C61.9605 13.1285 62.1441 13.3121 62.3277 13.4957C62.6949 13.863 62.6949 14.4138 62.3277 14.8728C60.3997 16.8008 58.4718 18.7288 56.5438 20.6567C56.452 20.7486 56.3602 20.7486 56.1766 20.8404C55.6257 20.9322 55.0749 21.1158 54.4322 21.2076C54.1568 21.2994 53.8814 21.024 53.9732 20.7486C54.065 20.1977 54.2486 19.555 54.3404 19.0042C54.3404 18.9124 54.4322 18.8206 54.524 18.7288C56.452 16.8008 58.38 14.8728 60.3997 12.8531C60.5833 12.6695 60.767 12.6695 60.9506 12.5776C60.9506 12.4858 61.0424 12.4858 61.1342 12.4858ZM59.8489 14.322L59.7571 14.4138C58.2881 15.8827 56.911 17.2598 55.4421 18.7288C55.1667 19.0042 54.9831 19.1878 54.9831 19.555C54.9831 19.7387 54.8913 20.0141 54.8913 20.1977H54.9831C55.3503 20.1059 55.6257 20.1059 55.993 20.0141C56.0848 20.0141 56.0848 19.9223 56.1766 19.9223C57.7373 18.3615 59.2062 16.8926 60.767 15.3319L60.8588 15.2401C60.4915 14.9647 60.1243 14.6892 59.8489 14.322ZM61.3178 14.6892C61.5014 14.5056 61.5932 14.4138 61.7768 14.2302C61.8687 14.1384 61.8687 14.1384 61.7768 14.0466C61.5014 13.7712 61.3178 13.5875 61.0424 13.3121H60.8588C60.6752 13.4957 60.5833 13.5875 60.3997 13.7711C60.767 14.0466 61.0424 14.4138 61.3178 14.6892Z" fill="#C5EBE1"/>
<path d="M63.2458 29.1031H48.2811V30.4803H63.2458V29.1031Z" fill="#E2F5F0"/>
<path d="M34.6017 51.7797H9.81357V53.1568H34.6017V51.7797Z" fill="#E2F5F0"/>
<path d="M63.2458 33.3263H48.2811V34.7034H63.2458V33.3263Z" fill="#E2F5F0"/>
<path d="M61.9604 5.50842C62.5182 5.50842 62.9703 5.05628 62.9703 4.49853C62.9703 3.94079 62.5182 3.48865 61.9604 3.48865C61.4027 3.48865 60.9506 3.94079 60.9506 4.49853C60.9506 5.05628 61.4027 5.50842 61.9604 5.50842Z" fill="#3fbd9a"/>
<path d="M59.0226 5.50842C59.5803 5.50842 60.0325 5.05628 60.0325 4.49853C60.0325 3.94079 59.5803 3.48865 59.0226 3.48865C58.4648 3.48865 58.0127 3.94079 58.0127 4.49853C58.0127 5.05628 58.4648 5.50842 59.0226 5.50842Z" fill="#3fbd9a"/>
<path d="M55.993 5.50842C56.5507 5.50842 57.0028 5.05628 57.0028 4.49853C57.0028 3.94079 56.5507 3.48865 55.993 3.48865C55.4352 3.48865 54.9831 3.94079 54.9831 4.49853C54.9831 5.05628 55.4352 5.50842 55.993 5.50842Z" fill="#3fbd9a"/>
<path d="M10.6398 5.6003C9.72175 5.6003 8.80367 5.6003 7.88559 5.6003C7.24293 5.6003 6.8757 5.23306 6.8757 4.77402C6.8757 4.31499 7.33474 3.94775 7.88559 3.94775C9.72175 3.94775 11.5579 3.94775 13.4859 3.94775C14.1285 3.94775 14.4958 4.31499 14.4958 4.77402C14.4958 5.23306 14.0367 5.6003 13.4859 5.6003C12.5678 5.6003 11.5579 5.6003 10.6398 5.6003Z" fill="#3fbd9a"/>
<path d="M73.4364 64.3573H43.3234C42.3135 64.3573 41.4873 63.7147 41.4873 62.9802V43.1497C41.4873 42.4152 42.3135 41.7726 43.3234 41.7726H73.4364C74.4463 41.7726 75.2726 42.4152 75.2726 43.1497V62.9802C75.2726 63.7147 74.4463 64.3573 73.4364 64.3573Z" fill="white"/>
<path d="M73.4364 64.9999H43.3234C41.9463 64.9999 40.8446 64.0819 40.8446 62.9802V43.1497C40.8446 41.9562 41.9463 41.1299 43.3234 41.1299H73.4364C74.8136 41.1299 75.9153 42.048 75.9153 43.1497V62.9802C75.9153 63.4392 75.7316 63.8982 75.4562 64.2655C74.9972 64.7245 74.1709 64.9999 73.4364 64.9999ZM43.3234 42.4152C42.6808 42.4152 42.2218 42.7824 42.2218 43.0579V62.8884C42.2218 63.1638 42.6808 63.531 43.3234 63.531H73.4364C73.8037 63.531 74.1709 63.3474 74.4463 63.1638C74.5381 63.072 74.5381 62.9802 74.5381 62.8884V42.966C74.5381 42.6906 74.0791 42.3234 73.4364 42.3234H43.3234V42.4152Z" fill="#3fbd9a"/>
<path d="M50.0254 52.5141C51.5465 52.5141 52.7797 51.281 52.7797 49.7599C52.7797 48.2387 51.5465 47.0056 50.0254 47.0056C48.5043 47.0056 47.2712 48.2387 47.2712 49.7599C47.2712 51.281 48.5043 52.5141 50.0254 52.5141Z" fill="#E2F5F0"/>
<path d="M50.0254 52.7895C48.3729 52.7895 46.9958 51.4124 46.9958 49.7599C46.9958 48.1073 48.3729 46.7302 50.0254 46.7302C51.678 46.7302 53.0551 48.1073 53.0551 49.7599C53.1469 51.4124 51.7698 52.7895 50.0254 52.7895ZM50.0254 47.3729C48.7401 47.3729 47.6384 48.4746 47.6384 49.7599C47.6384 51.0452 48.7401 52.1469 50.0254 52.1469C51.3107 52.1469 52.4124 51.0452 52.4124 49.7599C52.4124 48.4746 51.4025 47.3729 50.0254 47.3729Z" fill="#3fbd9a"/>
<path d="M63.154 60.0423H61.5932C61.3178 60.0423 61.1342 59.8587 61.1342 59.5833V51.0452H63.5212V59.5833C63.613 59.8587 63.4294 60.0423 63.154 60.0423Z" fill="#CFEEE6"/>
<path d="M58.839 60.0424H57.2783C57.0028 60.0424 56.8192 59.9506 56.8192 59.767V54.3503H59.2062V59.767C59.2062 59.9506 59.1144 60.0424 58.839 60.0424Z" fill="#CFEEE6"/>
<path d="M67.6525 60.0424H66.0918C65.8164 60.0424 65.6328 59.8588 65.6328 59.4916V48.3828H68.0198V59.4916C68.0198 59.8588 67.928 60.0424 67.6525 60.0424Z" fill="#CFEEE6"/>
</svg>
