<svg xmlns="http://www.w3.org/2000/svg" x="0px" y="0px" viewBox="0 0 64 64">

		<rect x="22.1" y="10" style="fill:#E3E7FE;" width="29.1" height="46.1"/>
		<path style="fill:#6576FF;" d="M51.2,56.6H22.1c-0.3,0-0.5-0.2-0.5-0.5V10c0-0.3,0.2-0.5,0.5-0.5h29.1c0.3,0,0.5,0.2,0.5,0.5v46.1C51.7,56.4,51.5,56.6,51.2,56.6z M22.6,55.6h28.1V10.5H22.6V55.6z"/>
		<rect x="12.8" y="22.1" style="fill:#B3C2FF;" width="9.3" height="33.9"/>
		<path style="fill:#6576FF;" d="M22.6,56.5H12.3V21.6h10.3V56.5z M13.3,55.5h8.3V22.6h-8.3V55.5z"/>
		<rect x="51.2" y="22.1" style="fill:#B3C2FF;" width="9.3" height="33.9"/>
		<path style="fill:#6576FF;" d="M61,56.5H50.7V21.6H61V56.5z M51.7,55.5H60V22.6h-8.3V55.5z"/>
		<rect x="31.9" y="44.4" style="fill:#B3C2FF;" width="10.5" height="11.6"/>
		<path style="fill:#6576FF;" d="M42.9,56.5H31.4V43.9h11.5V56.5z M32.4,55.5h9.5V44.9h-9.5V55.5z"/>
	
		<path style="fill:#6576FF;" d="M18.7,27.3h-2.6c-0.1,0-0.3-0.1-0.3-0.3v-2.4c0-0.1,0.1-0.3,0.3-0.3h2.6c0.1,0,0.3,0.1,0.3,0.3V27C19,27.1,18.8,27.3,18.7,27.3z M16.4,26.8h2.1v-1.9h-2.1V26.8z"/>
		<path style="fill:#6576FF;" d="M18.7,33.3h-2.6c-0.1,0-0.3-0.1-0.3-0.3v-2.4c0-0.1,0.1-0.3,0.3-0.3h2.6c0.1,0,0.3,0.1,0.3,0.3V33C19,33.1,18.8,33.3,18.7,33.3z M16.4,32.8h2.1v-1.9h-2.1V32.8z"/>
		<path style="fill:#6576FF;" d="M18.7,39.2h-2.6c-0.1,0-0.3-0.1-0.3-0.3v-2.4c0-0.1,0.1-0.3,0.3-0.3h2.6c0.1,0,0.3,0.1,0.3,0.3v2.4C19,39,18.8,39.2,18.7,39.2z M16.4,38.7h2.1v-1.9h-2.1V38.7z"/>
		<path style="fill:#6576FF;" d="M18.7,45h-2.6c-0.1,0-0.3-0.1-0.3-0.3v-2.4c0-0.1,0.1-0.3,0.3-0.3h2.6c0.1,0,0.3,0.1,0.3,0.3v2.4C19,44.9,18.8,45,18.7,45z M16.4,44.5h2.1v-1.9h-2.1V44.5z"/>
		<path style="fill:#6576FF;" d="M18.7,51h-2.6c-0.1,0-0.3-0.1-0.3-0.3v-2.4c0-0.1,0.1-0.3,0.3-0.3h2.6c0.1,0,0.3,0.1,0.3,0.3v2.4C19,50.8,18.8,51,18.7,51z M16.4,50.5h2.1v-1.9h-2.1V50.5z"/>	
		<path style="fill:#6576FF;" d="M57.2,27.3h-2.6c-0.1,0-0.3-0.1-0.3-0.3v-2.4c0-0.1,0.1-0.3,0.3-0.3h2.6c0.1,0,0.3,0.1,0.3,0.3V27C57.5,27.1,57.3,27.3,57.2,27.3z M54.8,26.8H57v-1.9h-2.1V26.8z"/>		
		<path style="fill:#6576FF;" d="M57.2,33.3h-2.6c-0.1,0-0.3-0.1-0.3-0.3v-2.4c0-0.1,0.1-0.3,0.3-0.3h2.6c0.1,0,0.3,0.1,0.3,0.3V33C57.5,33.1,57.3,33.3,57.2,33.3z M54.8,32.8H57v-1.9h-2.1V32.8z"/>
		<path style="fill:#6576FF;" d="M57.2,39.2h-2.6c-0.1,0-0.3-0.1-0.3-0.3v-2.4c0-0.1,0.1-0.3,0.3-0.3h2.6c0.1,0,0.3,0.1,0.3,0.3v2.4C57.5,39,57.3,39.2,57.2,39.2z M54.8,38.7H57v-1.9h-2.1V38.7z"/>
		<path style="fill:#6576FF;" d="M57.2,45h-2.6c-0.1,0-0.3-0.1-0.3-0.3v-2.4c0-0.1,0.1-0.3,0.3-0.3h2.6c0.1,0,0.3,0.1,0.3,0.3v2.4C57.5,44.9,57.3,45,57.2,45z M54.8,44.5H57v-1.9h-2.1V44.5z"/>
		<path style="fill:#6576FF;" d="M57.2,51h-2.6c-0.1,0-0.3-0.1-0.3-0.3v-2.4c0-0.1,0.1-0.3,0.3-0.3h2.6c0.1,0,0.3,0.1,0.3,0.3v2.4C57.5,50.8,57.3,51,57.2,51z M54.8,50.5H57v-1.9h-2.1V50.5z"/>
		<path style="fill:#6576FF;" d="M34,21.5h-5.4c-0.3,0-0.5-0.2-0.5-0.5v-5c0-0.3,0.2-0.5,0.5-0.5H34c0.3,0,0.5,0.2,0.5,0.5v5C34.5,21.3,34.3,21.5,34,21.5z M29.1,20.5h4.4v-4h-4.4V20.5z"/>
		<path style="fill:#6576FF;" d="M34,31.4h-5.4c-0.3,0-0.5-0.2-0.5-0.5v-5c0-0.3,0.2-0.5,0.5-0.5H34c0.3,0,0.5,0.2,0.5,0.5v5C34.5,31.2,34.3,31.4,34,31.4z M29.1,30.4h4.4v-4h-4.4V30.4z"/>
		<path style="fill:#6576FF;" d="M34,41.2h-5.4c-0.3,0-0.5-0.2-0.5-0.5v-5c0-0.3,0.2-0.5,0.5-0.5H34c0.3,0,0.5,0.2,0.5,0.5v5C34.5,41,34.3,41.2,34,41.2z M29.1,40.2h4.4v-4h-4.4V40.2z"/>
		<path style="fill:#6576FF;" d="M45.3,21.5h-5.4c-0.3,0-0.5-0.2-0.5-0.5v-5c0-0.3,0.2-0.5,0.5-0.5h5.4c0.3,0,0.5,0.2,0.5,0.5v5C45.8,21.3,45.6,21.5,45.3,21.5z M40.4,20.5h4.4v-4h-4.4V20.5z"/>
		<path style="fill:#6576FF;" d="M45.3,31.4h-5.4c-0.3,0-0.5-0.2-0.5-0.5v-5c0-0.3,0.2-0.5,0.5-0.5h5.4c0.3,0,0.5,0.2,0.5,0.5v5C45.8,31.2,45.6,31.4,45.3,31.4z M40.4,30.4h4.4v-4h-4.4V30.4z"/>
		<path style="fill:#6576FF;" d="M45.3,41.2h-5.4c-0.3,0-0.5-0.2-0.5-0.5v-5c0-0.3,0.2-0.5,0.5-0.5h5.4c0.3,0,0.5,0.2,0.5,0.5v5C45.8,41,45.6,41.2,45.3,41.2z M40.4,40.2h4.4v-4h-4.4V40.2z"/>
		<path style="fill:#B3C2FF;" d="M43.9,10H30.5V5c0-0.6,0.4-1,1-1h11.4c0.6,0,1,0.4,1,1V10z"/>
		<path style="fill:#6576FF;" d="M43.9,10.5H30.5c-0.3,0-0.5-0.2-0.5-0.5V5c0-0.9,0.6-1.5,1.5-1.5h11.4c0.9,0,1.5,0.6,1.5,1.5v5C44.4,10.3,44.2,10.5,43.9,10.5z M31,9.5h12.4V5c0-0.3-0.2-0.5-0.5-0.5H31.5C31.2,4.5,31,4.7,31,5V9.5z"/>
	
		<circle style="fill:#E3E7FE;" cx="12.4" cy="51" r="8.9"/>
		<path style="fill:#6576FF;" d="M12.4,60.4C7.2,60.4,3,56.2,3,51s4.2-9.4,9.4-9.4s9.4,4.2,9.4,9.4S17.6,60.4,12.4,60.4z M12.4,42.6C7.8,42.6,4,46.4,4,51s3.8,8.4,8.4,8.4s8.4-3.8,8.4-8.4S17,42.6,12.4,42.6z"/>
	
		<circle style="fill:#6576FF;" cx="10.9" cy="56.3" r="0.7"/>
		<circle style="fill:#6576FF;" cx="14.3" cy="56.3" r="0.7"/>
		<path style="fill:#6576FF;" d="M11.5,55.3c-1.6,0-1.6-0.1-1.7-0.3c-0.3-0.9-0.6-2.1-0.9-3.4c-0.3-1.4-0.8-3.4-1-3.9H6.4c-0.2,0-0.4-0.2-0.4-0.4s0.2-0.4,0.4-0.4h1.8L8.3,47c0.3,0.2,0.4,0.6,1.3,4.4c0.3,1.1,0.5,2.3,0.8,3.1c0.4,0,1.5,0,4.5-0.1c0.2,0,0.4,0,0.4,0c0.2,0,0.4,0.2,0.4,0.4c0,0.2-0.2,0.4-0.4,0.4c0,0-0.2,0-0.4,0C13.3,55.2,12.2,55.3,11.5,55.3z"/>
		<path style="fill:#6576FF;" d="M13.6,53.4c-1.4,0-3.3,0-4,0c-0.2,0-0.4-0.2-0.4-0.4c0-0.2,0.2-0.4,0.4-0.4c1.9,0,5.1,0.1,5.6,0c0.3-0.4,0.8-2.2,1.1-3.8c0-0.2,0.2-0.3,0.4-0.3c0.2,0,0.3,0.2,0.3,0.4c-0.8,4.2-1.4,4.3-1.6,4.4C15.3,53.4,14.6,53.4,13.6,53.4z M15.2,52.7L15.2,52.7L15.2,52.7z"/>
		<path style="fill:#6576FF;" d="M12.7,51.2c-1.1,0-2.1-0.9-2.1-2.1c0-1.1,0.9-2,2.1-2s2,0.9,2,2C14.8,50.2,13.8,51.2,12.7,51.2z M12.7,47.5c-0.9,0-1.6,0.7-1.6,1.5c0,0.9,0.7,1.6,1.6,1.6c0.9,0,1.5-0.7,1.5-1.6C14.3,48.2,13.6,47.5,12.7,47.5z"/>
		<path style="fill:#6576FF;" d="M13.3,49.8c0,0.1-0.1,0.1-0.2,0.2c0,0-0.1,0-0.2,0v0.2h-0.2V50c-0.2,0-0.3-0.1-0.4-0.1
			c-0.1-0.1-0.1-0.2-0.1-0.3h0.3c0,0.1,0,0.1,0.1,0.2c0,0,0.1,0.1,0.2,0.1v-0.5c-0.1,0-0.2-0.1-0.3-0.1s-0.1-0.1-0.2-0.1
			c0-0.1-0.1-0.1-0.1-0.2c0-0.1,0-0.2,0.1-0.3s0.2-0.1,0.4-0.2v-0.2h0.2v0.2c0.1,0,0.3,0.1,0.3,0.1c0.1,0.1,0.1,0.2,0.1,0.3H13
			c0,0,0-0.1-0.1-0.1l-0.1-0.1v0.5c0.1,0,0.2,0.1,0.3,0.1s0.1,0.1,0.2,0.1c0,0.1,0.1,0.1,0.1,0.2C13.4,49.6,13.4,49.7,13.3,49.8z
			M12.6,48.9c0,0,0.1,0.1,0.2,0.1v-0.5c-0.1,0-0.1,0-0.2,0.1c0,0-0.1,0.1-0.1,0.2S12.5,48.9,12.6,48.9z M13.1,49.7
			c0,0,0.1-0.1,0.1-0.2c0-0.1,0-0.1-0.1-0.2c0,0-0.1-0.1-0.2-0.1v0.5C13,49.8,13,49.8,13.1,49.7z"/>
		<rect x="36.6" y="44.8" transform="matrix(1 -9.227344e-03 9.227344e-03 1 -0.4621 0.3449)" style="fill:#6576FF;" width="1" height="10.9"/>
</svg>
