<svg xmlns="http://www.w3.org/2000/svg" x="0px" y="0px" viewBox="0 0 64 64">

		<rect x="17.6" y="4.6" style="fill:#B3C2FF;" width="19.3" height="50.6"/>
		<path style="fill:#6576FF;" d="M37.4,55.7H17.1V4.1h20.3V55.7z M18.1,54.7h18.3V5.1H18.1V54.7z"/>
		<polygon style="fill:#E3E7FE;" points="48.4,55.2 29.8,55.2 29.8,15 40.5,15 40.6,15 48.4,20.4 		"/>
		<path style="fill:#6576FF;" d="M48.4,55.7H29.8c-0.3,0-0.5-0.2-0.5-0.5V15c0-0.3,0.2-0.5,0.5-0.5h10.7c0.1,0,0.3,0,0.4,0.1l7.8,5.4
			c0.1,0.1,0.2,0.2,0.2,0.4v34.8C48.9,55.5,48.7,55.7,48.4,55.7z M30.3,54.7h17.6v-34l-7.5-5.2H30.3V54.7z"/>
			<rect x="29.8" y="6.9" style="fill:#E3E7FE;" width="3" height="1"/>
			<rect x="30" y="9.6" style="fill:#E3E7FE;" width="3" height="1"/>
			<rect x="29.8" y="12.3" style="fill:#E3E7FE;" width="3" height="1"/>
			<rect x="21.5" y="6.9" style="fill:#E3E7FE;" width="3" height="1"/>
			<rect x="21.6" y="9.6" style="fill:#E3E7FE;" width="3" height="1"/>
			<rect x="26.4" y="6.9" style="fill:#E3E7FE;" width="1.7" height="1"/>
			<rect x="26.5" y="9.6" style="fill:#E3E7FE;" width="1.7" height="1"/>
			<rect x="26.4" y="12.3" style="fill:#E3E7FE;" width="1.7" height="1"/>
			<rect x="26.4" y="15" style="fill:#E3E7FE;" width="1.7" height="1"/>
			<rect x="26.5" y="17.7" style="fill:#E3E7FE;" width="1.7" height="1"/>
			<rect x="26.4" y="20.4" style="fill:#E3E7FE;" width="1.7" height="1"/>
			<rect x="26.4" y="22.6" style="fill:#E3E7FE;" width="1.7" height="1"/>
			<rect x="26.5" y="25.3" style="fill:#E3E7FE;" width="1.7" height="1"/>
			<rect x="26.4" y="28" style="fill:#E3E7FE;" width="1.7" height="1"/>
		<rect x="20.6" y="12.3" style="fill:#E3E7FE;" width="3" height="1"/>
			<path style="fill:#B3C2FF;" d="M37.1,24.8h-2.8c-0.3,0-0.5-0.2-0.5-0.5v-4.9c0-0.3,0.2-0.5,0.5-0.5h2.8c0.3,0,0.5,0.2,0.5,0.5v4.9
				C37.6,24.5,37.4,24.8,37.1,24.8z"/>
			<path style="fill:#6576FF;" d="M37.1,25h-2.8c-0.4,0-0.8-0.3-0.8-0.8v-4.9c0-0.4,0.3-0.8,0.8-0.8h2.8c0.4,0,0.8,0.3,0.8,0.8v4.9
				C37.8,24.7,37.5,25,37.1,25z M34.3,19.1c-0.2,0-0.3,0.1-0.3,0.3v4.9c0,0.2,0.1,0.3,0.3,0.3h2.8c0.2,0,0.3-0.2,0.3-0.3v-4.9
				c0-0.2-0.1-0.3-0.3-0.3H34.3z"/>
			<path style="fill:#B3C2FF;" d="M44,24.8h-2.8c-0.3,0-0.5-0.2-0.5-0.5v-4.9c0-0.3,0.2-0.5,0.5-0.5H44c0.3,0,0.5,0.2,0.5,0.5v4.9
				C44.5,24.5,44.2,24.8,44,24.8z"/>
			<path style="fill:#6576FF;" d="M44,25h-2.8c-0.4,0-0.8-0.3-0.8-0.8v-4.9c0-0.4,0.3-0.8,0.8-0.8H44c0.4,0,0.8,0.3,0.8,0.8v4.9
				C44.8,24.6,44.3,25,44,25z M41.2,19.1c-0.2,0-0.3,0.1-0.3,0.3v4.9c0,0.2,0.1,0.3,0.3,0.3H44c0.1,0,0.2-0.2,0.3-0.3v-4.9
				c0-0.2-0.1-0.3-0.3-0.3H41.2z"/>
			<path style="fill:#B3C2FF;" d="M37.1,33.8h-2.8c-0.3,0-0.5-0.2-0.5-0.5v-4.9c0-0.3,0.2-0.5,0.5-0.5h2.8c0.3,0,0.5,0.2,0.5,0.5v4.9
				C37.6,33.6,37.4,33.8,37.1,33.8z"/>
			<path style="fill:#6576FF;" d="M37.1,34h-2.8c-0.4,0-0.8-0.3-0.8-0.8v-4.9c0-0.4,0.3-0.8,0.8-0.8h2.8c0.4,0,0.8,0.3,0.8,0.8v4.9
				C37.8,33.7,37.5,34,37.1,34z M34.3,28.1c-0.2,0-0.3,0.1-0.3,0.3v4.9c0,0.2,0.1,0.3,0.3,0.3h2.8c0.2,0,0.3-0.1,0.3-0.3v-4.9
				c0-0.2-0.1-0.3-0.3-0.3H34.3z"/>
			<path style="fill:#B3C2FF;" d="M44,33.8h-2.8c-0.3,0-0.5-0.2-0.5-0.5v-4.9c0-0.3,0.2-0.5,0.5-0.5H44c0.3,0,0.5,0.2,0.5,0.5v4.9
				C44.5,33.6,44.2,33.8,44,33.8z"/>
			<path style="fill:#6576FF;" d="M44,34h-2.8c-0.4,0-0.8-0.3-0.8-0.8v-4.9c0-0.4,0.3-0.8,0.8-0.8H44c0.4,0,0.8,0.3,0.8,0.8v4.9
				C44.8,33.7,44.4,34,44,34z M41.2,28.1c-0.2,0-0.3,0.1-0.3,0.3v4.9c0,0.2,0.1,0.3,0.3,0.3H44c0.1,0,0.3-0.1,0.3-0.3v-4.9
				c0-0.2-0.1-0.3-0.3-0.3H41.2z"/>
			<path style="fill:#B3C2FF;" d="M37.1,42.8h-2.8c-0.3,0-0.5-0.2-0.5-0.5v-4.9c0-0.3,0.2-0.5,0.5-0.5h2.8c0.3,0,0.5,0.2,0.5,0.5v4.9
				C37.6,42.6,37.4,42.8,37.1,42.8z"/>
			<path style="fill:#6576FF;" d="M37.1,43h-2.8c-0.4,0-0.8-0.3-0.8-0.8v-4.9c0-0.4,0.3-0.8,0.8-0.8h2.8c0.4,0,0.8,0.3,0.8,0.8v4.9
				C37.8,42.7,37.5,43,37.1,43z M34.3,37.2c-0.2,0-0.3,0.1-0.3,0.3v4.9c0,0.2,0.1,0.3,0.3,0.3h2.8c0.2,0,0.3-0.1,0.3-0.3v-4.9
				c0-0.2-0.1-0.3-0.3-0.3H34.3z"/>
			<path style="fill:#B3C2FF;" d="M44,42.8h-2.8c-0.3,0-0.5-0.2-0.5-0.5v-4.9c0-0.3,0.2-0.5,0.5-0.5H44c0.3,0,0.5,0.2,0.5,0.5v4.9
				C44.5,42.6,44.2,42.8,44,42.8z"/>
			<path style="fill:#6576FF;" d="M44,43h-2.8c-0.4,0-0.8-0.3-0.8-0.8v-4.9c0-0.4,0.3-0.8,0.8-0.8H44c0.4,0,0.8,0.3,0.8,0.8v4.9
				C44.8,42.7,44.4,43,44,43z M41.2,37.2c-0.2,0-0.3,0.1-0.3,0.3v4.9c0,0.2,0.1,0.3,0.3,0.3H44c0.1,0,0.3-0.1,0.3-0.3v-4.9
				c0-0.2-0.1-0.3-0.3-0.3H41.2z"/>
			<path style="fill:#B3C2FF;" d="M37.1,51.8h-2.8c-0.3,0-0.5-0.2-0.5-0.5v-4.9c0-0.3,0.2-0.5,0.5-0.5h2.8c0.3,0,0.5,0.2,0.5,0.5v4.9
				C37.6,51.6,37.4,51.8,37.1,51.8z"/>
			<path style="fill:#6576FF;" d="M37.1,52h-2.8c-0.4,0-0.8-0.3-0.8-0.8v-4.9c0-0.4,0.3-0.8,0.8-0.8h2.8c0.4,0,0.8,0.3,0.8,0.8v4.9
				C37.8,51.7,37.5,52,37.1,52z M34.3,46.2c-0.2,0-0.3,0.1-0.3,0.3v4.9c0,0.2,0.1,0.3,0.3,0.3h2.8c0.2,0,0.3-0.1,0.3-0.3v-4.9
				c0-0.2-0.1-0.3-0.3-0.3H34.3z"/>
			<path style="fill:#B3C2FF;" d="M44,51.8h-2.8c-0.3,0-0.5-0.2-0.5-0.5v-4.9c0-0.3,0.2-0.5,0.5-0.5H44c0.3,0,0.5,0.2,0.5,0.5v4.9
				C44.5,51.6,44.2,51.8,44,51.8z"/>
			<path style="fill:#6576FF;" d="M44,52h-2.8c-0.4,0-0.8-0.3-0.8-0.8v-4.9c0-0.4,0.3-0.8,0.8-0.8H44c0.4,0,0.8,0.3,0.8,0.8v4.9
				C44.8,51.7,44.4,52,44,52z M41.2,46.2c-0.2,0-0.3,0.1-0.3,0.3v4.9c0,0.2,0.1,0.3,0.3,0.3H44c0.1,0,0.3-0.1,0.3-0.3v-4.9
				c0-0.2-0.1-0.3-0.3-0.3H41.2z"/>
		<path style="fill:#E3E7FE;" d="M58.4,59.4H26.2c-0.6,0-1-0.4-1-1V38.1c0-0.6,0.4-1,1-1h32.2c0.6,0,1,0.4,1,1v20.3
			C59.4,58.9,58.9,59.4,58.4,59.4z"/>
		<path style="fill:#6576FF;" d="M58.4,59.9H26.2c-0.9,0-1.5-0.6-1.5-1.5V38.1c0-0.9,0.6-1.5,1.5-1.5h32.2c0.9,0,1.5,0.6,1.5,1.5v20.3
			C59.9,59.2,59.2,59.9,58.4,59.9z M26.2,37.6c-0.3,0-0.5,0.2-0.5,0.5v20.3c0,0.3,0.2,0.5,0.5,0.5h32.2c0.2,0,0.5-0.3,0.5-0.5V38.1
			c0-0.3-0.2-0.5-0.5-0.5H26.2z"/>
		<rect x="25.3" y="41.3" style="fill:#E3E7FE;" width="33.8" height="3.6"/>
		<path style="fill:#6576FF;" d="M59.3,45.2H25V41h34.3V45.2z M25.5,44.7h33.3v-3.1H25.5V44.7z"/>
		<path style="fill:#B3C2FF;" d="M43.3,52.3c0,2.2-1.7,4-3.9,4c-1.1,0-2.2-0.5-2.9-1.3c-0.6-0.7-1-1.6-1-2.7c0-1,0.4-2,1-2.7
			c0.7-0.8,1.7-1.3,2.9-1.3C41.6,48.2,43.3,50,43.3,52.3z"/>
		<path style="fill:#6576FF;" d="M39.4,56.8c-1.2,0-2.5-0.5-3.3-1.5c-0.7-0.9-1.1-1.9-1.1-3c0-1.1,0.4-2.2,1.1-3c0.8-1,2-1.5,3.3-1.5
			c1.1,0,2.2,0.4,3,1.1c0.9,0.8,1.4,2.1,1.4,3.4C43.8,54.8,41.9,56.8,39.4,56.8z M39.6,48.8c0,0-0.1,0-0.1,0c-1,0-1.9,0.4-2.5,1.1
			c-0.5,0.6-0.9,1.5-0.9,2.4c0,0.9,0.3,1.7,0.9,2.4c0.6,0.7,1.6,1.1,2.5,1.1c1.9,0,3.4-1.5,3.4-3.5c0-1-0.4-2-1.1-2.6
			C41.1,49.1,40.4,48.8,39.6,48.8z"/>
		<path style="fill:#B3C2FF;" d="M35.6,52.3c0,1,0.4,2,1,2.7c-0.7,0.8-1.7,1.3-2.9,1.3c-2.1,0-3.9-1.8-3.9-4s1.7-4,3.9-4
			c1.1,0,2.2,0.5,2.9,1.3C36,50.3,35.6,51.2,35.6,52.3z"/>
		<path style="fill:#6576FF;" d="M33.7,56.8c-2.4,0-4.4-2.1-4.4-4.5c0-2.5,1.9-4.5,4.4-4.5c1.2,0,2.5,0.6,3.3,1.5l0.3,0.3L37,49.9
			c-0.6,0.7-0.9,1.5-0.9,2.4c0,0.8,0.3,1.7,0.9,2.4l0.3,0.3L37,55.3C36.1,56.3,35,56.8,33.7,56.8z M33.7,48.8
			c-1.9,0-3.4,1.5-3.4,3.5c0,1.9,1.6,3.5,3.4,3.5c0.9,0,1.6-0.3,2.2-0.8c-0.5-0.8-0.8-1.7-0.8-2.7c0-1,0.3-1.9,0.8-2.7
			C35.3,49.1,34.5,48.8,33.7,48.8z"/>
		<polygon style="fill:#E3E7FE;" points="23.2,55.2 4.6,55.2 4.6,10.9 13.3,7.5 13.5,7.5 23.2,10.9 		"/>
		<path style="fill:#6576FF;" d="M23.2,55.7H4.6c-0.3,0-0.5-0.2-0.5-0.5V10.9c0-0.2,0.1-0.4,0.3-0.5L13.1,7c0.1,0,0.1,0,0.2,0h0.2
			c0.1,0,0.1,0,0.2,0l9.7,3.4c0.2,0.1,0.3,0.3,0.3,0.5v44.3C23.7,55.5,23.5,55.7,23.2,55.7z M5.1,54.7h17.6V11.3L13.4,8l-8.3,3.2
			V54.7z"/>
			<path style="fill:#B3C2FF;" d="M11.8,22.4H9c-0.3,0-0.5-0.2-0.5-0.5v-5.5c0-0.3,0.2-0.5,0.5-0.5h2.8c0.3,0,0.5,0.2,0.5,0.5v5.5
				C12.3,22.1,12.1,22.4,11.8,22.4z"/>
			<path style="fill:#6576FF;" d="M11.8,22.6H9c-0.4,0-0.8-0.3-0.8-0.8v-5.5c0-0.4,0.3-0.8,0.8-0.8h2.8c0.4,0,0.8,0.3,0.8,0.8v5.5
				C12.5,22.3,12.2,22.6,11.8,22.6z M9,16.1c-0.2,0-0.3,0.1-0.3,0.3v5.5c0,0.2,0.1,0.3,0.3,0.3h2.8c0.2,0,0.3-0.2,0.3-0.3v-5.5
				c0-0.2-0.1-0.3-0.3-0.3H9z"/>
			<path style="fill:#B3C2FF;" d="M18.7,22.4h-2.8c-0.3,0-0.5-0.2-0.5-0.5v-5.5c0-0.3,0.2-0.5,0.5-0.5h2.8c0.3,0,0.5,0.2,0.5,0.5v5.5
				C19.2,22.1,19,22.4,18.7,22.4z"/>
			<path style="fill:#6576FF;" d="M18.7,22.6h-2.8c-0.4,0-0.8-0.3-0.8-0.8v-5.5c0-0.4,0.3-0.8,0.8-0.8h2.8c0.4,0,0.8,0.3,0.8,0.8v5.5
				C19.5,22.3,19.1,22.6,18.7,22.6z M15.9,16.1c-0.2,0-0.3,0.1-0.3,0.3v5.5c0,0.2,0.1,0.3,0.3,0.3h2.8c0.2,0,0.3-0.2,0.3-0.3v-5.5
				c0-0.2-0.1-0.3-0.3-0.3H15.9z"/>
			<path style="fill:#B3C2FF;" d="M11.8,32.2H9c-0.3,0-0.5-0.2-0.5-0.5v-5.5c0-0.3,0.2-0.5,0.5-0.5h2.8c0.3,0,0.5,0.2,0.5,0.5v5.5
				C12.3,31.9,12.1,32.2,11.8,32.2z"/>
			<path style="fill:#6576FF;" d="M11.8,32.5H9c-0.4,0-0.8-0.3-0.8-0.8v-5.5c0-0.4,0.3-0.8,0.8-0.8h2.8c0.4,0,0.8,0.3,0.8,0.8v5.5
				C12.5,32,12.3,32.5,11.8,32.5z M9,26c-0.2,0-0.3,0.1-0.3,0.3v5.5C8.8,31.9,8.8,32,9,32h2.8c0.2,0,0.3-0.2,0.3-0.3v-5.5
				C12,26,12,26,11.8,26H9z"/>
			<path style="fill:#B3C2FF;" d="M18.7,32.2h-2.8c-0.3,0-0.5-0.2-0.5-0.5v-5.5c0-0.3,0.2-0.5,0.5-0.5h2.8c0.3,0,0.5,0.2,0.5,0.5v5.5
				C19.2,31.9,19,32.2,18.7,32.2z"/>
			<path style="fill:#6576FF;" d="M18.7,32.5h-2.8c-0.4,0-0.8-0.3-0.8-0.8v-5.5c0-0.4,0.3-0.8,0.8-0.8h2.8c0.4,0,0.8,0.3,0.8,0.8v5.5
				C19.5,32.1,19.1,32.5,18.7,32.5z M15.9,26c-0.2,0-0.3,0.1-0.3,0.3v5.5c0,0.2,0.1,0.3,0.3,0.3h2.8c0.2,0,0.3-0.2,0.3-0.3v-5.5
				c0-0.2-0.1-0.3-0.3-0.3H15.9z"/>
			<path style="fill:#B3C2FF;" d="M11.8,42H9c-0.3,0-0.5-0.2-0.5-0.5V36c0-0.3,0.2-0.5,0.5-0.5h2.8c0.3,0,0.5,0.2,0.5,0.5v5.5
				C12.3,41.7,12.1,42,11.8,42z"/>
			<path style="fill:#6576FF;" d="M11.8,42.3H9c-0.4,0-0.8-0.3-0.8-0.8V36c0-0.4,0.3-0.8,0.8-0.8h2.8c0.4,0,0.8,0.3,0.8,0.8v5.5
				C12.5,41.9,12.2,42.3,11.8,42.3z M9,35.8c-0.2,0-0.3,0.1-0.3,0.3v5.5c0,0.2,0.1,0.3,0.3,0.3h2.8c0.2,0,0.3-0.2,0.3-0.3V36
				c0-0.2-0.1-0.3-0.3-0.3H9z"/>
			<path style="fill:#B3C2FF;" d="M18.7,42h-2.8c-0.3,0-0.5-0.2-0.5-0.5V36c0-0.3,0.2-0.5,0.5-0.5h2.8c0.3,0,0.5,0.2,0.5,0.5v5.5
				C19.2,41.7,19,42,18.7,42z"/>
			<path style="fill:#6576FF;" d="M18.7,42.3h-2.8c-0.4,0-0.8-0.3-0.8-0.8V36c0-0.4,0.3-0.8,0.8-0.8h2.8c0.4,0,0.8,0.3,0.8,0.8v5.5
				C19.5,41.9,19.1,42.3,18.7,42.3z M15.9,35.8c-0.2,0-0.3,0.1-0.3,0.3v5.5c0,0.2,0.1,0.3,0.3,0.3h2.8c0.2,0,0.3-0.2,0.3-0.3V36
				c0-0.2-0.1-0.3-0.3-0.3H15.9z"/>
			<path style="fill:#B3C2FF;" d="M11.8,51.8H9c-0.3,0-0.5-0.2-0.5-0.5v-5.5c0-0.3,0.2-0.5,0.5-0.5h2.8c0.3,0,0.5,0.2,0.5,0.5v5.5
				C12.3,51.5,12.1,51.8,11.8,51.8z"/>
			<path style="fill:#6576FF;" d="M11.8,52H9c-0.4,0-0.8-0.3-0.8-0.8v-5.5C8.3,45.4,8.6,45,9,45h2.8c0.4,0,0.8,0.3,0.8,0.8v5.5
				C12.5,51.7,12.2,52,11.8,52z M9,45.5c-0.2,0-0.3,0.1-0.3,0.3v5.5c0,0.2,0.1,0.3,0.3,0.3h2.8c0.2,0,0.3-0.2,0.3-0.3v-5.5
				c0-0.2-0.1-0.3-0.3-0.3H9z"/>
			<path style="fill:#B3C2FF;" d="M18.7,51.8h-2.8c-0.3,0-0.5-0.2-0.5-0.5v-5.5c0-0.3,0.2-0.5,0.5-0.5h2.8c0.3,0,0.5,0.2,0.5,0.5v5.5
				C19.2,51.5,19,51.8,18.7,51.8z"/>
			<path style="fill:#6576FF;" d="M18.7,52h-2.8c-0.4,0-0.8-0.3-0.8-0.8v-5.5c0-0.4,0.3-0.8,0.8-0.8h2.8c0.4,0,0.8,0.3,0.8,0.8v5.5
				C19.5,51.7,19.1,52,18.7,52z M15.9,45.5c-0.2,0-0.3,0.1-0.3,0.3v5.5c0,0.2,0.1,0.3,0.3,0.3h2.8c0.2,0,0.3-0.2,0.3-0.3v-5.5
				c0-0.2-0.1-0.3-0.3-0.3H15.9z"/>
		<ellipse style="fill:#B3C2FF;" cx="13.7" cy="12.3" rx="1.7" ry="1.8"/>
		<path style="fill:#6576FF;" d="M13.7,14.4c-1.1,0-2-0.9-2-2.1s0.9-2,2-2s1.9,0.9,1.9,2S14.8,14.4,13.7,14.4z M13.7,10.8
			c-0.8,0-1.5,0.7-1.5,1.5c0,0.9,0.7,1.6,1.5,1.6c0.8,0,1.4-0.7,1.4-1.6C15.1,11.4,14.5,10.8,13.7,10.8z"/>
		<rect x="52" y="54.4" style="fill:#E3E7FE;" width="4.6" height="1.9"/>
		<path style="fill:#6576FF;" d="M56.8,56.5h-5.1v-2.4h5.1V56.5z M52.3,56h4.1v-1.4h-4.1V56z"/>
</svg>
