<svg xmlns="http://www.w3.org/2000/svg" x="0px" y="0px" viewBox="0 0 64 64">

	<rect x="32.8" y="45.8" style="fill:#E3E7FE;" width="15" height="14.6"/>
	<path style="fill:#6576FF;" d="M47.8,60.9h-15c-0.3,0-0.5-0.2-0.5-0.5V45.8c0-0.3,0.2-0.5,0.5-0.5h15c0.3,0,0.5,0.2,0.5,0.5v14.6
		C48.3,60.7,48.1,60.9,47.8,60.9z M33.3,59.9h14V46.3h-14V59.9z"/>
	<rect x="14.1" y="3.6" style="fill:#B3C2FF;" width="5.2" height="8.4"/>
	<path style="fill:#6576FF;" d="M19.8,12.5h-6.2V3.1h6.2V12.5z M14.6,11.5h4.2V4.1h-4.2V11.5z"/>
	<polygon style="fill:#B3C2FF;" points="14.4,16.9 19.3,17.8 19.3,50.7 14.1,50.7 14.1,15.8 14.7,15.8 	"/>
	<path style="fill:#6576FF;" d="M19.8,51.2h-6.2V15.3h1.8L15,16.5l4.8,0.9V51.2z M14.6,50.2h4.2v-32l-4.2-0.8V50.2z"/>
	<path style="fill:#E3E7FE;" d="M22.5,56.8H10.9v-5.1c0-0.6,0.4-1,1-1h9.6c0.6,0,1,0.4,1,1V56.8z"/>
	<path style="fill:#6576FF;" d="M22.5,57.3H10.9c-0.3,0-0.5-0.2-0.5-0.5v-5.1c0-0.9,0.6-1.5,1.5-1.5h9.6c0.9,0,1.5,0.6,1.5,1.5v5.1
		C23,57.1,22.8,57.3,22.5,57.3z M11.4,56.3H22v-4.6c0-0.3-0.2-0.5-0.5-0.5h-9.6c-0.3,0-0.5,0.2-0.5,0.5V56.3z"/>
	<rect x="7.7" y="56.8" style="fill:#B3C2FF;" width="17.9" height="3.4"/>
	<path style="fill:#6576FF;" d="M26.1,60.7H7.2v-4.4h18.9V60.7z M8.2,59.7h16.9v-2.4H8.2V59.7z"/>
	<rect x="4" y="11.4" style="fill:#6576FF;" width="0.1" height="1"/>
	<polygon style="fill:#6576FF;" points="58.8,12.4 58.7,12.4 58.7,11.4 	"/>
	<path style="fill:#6576FF;" d="M14.1,12.4H4c-0.2,0-0.4-0.1-0.5-0.3c-0.1-0.2,0-0.4,0.2-0.6l10.1-8.1c0.2-0.1,0.4-0.1,0.5-0.1
		c0.2,0.1,0.3,0.3,0.3,0.5v8.1C14.6,12.2,14.4,12.4,14.1,12.4z M5.4,11.4h8.2V4.8L5.4,11.4z"/>
	<polygon style="fill:#B3C2FF;" points="14.1,11.9 14.1,15.8 4,15.8 4,11.9 4.1,11.9 	"/>
	<path style="fill:#6576FF;" d="M14.6,16.3H3.5v-4.9h11.1V16.3z M4.5,15.3h9.1v-2.9H4.5V15.3z"/>
	<polygon style="fill:#B3C2FF;" points="19.3,15.8 19.3,17.8 14.4,16.9 14.7,15.8 	"/>
	<path style="fill:#6576FF;" d="M19.8,18.4l-6-1.1l0.5-2h5.5V18.4z M15,16.5l3.8,0.7v-0.9h-3.7L15,16.5z"/>
	<rect x="14.1" y="11.9" style="fill:#B3C2FF;" width="5.2" height="4"/>
	<path style="fill:#6576FF;" d="M19.8,16.4h-6.2v-5h6.2V16.4z M14.6,15.4h4.2v-3h-4.2V15.4z"/>
	<path style="fill:#6576FF;" d="M19.8,12.4h-6.2V3.3h5.2l1,0.2V12.4z M14.6,11.4h4.2V4.3l-0.1,0l-4.1,0V11.4z"/>
	<path style="fill:#B3C2FF;" d="M59.8,11.9v4H19.3v-4h39.4h0.1l0,0H59.8z"/>
	<path style="fill:#6576FF;" d="M60.3,16.4H18.8v-5h41.5V16.4z M19.8,15.4h39.5v-3H19.8V15.4z"/>
	<path style="fill:#6576FF;" d="M59.8,12.4H19.3c-0.3,0-0.5-0.2-0.5-0.5v-8c0-0.1,0.1-0.3,0.2-0.4c0.1-0.1,0.3-0.1,0.4-0.1l40.5,8
		c0.3,0,0.4,0.3,0.4,0.5C60.3,12.2,60.1,12.4,59.8,12.4z M19.8,11.4h34.9L19.8,4.5V11.4z"/>
	<polygon style="fill:#6576FF;" points="58.8,12.4 58.7,12.4 58.7,11.4 	"/>
	<path style="fill:#E3E7FE;" d="M59.8,15.8v0.1c0,2.1-0.8,4-2,5.5C56.4,23,54.3,24,52.1,24c-4.3,0-7.7-3.6-7.7-8.1v-0.1
		C44.4,15.8,59.8,15.8,59.8,15.8z"/>
	<path style="fill:#6576FF;" d="M52.1,24.5c-4.6,0-8.2-3.8-8.2-8.6v-0.1c0-0.3,0.2-0.5,0.5-0.5h15.4c0.3,0,0.5,0.2,0.5,0.5v0.1
		c0,2.1-0.7,4.1-2.1,5.8C56.7,23.5,54.4,24.5,52.1,24.5z M44.9,16.3c0.2,4.1,3.3,7.2,7.2,7.2c2,0,4-0.9,5.3-2.4
		c0.8-1,1.8-2.6,1.9-4.8H44.9z"/>
	<rect x="42.9" y="15.9" style="fill:#6576FF;" width="1" height="16.8"/>
	<path style="fill:#6576FF;" d="M48.3,60.9h-16V45.3h16V60.9z M33.3,59.9h14V46.3h-14V59.9z"/>
	<path style="fill:#6576FF;" d="M55.9,56.5h-4.5v-4.6h4.5V56.5z M52.4,55.5h2.5v-2.6h-2.5V55.5z"/>
	<path style="fill:#E3E7FE;" d="M47.9,41.2v19.1h11.6V41.2H47.9z M55.4,56h-3.5v-3.6h3.5V56z"/>
	<path style="fill:#6576FF;" d="M59.5,60.8H47.9c-0.3,0-0.5-0.2-0.5-0.5V41.2c0-0.3,0.2-0.5,0.5-0.5h11.6c0.3,0,0.5,0.2,0.5,0.5v19.1
		C60,60.6,59.8,60.8,59.5,60.8z M48.4,59.8H59V41.7H48.4V59.8z M55.4,56.5h-3.5c-0.3,0-0.5-0.2-0.5-0.5v-3.6c0-0.3,0.2-0.5,0.5-0.5
		h3.5c0.3,0,0.5,0.2,0.5,0.5V56C55.9,56.3,55.7,56.5,55.4,56.5z M52.4,55.5h2.5v-2.6h-2.5V55.5z"/>
	<rect x="51.9" y="52.4" style="fill:#E3E7FE;" width="3.5" height="3.6"/>
	<path style="fill:#6576FF;" d="M55.4,56.4h-3.5c-0.2,0-0.4-0.2-0.4-0.4v-3.6c0-0.2,0.2-0.4,0.4-0.4h3.5c0.2,0,0.4,0.2,0.4,0.4V56
		C55.8,56.2,55.6,56.4,55.4,56.4z M52.3,55.6H55v-2.8h-2.8V55.6z"/>
	<path style="fill:#6576FF;" d="M39.3,52.4h-4.1v-3.9h4.1V52.4z M35.9,51.7h2.6v-2.4h-2.6V51.7z"/>
	<path style="fill:#6576FF;" d="M45,52.4h-4.1v-3.9H45V52.4z M41.6,51.7h2.6v-2.4h-2.6V51.7z"/>
	<path style="fill:#6576FF;" d="M39.3,58.7h-4.1v-3.8h4.1V58.7z M35.9,58h2.6v-2.3h-2.6V58z"/>
	<path style="fill:#6576FF;" d="M45,58.7h-4.1v-3.8H45V58.7z M41.6,58h2.6v-2.3h-2.6V58z"/>
	<rect x="40.2" y="34.3" style="fill:#E3E7FE;" width="6.5" height="2.5"/>
	<path style="fill:#6576FF;" d="M46.7,37.3h-6.5c-0.3,0-0.5-0.2-0.5-0.5v-2.5c0-0.3,0.2-0.5,0.5-0.5h6.5c0.3,0,0.5,0.2,0.5,0.5v2.5
		C47.2,37.1,47,37.3,46.7,37.3z M40.7,36.3h5.5v-1.5h-5.5V36.3z"/>
	<path style="fill:#6576FF;" d="M46,34.8h-5.2l2.6-2.6L46,34.8z M43.2,33.8h0.4l-0.2-0.2L43.2,33.8z"/>
	<rect x="35.1" y="42.6" style="fill:#6576FF;" width="1" height="3.2"/>
	<rect x="37.9" y="40.7" style="fill:#6576FF;" width="1" height="5.1"/>
	<rect x="39.9" y="43.2" style="fill:#6576FF;" width="1" height="2.6"/>
	<rect x="43.2" y="41.7" style="fill:#6576FF;" width="1" height="4.1"/>
	<rect x="47.9" y="47.6" style="fill:#6576FF;" width="11.6" height="1"/>
	<path style="fill:#6576FF;" d="M56.2,46.3h-5.3v-3.1h5.3V46.3z M51.6,45.5h3.8V44h-3.8V45.5z"/>
	<rect x="51" y="35.9" style="fill:#6576FF;" width="1" height="5.3"/>
	<rect x="55.9" y="36.2" style="fill:#6576FF;" width="1" height="5"/>
	<polygon style="fill:#6576FF;" points="14.3,50.3 13.9,49.7 19.1,46.3 19.5,46.9 			"/>
	<polygon style="fill:#6576FF;" points="19.1,46.8 14.2,41.9 14.6,41.5 19.5,46.4 			"/>
	<rect x="13.6" y="39.8" transform="matrix(0.8441 -0.5362 0.5362 0.8441 -18.9246 15.214)" style="fill:#6576FF;" width="6.2" height="0.7"/>
	<polygon style="fill:#6576FF;" points="19.1,38.7 14.2,33.8 14.6,33.4 19.5,38.3 			"/>
	<rect x="13.6" y="31.7" transform="matrix(0.8441 -0.5362 0.5362 0.8441 -14.5815 13.9512)" style="fill:#6576FF;" width="6.2" height="0.7"/>
	<rect x="16.5" y="24.5" transform="matrix(0.7071 -0.7071 0.7071 0.7071 -14.8284 20.101)" style="fill:#6576FF;" width="0.7" height="6.9"/>
	<rect x="13.6" y="23.6" transform="matrix(0.8371 -0.547 0.547 0.8371 -10.3541 13.0289)" style="fill:#6576FF;" width="6.2" height="0.6"/>
	<rect x="16.5" y="16.4" transform="matrix(0.6998 -0.7143 0.7143 0.6998 -9.0856 17.9802)" style="fill:#6576FF;" width="0.6" height="6.9"/>
	<rect x="13.6" y="15.5" transform="matrix(0.8371 -0.547 0.547 0.8371 -5.923 11.7095)" style="fill:#6576FF;" width="6.2" height="0.6"/>
	<rect x="16.5" y="8.2" transform="matrix(0.7071 -0.7071 0.7071 0.7071 -3.3027 15.3269)" style="fill:#6576FF;" width="0.7" height="6.9"/>
	<rect x="13.6" y="7.3" transform="matrix(0.8441 -0.5362 0.5362 0.8441 -1.4982 10.1471)" style="fill:#6576FF;" width="6.2" height="0.7"/>
	<rect x="17.8" y="3.2" transform="matrix(0.7071 -0.7071 0.7071 0.7071 1.8864 14.2545)" style="fill:#6576FF;" width="0.7" height="3.3"/>
	<rect x="7.6" y="15.8" style="fill:#E3E7FE;" width="3.8" height="3.4"/>
	<path style="fill:#6576FF;" d="M11.4,19.7H7.6c-0.3,0-0.5-0.2-0.5-0.5v-3.4c0-0.3,0.2-0.5,0.5-0.5h3.8c0.3,0,0.5,0.2,0.5,0.5v3.4
	C11.9,19.5,11.7,19.7,11.4,19.7z M8.1,18.7h2.8v-2.4H8.1V18.7z"/>
	<rect x="6.1" y="11.1" transform="matrix(0.7162 -0.6979 0.6979 0.7162 -7.8496 8.3972)" style="fill:#6576FF;" width="0.7" height="5.4"/>
	<rect x="7.4" y="13.5" transform="matrix(0.6973 -0.7168 0.7168 0.6973 -6.8702 11.4326)" style="fill:#6576FF;" width="5.4" height="0.7"/>
	<rect x="13.2" y="11.1" transform="matrix(0.7162 -0.6979 0.6979 0.7162 -5.8345 13.3523)" style="fill:#6576FF;" width="0.7" height="5.4"/>
	<rect x="14.5" y="13.5" transform="matrix(0.698 -0.7161 0.7161 0.698 -4.7236 16.4982)" style="fill:#6576FF;" width="5.4" height="0.7"/>
	<rect x="21.1" y="11.1" transform="matrix(0.7162 -0.6979 0.6979 0.7162 -3.5925 18.8657)" style="fill:#6576FF;" width="0.7" height="5.4"/>
	<rect x="22.4" y="13.5" transform="matrix(0.6973 -0.7168 0.7168 0.6973 -2.3292 22.1847)" style="fill:#6576FF;" width="5.4" height="0.7"/>
	<rect x="29.1" y="11.1" transform="matrix(0.7162 -0.6979 0.6979 0.7162 -1.3221 24.4489)" style="fill:#6576FF;" width="0.7" height="5.4"/>
	<rect x="30.4" y="13.5" transform="matrix(0.6973 -0.7168 0.7168 0.6973 9.258170e-02 27.9192)" style="fill:#6576FF;" width="5.4" height="0.6"/>
	<rect x="37" y="11.1" transform="matrix(0.7162 -0.6979 0.6979 0.7162 0.9201 29.9626)" style="fill:#6576FF;" width="0.6" height="5.4"/>
	<polygon style="fill:#6576FF;" points="39.3,16 38.9,15.6 42.7,11.7 43.1,12.1 		"/>
	<polygon style="fill:#6576FF;" points="47,16 43.1,12.1 43.5,11.7 47.4,15.6 		"/>
	<rect x="46.2" y="13.5" transform="matrix(0.698 -0.7161 0.7161 0.698 4.849 39.1984)" style="fill:#6576FF;" width="5.4" height="0.6"/>
	<rect x="52.9" y="11.1" transform="matrix(0.7162 -0.6979 0.6979 0.7162 5.4324 41.0588)" style="fill:#6576FF;" width="0.6" height="5.4"/>
	<rect x="54.2" y="13.5" transform="matrix(0.698 -0.7161 0.7161 0.698 7.2648 44.927)" style="fill:#6576FF;" width="5.4" height="0.6"/>
</svg>
