<svg xmlns="http://www.w3.org/2000/svg" x="0px" y="0px" viewBox="0 0 64 64">

		<path style="fill:#6576FF;" d="M45.9,35.8c-1.5,0-2.7-1.2-2.7-2.7c0-1.5,1.2-2.7,2.7-2.7c1.5,0,2.7,1.2,2.7,2.7
			C48.6,34.6,47.4,35.8,45.9,35.8z M45.9,31.4c-0.9,0-1.7,0.8-1.7,1.7c0,0.9,0.8,1.7,1.7,1.7c0.9,0,1.7-0.8,1.7-1.7
			C47.6,32.2,46.8,31.4,45.9,31.4z"/>
		<path style="fill:#E3E7FE;" d="M42.1,29.8c-0.9,0.9-1.4,2-1.4,3.3c0,2.6,2.1,4.7,4.7,4.7h10.5v10.4c0,2.1-1.7,3.8-3.8,3.8H28.6
			c0.8-1.6,1.2-3.5,1.2-5.4c0-7.2-5.8-13-13-13s-13,5.8-13,13V19c0-1.9,1.3-3.4,3.1-3.7c0.2,0,0.5-0.1,0.7-0.1h44.5
			c2.1,0,3.8,1.7,3.8,3.8v9.4H45.5C44.2,28.4,43,28.9,42.1,29.8z"/>
		<path style="fill:#6576FF;" d="M52.1,52.5H28.6c-0.2,0-0.3-0.1-0.4-0.2s-0.1-0.3,0-0.5c0.8-1.5,1.1-3.3,1.1-5.2c0-6.9-5.6-12.5-12.5-12.5
			S4.3,39.7,4.3,46.6c0,0.3-0.2,0.5-0.5,0.5s-0.5-0.2-0.5-0.5V19c0-2.1,1.4-3.8,3.5-4.2c0.2,0,0.2,0,0.3,0c0.2,0,0.3-0.1,0.4-0.1
			h44.5c2.4,0,4.3,1.9,4.3,4.3v9.4c0,0.3-0.2,0.5-0.5,0.5H45.5c-1.2,0-2.2,0.4-3,1.3l0,0c-0.8,0.8-1.3,1.8-1.3,2.9
			c0,2.3,1.9,4.2,4.2,4.2h10.5c0.3,0,0.5,0.2,0.5,0.5v10.4C56.4,50.6,54.5,52.5,52.1,52.5z M29.4,51.5h22.7c1.8,0,3.3-1.5,3.3-3.3
			v-9.9h-10c-2.9,0-5.2-2.3-5.2-5.2c0-1.4,0.5-2.6,1.5-3.7l0,0c1-1,2.3-1.5,3.8-1.5h9.9V19c0-1.8-1.5-3.3-3.3-3.3H7.6
			c-0.1,0-0.2,0-0.3,0c-0.2,0-0.3,0.1-0.4,0.1c-1.5,0.3-2.6,1.6-2.6,3.2v22.5c2-4.9,6.9-8.4,12.5-8.4c7.4,0,13.5,6.1,13.5,13.5
			C30.3,48.3,30,50,29.4,51.5z"/>
		<path style="fill:#B3C2FF;" d="M59.2,28.4H45.5c-1.3,0-2.5,0.5-3.3,1.4s-1.4,2-1.4,3.3c0,2.6,2.1,4.7,4.7,4.7h13.8c0.5,0,0.9-0.4,0.9-0.9
			v-7.6C60.2,28.8,59.7,28.4,59.2,28.4z M45.9,35.3c-1.2,0-2.2-1-2.2-2.2s1-2.2,2.2-2.2s2.2,1,2.2,2.2S47.1,35.3,45.9,35.3z"/>
		<path style="fill:#6576FF;" d="M59.3,38.3H45.5c-2.9,0-5.2-2.3-5.2-5.2c0-1.3,0.5-2.5,1.5-3.6c0.9-1,2.2-1.6,3.7-1.6h13.7
			c0.8,0,1.5,0.7,1.5,1.4v7.6C60.7,37.7,60.1,38.3,59.3,38.3z M45.5,28.9c-1.2,0-2.2,0.4-2.9,1.2c-0.8,1-1.3,2-1.3,3
			c0,2.3,1.9,4.2,4.2,4.2h13.8c0.2,0,0.4-0.2,0.4-0.4v-7.6c0-0.2-0.3-0.4-0.5-0.4H45.5z M45.9,35.8c-1.5,0-2.7-1.2-2.7-2.7
			c0-1.5,1.2-2.7,2.7-2.7c1.5,0,2.7,1.2,2.7,2.7C48.6,34.6,47.4,35.8,45.9,35.8z M45.9,31.4c-0.9,0-1.7,0.8-1.7,1.7
			c0,0.9,0.8,1.7,1.7,1.7c0.9,0,1.7-0.8,1.7-1.7C47.6,32.2,46.8,31.4,45.9,31.4z"/>
		<path style="fill:#6576FF;" d="M45.9,35.8c-1.5,0-2.7-1.2-2.7-2.7c0-1.5,1.2-2.7,2.7-2.7c1.5,0,2.7,1.2,2.7,2.7
			C48.6,34.6,47.4,35.8,45.9,35.8z M45.9,31.4c-0.9,0-1.7,0.8-1.7,1.7c0,0.9,0.8,1.7,1.7,1.7c0.9,0,1.7-0.8,1.7-1.7
			C47.6,32.2,46.8,31.4,45.9,31.4z"/>
		<path style="fill:#B3C2FF;" d="M29.9,46.6c0,1.9-0.4,3.8-1.2,5.4c-2,4.5-6.6,7.5-11.8,7.5c-6,0-11-4-12.5-9.5l0,0C4.2,48.9,4,47.8,4,46.6
			c0-7.2,5.8-13,13-13C24.1,33.6,29.9,39.4,29.9,46.6z"/>
		<path style="fill:#6576FF;" d="M16.9,60c-6.1,0-11.4-4.1-13-9.9c-0.2-1.1-0.4-2.3-0.4-3.5c0-7.4,6.1-13.5,13.5-13.5
			c7.4,0,13.4,6.1,13.4,13.5c0,2-0.4,4-1.3,5.6C27.1,56.9,22.2,60,16.9,60z M17,34.1c-6.9,0-12.5,5.6-12.5,12.5
			c0,1.2,0.2,2.2,0.4,3.3c1.5,5.3,6.4,9.1,12,9.1c4.9,0,9.4-2.8,11.3-7.2c0.8-1.5,1.2-3.3,1.2-5.2C29.4,39.7,23.8,34.1,17,34.1z"/>
		<path style="fill:#E3E7FE;" d="M39.7,15.2H16.1c0-0.1,0.1-0.1,0.1-0.2L26.9,4.3c0.5-0.5,1.4-0.5,1.9,0L31.4,7L39.7,15.2z"/>
		<path style="fill:#6576FF;" d="M39.7,15.7H16.1c-0.3,0-0.5-0.2-0.5-0.5c0-0.2,0.1-0.3,0.1-0.4c0-0.1,0.1-0.1,0.1-0.2L26.5,3.9
			c0.7-0.7,1.9-0.7,2.6,0l2.6,2.7l8.3,8.2c0.1,0.1,0.2,0.4,0.1,0.5S39.9,15.7,39.7,15.7z M17.2,14.7h21.3L31,7.4l-2.6-2.7
			c-0.3-0.3-0.9-0.3-1.2,0L17.2,14.7z"/>
		<path style="fill:#B3C2FF;" d="M20.7,10.6L16.2,15c-0.1,0.1-0.1,0.1-0.1,0.2H7.6c-0.2,0-0.5,0-0.7,0.1c0.1-0.1,0.2-0.1,0.3-0.2L20.7,10.6z"
			/>
		<path style="fill:#6576FF;" d="M4.4,17.1l2.2-2.2c0.1-0.1,0.2-0.2,0.3-0.2l0.1-0.1l15.7-5.2l-6,5.9l0,0.3l-0.5,0H7.6c-0.1,0-0.4,0-0.5,0
			L4.4,17.1z M10,14.7h5.8c0,0,0,0,0.1-0.1l3-2.9L10,14.7z"/>
		<path style="fill:#B3C2FF;" d="M43.3,15.2h-3.6L31.4,7l7-2.4c0.7-0.2,1.4,0.1,1.6,0.8L43.3,15.2z"/>
		<path style="fill:#6576FF;" d="M44,15.7h-4.5l-9-8.9l7.8-2.7c0.5-0.1,1-0.1,1.4,0.1c0.4,0.2,0.7,0.6,0.9,1.1L44,15.7z M39.9,14.7h2.7
			l-3.1-9.1c-0.1-0.2-0.2-0.4-0.4-0.4C39,5,38.8,5,38.5,5.1l-6.2,2.1L39.9,14.7z"/>
		<circle style="fill:#E3E7FE;" cx="45.9" cy="33.1" r="2.2"/>
		<path style="fill:#6576FF;" d="M45.9,35.8c-1.5,0-2.7-1.2-2.7-2.7c0-1.5,1.2-2.7,2.7-2.7c1.5,0,2.7,1.2,2.7,2.7
			C48.6,34.6,47.4,35.8,45.9,35.8z M45.9,31.4c-0.9,0-1.7,0.8-1.7,1.7c0,0.9,0.8,1.7,1.7,1.7c0.9,0,1.7-0.8,1.7-1.7
			C47.6,32.2,46.8,31.4,45.9,31.4z"/>
		<path style="fill:#6576FF;" d="M19.7,50.4c-0.2,0.4-0.6,0.8-1,1c-0.4,0.3-1,0.4-1.6,0.5v1.2h-0.8v-1.2c-0.9-0.1-1.6-0.4-2.1-0.8
			c-0.5-0.5-0.8-1.1-0.8-1.8h1.4c0,0.4,0.2,0.8,0.5,1c0.3,0.3,0.6,0.5,1.1,0.6v-3.6c-0.6-0.2-1.2-0.3-1.5-0.5
			c-0.4-0.2-0.7-0.4-1-0.8s-0.4-0.9-0.4-1.5c0-0.8,0.3-1.4,0.8-1.9s1.3-0.8,2.2-0.8v-1.2h0.8v1.2c0.8,0.1,1.5,0.3,2,0.8
			s0.8,1,0.9,1.8h-1.4c0-0.3-0.2-0.6-0.4-0.9c-0.2-0.3-0.6-0.5-1-0.5v3.5c0.6,0.2,1.1,0.3,1.5,0.5s0.7,0.4,1,0.8
			c0.3,0.4,0.4,0.9,0.4,1.5C20.1,49.6,19.9,50,19.7,50.4z M15.1,45.5c0.3,0.2,0.7,0.5,1.2,0.6v-3.3c-0.5,0-0.9,0.2-1.2,0.5
			s-0.4,0.7-0.4,1.1C14.7,44.9,14.8,45.3,15.1,45.5z M18.3,50.3c0.3-0.3,0.4-0.7,0.4-1.1c0-0.5-0.1-0.8-0.4-1.1s-0.7-0.5-1.2-0.6
			v3.4C17.6,50.8,18,50.6,18.3,50.3z"/>
		<path style="fill:#6576FF;" d="M24.2,24.7H13.8c-0.3,0-0.5-0.2-0.5-0.5s0.2-0.5,0.5-0.5h10.4c0.3,0,0.5,0.2,0.5,0.5S24.5,24.7,24.2,24.7z"/>
		<path style="fill:#6576FF;" d="M27.9,24.7h-1.1c-0.3,0-0.5-0.2-0.5-0.5s0.2-0.5,0.5-0.5h1.1c0.3,0,0.5,0.2,0.5,0.5S28.2,24.7,27.9,24.7z"/>
</svg>
