<svg xmlns="http://www.w3.org/2000/svg" x="0px" y="0px" viewBox="0 0 64 64">
    <!-- <style type="text/css">
        .st0{fill:#E3E7FE;}
        .st1{fill:#6576FF;}
        .st2{fill:#B3C2FF;}
    </style> -->
    <polygon style="fill:#E3E7FE;" points="41.1,30.3 41.1,56.2 25.7,56.2 25.7,41.1 17.2,41.1 17.2,56.2 9.2,56.2 9.2,30.9 25.4,17.4 
        30.7,21.8 		"/>
    <path style="fill:#6576FF;" d="M41.1,56.7H25.7c-0.3,0-0.5-0.2-0.5-0.5V41.6h-7.5v14.6c0,0.3-0.2,0.5-0.5,0.5h-8c-0.3,0-0.5-0.2-0.5-0.5
        V30.9c0-0.1,0.1-0.3,0.2-0.4L25.1,17c0.2-0.2,0.5-0.2,0.6,0l5.3,4.4l10.4,8.5c0.1,0.1,0.2,0.2,0.2,0.4v25.9
        C41.6,56.5,41.4,56.7,41.1,56.7z M26.2,55.7h14.4V30.5L25.4,18.1L9.7,31.1v24.6h7V41.1c0-0.3,0.2-0.5,0.5-0.5h8.5
        c0.3,0,0.5,0.2,0.5,0.5V55.7z"/>
    <path style="fill:#6576FF;" d="M26.1,56.7h-9.4V40.6h9.4V56.7z M17.7,55.7h7.4V41.6h-7.4V55.7z"/>  
    <path style="fill:#B3C2FF;" d="M47,29.6c0,0.6-0.2,1.2-0.6,1.7c-0.5,0.6-1.2,0.9-1.9,0.9h-0.4c-0.5,0-1-0.2-1.5-0.6L41,30.3l-10.4-8.6
        L26.2,18c-0.5-0.4-1.2-0.4-1.7,0L9.2,30.9l-1.2,1c-1.1,0.9-2.8,0.8-3.7-0.4c-0.4-0.5-0.6-1.1-0.6-1.7c0-0.8,0.3-1.5,1-2L9.2,24
        l12.1-10l3.3-2.7c0.5-0.4,1.2-0.4,1.7,0l3.3,2.7l3.9,3.2l5.1,4.3l0.4,0.3l2.1,1.7l4.9,4.1C46.7,28.1,47,28.9,47,29.6z"/>
    <path style="fill:#6576FF;" d="M6.3,33c-0.1,0-0.3,0-0.4,0c-0.8-0.1-1.5-0.5-2-1.2c-0.4-0.6-0.7-1.3-0.7-2c0-1,0.4-1.8,1.2-2.4l4.5-3.8
        l15.4-12.7c0.7-0.6,1.6-0.6,2.3,0l7.2,5.9l5.5,4.6l2.1,1.7l4.9,4.1c0.7,0.5,1.2,1.4,1.2,2.4c0,0.7-0.3,1.4-0.7,2
        c-0.6,0.7-1.4,1.1-2.3,1.1h-0.4c-0.6,0-1.2-0.2-1.8-0.7l-1.6-1.3L25.9,18.4c-0.3-0.2-0.8-0.2-1.1,0L8.3,32.3C7.8,32.7,7,33,6.3,33
        z M25.5,11.5c-0.2,0-0.4,0.1-0.5,0.2l-3.3,2.7l-12.1,10L5,28.2c-0.6,0.4-0.8,0.9-0.8,1.6c0,0.5,0.2,1,0.5,1.4
        C5,31.6,5.5,31.9,6.1,32c0.6,0.1,1.2-0.1,1.6-0.5l1.2-1l15.3-12.9c0.7-0.6,1.6-0.6,2.3,0l4.4,3.7l12,9.9c0.4,0.3,0.8,0.5,1.2,0.5
        h0.4c0.6,0,1.1-0.3,1.5-0.7c0.3-0.4,0.5-0.9,0.5-1.4c0-0.6-0.3-1.2-0.8-1.6L26,11.7C25.8,11.6,25.6,11.5,25.5,11.5z"/>
    <rect x="17.2" y="41.1" style="fill:#B3C2FF;" width="8.4" height="15.1"/>
    <path style="fill:#6576FF;" d="M26.1,56.7h-9.4V40.6h9.4V56.7z M17.7,55.7h7.4V41.6h-7.4V55.7z"/>
    <path style="fill:#6576FF;" d="M44.1,32.6h-3.4v-3.1l2.2,1.8c0.3,0.3,0.7,0.5,1.2,0.5V32.6z M41.5,31.8h0.9l-0.9-0.7V31.8z"/>
    <path style="fill:#B3C2FF;" d="M60.4,21.8v10.5H44.5c0.7,0,1.4-0.4,1.9-0.9c0.4-0.5,0.6-1.1,0.6-1.7c0-0.8-0.3-1.5-1-2l-4.9-4.1L39,21.8
        H60.4z"/>
    <path style="fill:#6576FF;" d="M60.9,32.8H44.5v-1c0.5,0,1.1-0.3,1.5-0.8c0.3-0.4,0.5-0.8,0.5-1.3c0-0.7-0.3-1.2-0.8-1.6l-8.1-6.8h23.3V32.8
        z M46.7,31.8h13.2v-9.5H40.4l1.1,0.9l4.9,4.1c0.8,0.5,1.2,1.4,1.2,2.4C47.5,30.4,47.2,31.1,46.7,31.8
        C46.8,31.7,46.7,31.8,46.7,31.8z"/>
    <path style="fill:#E3E7FE;" d="M59.1,32.2v24.1h-18V32.2h3c0.1,0,0.2,0,0.4,0H59.1z"/>
    <path style="fill:#6576FF;" d="M59.1,56.8h-18c-0.3,0-0.5-0.2-0.5-0.5V32.2c0-0.3,0.2-0.5,0.5-0.5h18c0.3,0,0.5,0.2,0.5,0.5v24.1
        C59.6,56.6,59.4,56.8,59.1,56.8z M41.6,55.8h17V32.7h-17V55.8z"/>
    <rect x="44.4" y="36" style="fill:#B3C2FF;" width="11.6" height="20.2"/>
    <path style="fill:#6576FF;" d="M56.5,56.7H43.9V35.5h12.6V56.7z M44.9,55.7h10.6V36.5H44.9V55.7z"/>
    <path style="fill:#6576FF;" d="M33,44.3h-4.1v-3.8H33V44.3z M29.7,43.5h2.6v-2.3h-2.6V43.5z"/>
    <path style="fill:#6576FF;" d="M37.8,44.3h-4.1v-3.8h4.1V44.3z M34.5,43.5H37v-2.3h-2.6V43.5z"/>
    <path style="fill:#6576FF;" d="M33,48.6h-4.1v-3.8H33V48.6z M29.7,47.8h2.6v-2.3h-2.6V47.8z"/>
    <path style="fill:#6576FF;" d="M37.8,48.6h-4.1v-3.8h4.1V48.6z M34.5,47.8H37v-2.3h-2.6V47.8z"/>
    <path style="fill:#6576FF;" d="M25.3,35.6c-2.9,0-5.2-2.3-5.2-5.2c0-2.9,2.3-5.2,5.2-5.2s5.2,2.3,5.2,5.2C30.5,33.3,28.2,35.6,25.3,35.6z
        M25.3,26.2c-2.3,0-4.2,1.9-4.2,4.2s1.9,4.2,4.2,4.2s4.2-1.9,4.2-4.2S27.6,26.2,25.3,26.2z"/>
    <polygon style="fill:#E3E7FE;" points="38.7,7.7 38.7,21.5 33.5,17.2 33.5,7.7 		"/>
    <path style="fill:#6576FF;" d="M38.7,22c-0.1,0-0.2,0-0.3-0.1l-5.2-4.3c-0.1-0.1-0.2-0.2-0.2-0.4V7.7c0-0.3,0.2-0.5,0.5-0.5h5.2
        c0.3,0,0.5,0.2,0.5,0.5v13.8c0,0.2-0.1,0.4-0.3,0.5C38.8,22,38.8,22,38.7,22z M34,17l4.2,3.5V8.2H34V17z"/>
        <path style="fill:#6576FF;" d="M26.9,32.3c-0.1,0.2-0.3,0.3-0.5,0.5C26.2,32.9,26,33,25.7,33v0.5h-0.4V33c-0.4,0-0.7-0.2-1-0.4
            c-0.2-0.2-0.4-0.5-0.4-0.8h0.8c0,0.2,0.1,0.3,0.2,0.4c0.1,0.1,0.2,0.2,0.4,0.2V31c-0.3-0.1-0.5-0.1-0.7-0.2s-0.3-0.2-0.5-0.4
            s-0.2-0.4-0.2-0.7c0-0.4,0.1-0.6,0.4-0.9c0.2-0.2,0.6-0.4,1-0.4v-0.5h0.4v0.5c0.4,0,0.7,0.2,0.9,0.4c0.2,0.2,0.4,0.5,0.4,0.8
            h-0.8c0-0.1-0.1-0.2-0.2-0.4c-0.1-0.1-0.2-0.2-0.4-0.2v1.4c0.3,0.1,0.5,0.1,0.7,0.2s0.3,0.2,0.5,0.4c0.1,0.2,0.2,0.4,0.2,0.7
            C27,31.9,27,32.1,26.9,32.3z M24.8,30.1c0.1,0.1,0.3,0.2,0.4,0.2V29c-0.2,0-0.3,0.1-0.4,0.2s-0.2,0.3-0.2,0.4
            C24.7,29.9,24.7,30,24.8,30.1z M26.1,32.1c0.1-0.1,0.2-0.3,0.2-0.4c0-0.2-0.1-0.3-0.2-0.4s-0.3-0.2-0.4-0.2v1.3
            C25.9,32.3,26,32.2,26.1,32.1z"/>
</svg>
