<svg xmlns="http://www.w3.org/2000/svg" x="0px" y="0px" viewBox="0 0 64 64">
<style type="text/css">
	.st0{fill:#E3E7FE;}
	.st1{fill:#6576FF;}
	.st2{fill:#B3C2FF;}
</style>
	<path style="fill:#E3E7FE;" d="M16.6,4.3v10.5c0,0.2-0.1,0.4-0.3,0.6l-3.9,2.3l-1,0.6v-14c0-0.4,0.3-0.6,0.6-0.6h3.9
		C16.3,3.7,16.6,4,16.6,4.3z"/>
	<path style="fill:#6576FF;" d="M11.4,18.8c-0.1,0-0.2,0-0.2-0.1c-0.2-0.1-0.3-0.3-0.3-0.4v-14c0-0.6,0.5-1.1,1.1-1.1h3.9
		c0.7,0,1.2,0.5,1.2,1.1v10.5c0,0.3-0.2,0.7-0.4,1c0,0-0.1,0.1-0.1,0.1l-4.9,2.9C11.6,18.8,11.5,18.8,11.4,18.8z M12,4.2
		c-0.1,0-0.1,0.1-0.1,0.1v13.1L16,15c0.1-0.1,0.1-0.2,0.1-0.2V4.3c0,0-0.1-0.1-0.2-0.1H12z M16.1,4.3L16.1,4.3L16.1,4.3z"/>
	<polygon style="fill:#E3E7FE;" points="52.7,24.6 52.7,56.2 9.1,56.2 9.1,25.1 11.4,23.4 11.4,23.4 11.4,23.4 11.4,23.4 12.4,22.6 
		17.6,18.7 30.5,9 31.2,8.5 31.9,9 		"/>
	<path style="fill:#6576FF;" d="M52.7,56.7H9.1c-0.3,0-0.5-0.2-0.5-0.5V25.1c0-0.2,0.1-0.3,0.2-0.4l8.5-6.4L30.9,8.1c0.2-0.1,0.4-0.1,0.6,0
		l0.7,0.5L53,24.2c0.1,0.1,0.2,0.2,0.2,0.4v31.6C53.2,56.5,53,56.7,52.7,56.7z M9.6,55.7h42.6V24.9l-21-15.7l-0.4,0.3L9.6,25.4
		V55.7z"/>
	<path style="fill:#B3C2FF;" d="M58.6,25.5l-0.9,1.3c-0.4,0.6-1.1,0.7-1.7,0.3l-3.3-2.5L31.9,9l-0.7-0.5L30.5,9l-12.9,9.7l-5.2,3.9l-1,0.7
		l0,0l0,0l0,0L9.1,25l-3,2.2c-0.5,0.4-1.3,0.3-1.7-0.3l-0.9-1.3c-0.4-0.6-0.3-1.3,0.3-1.8L9.1,20l2.3-1.7l1-0.7l4.2-3.2l1-0.7
		L27.8,6L29,5l1.5-1.1c0.4-0.3,1-0.3,1.4,0L33.4,5l1.2,0.9l18.1,13.6l5.6,4.2C58.8,24.1,58.9,24.9,58.6,25.5z"/>
	<path style="fill:#6576FF;" d="M5.4,27.9c-0.1,0-0.2,0-0.3,0c-0.5-0.1-0.9-0.3-1.2-0.7l-0.9-1.3c-0.6-0.8-0.4-1.8,0.4-2.5l8.6-6.2l4.2-3.2
		l1-0.7l10.2-7.7l1.2-1l1.5-1.1c0.6-0.4,1.4-0.4,2,0l2.7,2l23.7,17.8c0.7,0.5,0.9,1.6,0.4,2.4l0,0.1l-0.9,1.3
		c-0.5,0.8-1.5,1-2.4,0.4L52.4,25L31.2,9.1l-0.4,0.3L6.4,27.6C6.1,27.8,5.8,27.9,5.4,27.9z M31.2,4.2c-0.1,0-0.3,0-0.4,0.1
		l-1.5,1.1l-1.2,1l-18.7,14l-5.3,3.8c-0.4,0.3-0.4,0.7-0.2,1.1l0.9,1.3c0.1,0.2,0.3,0.3,0.5,0.3c0.2,0,0.4,0,0.5-0.1l6.3-4.6
		L31.2,7.9l1,0.7l24.1,18.1c0.3,0.2,0.7,0.2,1-0.2l0.9-1.3c0.2-0.4,0.1-0.9-0.2-1.2L31.6,4.3C31.5,4.2,31.3,4.2,31.2,4.2z"/>
	<path style="fill:#E3E7FE;" d="M31.9,9c-0.4-0.3-1-0.3-1.4,0l0.7-0.5L31.9,9z"/>
	<path style="fill:#6576FF;" d="M30.8,9.4l-0.6-0.8c0,0,0,0,0.1,0l0.9-0.7l0.9,0.7c0,0,0,0,0.1,0l-0.6,0.8l0,0C31.4,9.2,31,9.2,30.8,9.4
		L30.8,9.4z"/>
	<rect x="5.2" y="56.2" style="fill:#B3C2FF;" width="50.8" height="4.2"/>
	<path style="fill:#6576FF;" d="M56.5,60.9H4.7v-5.2h51.8V60.9z M5.7,59.9h49.8v-3.2H5.7V59.9z"/>
	<rect x="12.9" y="29.9" style="fill:#B3C2FF;" width="14.7" height="26.3"/>
	<path style="fill:#6576FF;" d="M28.1,56.7H12.4V29.4h15.7V56.7z M13.4,55.7h13.7V30.4H13.4V55.7z"/>
	<path style="fill:#6576FF;" d="M48.9,45.8H31.5c-0.3,0-0.5-0.2-0.5-0.5V29.9c0-0.3,0.2-0.5,0.5-0.5h17.4c0.3,0,0.5,0.2,0.5,0.5v15.4
		C49.4,45.6,49.2,45.8,48.9,45.8z M32,44.8h16.4V30.4H32V44.8z"/>
	<path style="fill:#E3E7FE;" d="M52.9,12.6c0,0-3.8,2.9-8.2,3c0,0,0,5.6,0.7,9.6s5.3,6.9,7.4,8h-0.1c2.1-1,6.7-4,7.4-8s0.7-9.6,0.7-9.6
		c-4.4-0.1-8.2-3-8.2-3"/>
	<path style="fill:#6576FF;" d="M52.8,33.7c-0.1,0-0.3,0-0.4-0.1c-2.1-1.1-6.8-4.1-7.5-8.3c-0.7-4-0.7-9.5-0.7-9.7c0-0.3,0.2-0.5,0.5-0.5
		c4.2-0.1,7.9-2.9,7.9-2.9l0.2,0.2l0.2-0.2c0,0,3.7,2.8,7.9,2.9c0.3,0,0.5,0.2,0.5,0.5c0,0.2,0,5.7-0.7,9.7
		c-0.7,3.9-4.9,6.9-7.4,8.2C53.1,33.6,53,33.7,52.8,33.7z M45.2,16.1c0,1.4,0.1,5.8,0.7,9c0.7,3.8,5.1,6.5,6.9,7.5
		c2.3-1.1,6.2-4,6.8-7.5c0.6-3.2,0.7-7.6,0.7-9c-3.5-0.2-6.4-2-7.5-2.8C51.6,14.1,48.7,15.8,45.2,16.1z"/>
	<path style="fill:#6576FF;" d="M51.6,25C51.6,25,51.6,25,51.6,25c-0.2,0-0.3-0.1-0.4-0.2l-1.6-2.1c-0.2-0.2-0.1-0.5,0.1-0.7
		c0.2-0.2,0.5-0.1,0.7,0.1l1.2,1.6l2.6-3.2c0.2-0.2,0.5-0.2,0.7-0.1c0.2,0.2,0.2,0.5,0.1,0.7l-3,3.7C51.9,24.9,51.8,25,51.6,25z"/>
	<rect x="39.7" y="29.9" style="fill:#6576FF;" width="1" height="15.3"/>
	<rect x="31.5" y="37" style="fill:#6576FF;" width="17.4" height="1"/>
	<path style="fill:#E3E7FE;" d="M25.3,44.4L25.3,44.4c-0.5,0-0.9-0.4-0.9-0.9v-0.1c0-0.5,0.4-0.9,0.9-0.9l0,0c0.5,0,0.9,0.4,0.9,0.9v0.1
		C26.2,44,25.8,44.4,25.3,44.4z"/>
	<path style="fill:#6576FF;" d="M25.3,44.8c-0.7,0-1.3-0.6-1.3-1.3v-0.1c0-0.7,0.6-1.3,1.3-1.3s1.3,0.6,1.3,1.3v0.1
		C26.6,44.2,26,44.8,25.3,44.8z M25.3,42.9c-0.3,0-0.5,0.2-0.5,0.5v0.1c0,0.3,0.2,0.5,0.5,0.5s0.5-0.2,0.5-0.5v-0.1
		C25.8,43.1,25.6,42.9,25.3,42.9z"/>
</svg>
