<svg xmlns="http://www.w3.org/2000/svg" x="0px" y="0px" viewBox="0 0 64 64">

		<rect x="49.1" y="6.1" style="fill:#E3E7FE;" width="3.2" height="11.2"/>
		<path style="fill:#6576FF;" d="M52.3,17.8h-3.2c-0.3,0-0.5-0.2-0.5-0.5V6.1c0-0.3,0.2-0.5,0.5-0.5h3.2c0.3,0,0.5,0.2,0.5,0.5v11.2
			C52.8,17.6,52.6,17.8,52.3,17.8z M49.6,16.8h2.2V6.6h-2.2V16.8z"/>
			<rect x="16.9" y="25.6" style="fill:#E3E7FE;" width="37.4" height="32.4"/>
			<path style="fill:#6576FF;" d="M54.3,58.5H16.9c-0.3,0-0.5-0.2-0.5-0.5V25.6c0-0.3,0.2-0.5,0.5-0.5h37.4c0.3,0,0.5,0.2,0.5,0.5V58
				C54.8,58.3,54.6,58.5,54.3,58.5z M17.4,57.5h36.4V26.1H17.4V57.5z"/>
			<rect x="37.8" y="35.3" style="fill:#B3C2FF;" width="12.5" height="22.7"/>
			<path style="fill:#6576FF;" d="M50.8,58.5H37.3V34.8h13.5V58.5z M38.3,57.5h11.5V35.8H38.3V57.5z"/>
			<path style="fill:#6576FF;" d="M60.1,61.8H8.3c-0.3,0-0.6-0.2-0.7-0.6l-0.1-0.1v-2.9c0-0.5,0.4-0.8,0.8-0.8h51.8c0.5,0,0.8,0.4,0.8,0.8V61
				C60.9,61.5,60.5,61.8,60.1,61.8z M8.5,60.8h51.4v-2.4H8.5V60.8z"/>
			<path style="fill:#6576FF;" d="M32.6,46.3H21.4c-0.3,0-0.5-0.2-0.5-0.5V35.3c0-0.3,0.2-0.5,0.5-0.5h11.2c0.3,0,0.5,0.2,0.5,0.5v10.5
				C33.1,46.1,32.9,46.3,32.6,46.3z M21.9,45.3h10.2v-9.5H21.9V45.3z"/>
			<rect x="26.5" y="35.3" style="fill:#6576FF;" width="1" height="10.5"/>
			<path style="fill:#B3C2FF;" d="M60.5,25.6H59l-47-0.1h-1.6c-0.8,0-1.2-1.1-0.5-1.7L35.1,3c0.3-0.3,0.8-0.3,1.1,0l24.9,20.9
				C61.7,24.5,61.4,25.6,60.5,25.6z"/>
			<path style="fill:#6576FF;" d="M60.5,26.1H59L10.4,26c-0.6,0-1.1-0.4-1.3-0.9c-0.2-0.6,0-1.3,0.4-1.7L34.8,2.6c0.5-0.5,1.3-0.5,1.8,0
				l24.9,20.9c0.5,0.5,0.6,1.2,0.4,1.7C61.6,25.8,61.1,26.1,60.5,26.1z M35.6,3.3c-0.1,0-0.1,0-0.2,0.1L10.2,24.2
				c-0.2,0.2-0.2,0.5-0.1,0.6c0,0.1,0.1,0.3,0.3,0.3H12l48.5,0.1c0.2,0,0.3-0.1,0.4-0.2c0.1-0.2,0.1-0.4-0.1-0.6L35.9,3.4
				C35.8,3.3,35.7,3.3,35.6,3.3z"/>
			<path style="fill:#E3E7FE;" d="M59,25.6l-47-0.1l23.1-19c0.3-0.3,0.8-0.3,1.1,0L59,25.6z"/>
			<path style="fill:#6576FF;" d="M59,26L59,26l-47-0.1c-0.2,0-0.3-0.1-0.4-0.2s0-0.3,0.1-0.4l23.1-19c0.4-0.4,1.2-0.4,1.6,0l22.8,19.1
				c0.1,0.1,0.2,0.3,0.1,0.4C59.3,25.9,59.2,26,59,26z M13,25.1L58,25.2L36,6.8c-0.2-0.2-0.4-0.2-0.6,0L13,25.1z"/>
			<rect x="4.9" y="44" style="fill:#E3E7FE;" width="11.8" height="3.7"/>
			<path style="fill:#6576FF;" d="M16.7,48H4.9c-0.1,0-0.3-0.1-0.3-0.3V44c0-0.1,0.1-0.3,0.3-0.3h11.8c0.1,0,0.3,0.1,0.3,0.3v3.7
				C17,47.8,16.8,48,16.7,48z M5.1,47.5h11.3v-3.2H5.1V47.5z"/>
			<rect x="5.8" y="55.4" style="fill:#E3E7FE;" width="10.9" height="3.7"/>
			<path style="fill:#6576FF;" d="M16.7,59.3H5.8c-0.1,0-0.3-0.1-0.3-0.3v-3.7c0-0.1,0.1-0.3,0.3-0.3h10.9c0.1,0,0.3,0.1,0.3,0.3v3.7
				C17,59.2,16.8,59.3,16.7,59.3z M6,58.8h10.4v-3.2H6V58.8z"/>
			<rect x="3.5" y="47.7" style="fill:#E3E7FE;" width="13.2" height="4"/>
			<path style="fill:#6576FF;" d="M16.7,52H3.5c-0.1,0-0.3-0.1-0.3-0.3v-4c0-0.1,0.1-0.3,0.3-0.3h13.2c0.1,0,0.3,0.1,0.3,0.3v4
				C17,51.8,16.8,52,16.7,52z M3.8,51.5h12.7V48H3.8V51.5z"/>
			<rect x="2.3" y="51.6" style="fill:#E3E7FE;" width="14.4" height="3.7"/>
			<path style="fill:#6576FF;" d="M16.7,55.5H2.3c-0.1,0-0.3-0.1-0.3-0.3v-3.7c0-0.1,0.1-0.3,0.3-0.3h14.4c0.1,0,0.3,0.1,0.3,0.3v3.7
				C17,55.4,16.8,55.5,16.7,55.5z M2.5,55h13.9v-3.2H2.5V55z"/>
			<path style="fill:#E3E7FE;" d="M24.1,46.5c0,0.6-0.2,1.1-0.6,1.6l0,0c-0.6,0.8-1.5,1.4-2.7,1.8c-1.1,0.4-2.5,0.7-3.9,0.7s-2.8-0.2-3.9-0.7
				c-1.2-0.4-2.1-1.1-2.7-1.8l0,0c-0.4-0.5-0.6-1-0.6-1.6c0-2.3,3.2-4.1,7.1-4.1S24.1,44.3,24.1,46.5z"/>
			<path style="fill:#6576FF;" d="M16.9,51.1c-1.6,0-3-0.3-4.1-0.7c-1.4-0.5-2.3-1.3-2.9-1.9c-0.5-0.6-0.7-1.2-0.7-1.9c0-2.6,3.3-4.6,7.6-4.6
				c4.2,0,7.8,2.1,7.8,4.6c0,0.7-0.2,1.3-0.7,1.9c-0.6,0.9-1.6,1.5-2.9,2C19.7,50.8,18.2,51.1,16.9,51.1z M16.8,42.9
				c-3.6,0-6.6,1.6-6.6,3.6c0,0.5,0.2,0.9,0.5,1.3c0.4,0.5,1.2,1.2,2.5,1.6c1,0.4,2.3,0.7,3.7,0.7c1.2,0,2.5-0.2,3.7-0.7
				c1.1-0.4,1.9-0.9,2.5-1.6c0.3-0.4,0.5-0.8,0.5-1.3C23.6,44.6,20.4,42.9,16.8,42.9z"/>
			<path style="fill:#B3C2FF;" d="M24.1,46.5v3.2c0,0.7-0.3,1.3-0.8,1.8c-0.7,0.8-1.8,1.4-3.2,1.8l0,0c-1,0.3-2,0.4-3.2,0.4s-2.2-0.2-3.2-0.4
				l0,0c-1.4-0.4-2.5-1-3.2-1.8c-0.5-0.6-0.8-1.2-0.8-1.8v-3.2c0,0.6,0.2,1.1,0.6,1.6l0,0c0.6,0.8,1.5,1.4,2.7,1.8
				c1.1,0.4,2.5,0.7,3.9,0.7s2.8-0.2,3.9-0.7c1.2-0.4,2.1-1.1,2.7-1.8l0,0C23.9,47.6,24.1,47.1,24.1,46.5z"/>
			<path style="fill:#6576FF;" d="M16.9,54.1c-1.2,0-2.3-0.2-3.3-0.4c-1.5-0.4-2.7-1.1-3.4-1.9c-0.6-0.7-0.9-1.4-0.9-2v-3.2h0.8
				c0,0.5,0.2,0.9,0.5,1.4c0.6,0.7,1.4,1.3,2.5,1.7c1.2,0.4,2.6,0.7,3.8,0.7c1.5,0,2.8-0.2,3.7-0.7c1.3-0.4,2.1-1.2,2.6-1.7
				c0.4-0.4,0.5-0.9,0.5-1.4h0.8v3.2c0,0.8-0.3,1.5-0.9,2.1c-0.7,0.8-1.9,1.5-3.4,1.9C19.2,54,18.2,54.1,16.9,54.1z M10.1,48.4v1.3
				c0,0.5,0.2,1,0.7,1.6c0.6,0.7,1.6,1.3,3,1.7c1,0.2,1.9,0.4,3.1,0.4c1.3,0,2.2-0.1,3.1-0.4c1.4-0.4,2.4-1,3-1.7
				c0.5-0.5,0.7-1,0.7-1.6v-1.3c-0.5,0.6-1.4,1.4-2.8,1.8c-1,0.5-2.4,0.7-4,0.7c-1.3,0-2.7-0.3-4-0.7
				C11.7,49.8,10.7,49.2,10.1,48.4z"/>
			<path style="fill:#B3C2FF;" d="M24.1,49.8v3.7c0,0.7-0.3,1.3-0.8,1.8c-1.2,1.4-3.6,2.3-6.4,2.3s-5.2-0.9-6.4-2.3c-0.5-0.6-0.8-1.2-0.8-1.8
				v-3.7c0,0.7,0.3,1.3,0.8,1.8c0.7,0.8,1.8,1.4,3.2,1.8l0,0c1,0.3,2,0.4,3.2,0.4s2.2-0.2,3.2-0.4l0,0c1.4-0.4,2.5-1,3.2-1.8
				C23.8,51,24.1,50.4,24.1,49.8z"/>
			<path style="fill:#6576FF;" d="M16.9,58c-2.9,0-5.4-0.9-6.7-2.4c-0.6-0.7-0.9-1.4-0.9-2v-3.7h0.8c0,0.6,0.2,1.1,0.7,1.5
				c0.7,0.7,1.7,1.3,3,1.7c0.9,0.3,1.8,0.4,3.1,0.4c1.2,0,2.1-0.2,3.1-0.4c1.4-0.4,2.4-1,3-1.7c0.5-0.6,0.7-1.1,0.7-1.6h0.8v3.7
				c0,0.8-0.3,1.5-0.9,2.1C22.3,57.1,19.8,58,16.9,58z M10.1,51.7v1.8c0,0.5,0.2,1,0.7,1.6c1.1,1.3,3.5,2.2,6.1,2.2
				c2.6,0,5-0.8,6.1-2.2c0.5-0.5,0.7-1,0.7-1.6v-1.8c0,0.1-0.1,0.1-0.1,0.2c-0.7,0.8-1.9,1.5-3.4,1.9c-1,0.2-2.1,0.4-3.3,0.4
				c-1.3,0-2.3-0.1-3.3-0.4c-1.5-0.4-2.6-1.1-3.4-1.9C10.2,51.8,10.1,51.7,10.1,51.7z"/>
			<path style="fill:#B3C2FF;" d="M24.1,53.4v3.7c0,2.3-3.2,4.1-7.1,4.1s-7.1-1.8-7.1-4.1v-3.7c0,0.7,0.3,1.3,0.8,1.8
				c1.2,1.4,3.6,2.3,6.4,2.3s5.2-0.9,6.4-2.3C23.8,54.7,24.1,54.1,24.1,53.4z"/>
			<path style="fill:#6576FF;" d="M17,61.6c-4.2,0-7.5-2-7.5-4.5v-3.7h0.8c0,0.6,0.2,1.1,0.7,1.5c1.2,1.4,3.5,2.2,6.1,2.2
				c2.6,0,5-0.8,6.1-2.2c0.2-0.4,0.5-0.9,0.5-1.6h0.8v3.7C24.5,59.6,21.2,61.6,17,61.6z M10.3,55.3v1.8c0,2.1,3,3.7,6.7,3.7
				s6.7-1.7,6.7-3.7v-1.6c-1.4,1.5-3.8,2.4-6.6,2.4c-2.9,0-5.4-0.9-6.7-2.4C10.4,55.4,10.3,55.3,10.3,55.3z"/>
			<path style="fill:#6576FF;" d="M18.4,48c-0.1,0.1-0.2,0.3-0.4,0.4s-0.3,0.1-0.5,0.2V49h-0.3v-0.4c-0.3,0-0.5-0.1-0.7-0.3
				s-0.3-0.4-0.3-0.7h0.7c0,0.2,0.1,0.4,0.3,0.4v-0.9C17,47,16.8,47,16.7,46.9s-0.2-0.2-0.3-0.3s-0.1-0.3-0.1-0.5
				c0-0.3,0.1-0.5,0.3-0.7c0.2-0.2,0.4-0.3,0.7-0.3v-0.4h0.3v0.4c0.3,0,0.5,0.1,0.7,0.3s0.3,0.4,0.3,0.7h-0.7c0-0.1,0-0.2-0.1-0.2
				c-0.1-0.1-0.1-0.1-0.2-0.1v0.9c0.2,0.1,0.4,0.1,0.5,0.2c0.1,0.1,0.2,0.1,0.3,0.3s0.1,0.3,0.1,0.5C18.5,47.7,18.5,47.9,18.4,48zM17,46.3c0.1,0.1,0.1,0.1,0.3,0.2v-0.8c-0.1,0-0.2,0.1-0.3,0.1c-0.1,0.1-0.1,0.2-0.1,0.3C16.9,46.2,16.9,46.3,17,46.3zM17.8,47.9c0.1-0.1,0.1-0.2,0.1-0.3s0-0.2-0.1-0.3s-0.2-0.1-0.3-0.2V48C17.6,48,17.7,48,17.8,47.9z"/>
			<path style="fill:#B3C2FF;" d="M34.8,13.8v2.8H32C32,15,33.2,13.8,34.8,13.8z"/>
			<path style="fill:#6576FF;" d="M35,16.9h-3.3v-0.3c0-1.7,1.3-3.1,3-3.1H35V16.9z M32.3,16.4h2.3v-2.3C33.3,14.2,32.4,15.1,32.3,16.4z"/>
			<path style="fill:#B3C2FF;" d="M39,16.5h-2.7v-2.8C37.8,13.8,39,15,39,16.5z"/>
			<path style="fill:#6576FF;" d="M39.3,16.8H36v-3.3l0.3,0c1.6,0.1,2.9,1.4,2.9,3V16.8z M36.5,16.3h2.2c-0.1-1.1-1-2.1-2.2-2.3V16.3z"/>
			<path style="fill:#B3C2FF;" d="M39,18.1c0,1.5-1.2,2.8-2.7,2.8v-2.8H39z"/>
			<path style="fill:#6576FF;" d="M36.3,21.1H36v-3.3h3.2v0.3C39.3,19.8,37.9,21.1,36.3,21.1z M36.5,18.4v2.3c1.1-0.1,2.1-1.1,2.2-2.3H36.5z"/>
			<path style="fill:#B3C2FF;" d="M34.8,18.1v2.8c-1.5,0-2.8-1.2-2.8-2.8H34.8z"/>
			<path style="fill:#6576FF;" d="M35,21.1h-0.3c-1.7,0-3-1.4-3-3v-0.3H35V21.1z M32.3,18.4c0.1,1.2,1.1,2.2,2.3,2.3v-2.3H32.3z"/>
			<rect x="48" y="46.1" style="fill:#6576FF;" width="0.6" height="1.9"/>
			<path style="fill:#6576FF;" d="M48.8,48.3h-1.1v-2.4h1.1V48.3z M48.3,47.8L48.3,47.8l0.1-1.4h-0.1V47.8z"/>
</svg>
