<svg xmlns="http://www.w3.org/2000/svg" x="0px" y="0px" viewBox="0 0 64 64">

	<path style="fill:#E3E7FE;" d="M60.7,58.7H21.2c-4.7,0-8.5-3.8-8.5-8.5V13.8c0-4.7-3.8-8.5-8.5-8.5h39.5c4.7,0,8.5,3.8,8.5,8.5v36.5
		C52.2,54.9,56,58.7,60.7,58.7z"/>
	<path style="fill:#6576FF;" d="M60.7,59.2H21.2c-5,0-9-4-9-9V13.8c0-4.4-3.6-8-8-8c-0.3,0-0.5-0.2-0.5-0.5s0.2-0.5,0.5-0.5h39.5c5,0,9,4,9,9
		v36.5c0,4.4,3.6,7.9,8,7.9c0.3,0,0.5,0.2,0.5,0.5S61,59.2,60.7,59.2z M8.3,5.8c2.9,1.5,4.9,4.5,4.9,8v36.4c0,4.4,3.6,8,8,8h35.4
		c-2.9-1.5-4.9-4.5-4.9-7.9V13.8c0-4.4-3.6-8-8-8H8.3z"/>
	<path style="fill:#6576FF;" d="M47.4,14.6H18.3c-0.3,0-0.5-0.2-0.5-0.5v-3.9c0-0.3,0.2-0.5,0.5-0.5h29.1c0.3,0,0.5,0.2,0.5,0.5v3.9
		C47.9,14.4,47.7,14.6,47.4,14.6z M18.8,13.6h28.1v-2.9H18.8V13.6z"/>
	<polygon style="fill:#E3E7FE;" points="37,43.1 37,58.7 8.5,58.7 8.5,43.3 22.9,33.6 		"/>
	<path style="fill:#6576FF;" d="M37,59.2H8.5C8.2,59.2,8,59,8,58.7V43.3c0-0.2,0.1-0.3,0.2-0.4l14.4-9.7c0.2-0.1,0.4-0.1,0.6,0l14.1,9.5
		c0.1,0.1,0.2,0.2,0.2,0.4v15.6C37.5,59,37.3,59.2,37,59.2z M9,58.2h27.5V43.4l-13.6-9.2L9,43.6V58.2z"/>
	<path style="fill:#B3C2FF;" d="M42.2,44l-0.4,0.6c-0.5,0.7-1.3,0.8-2,0.4L37,43.1l-14.1-9.5L8.5,43.3L6,45c-0.7,0.5-1.6,0.3-2-0.4L3.6,44
		c-0.4-0.7-0.3-1.6,0.4-2l4.5-3l11.2-7.6l3.2-2.2l3.2,2.2L37,38.7l4.8,3.2C42.5,42.4,42.6,43.3,42.2,44z"/>
	<path style="fill:#6576FF;" d="M5.2,45.8c-0.1,0-0.3,0-0.4,0c-0.5-0.1-0.9-0.4-1.2-0.9l-0.4-0.6c-0.6-1-0.3-2.2,0.6-2.7l4.5-3l14.7-10
		l3.5,2.4l15.7,10.5c0.9,0.6,1.1,1.8,0.6,2.8l-0.4,0.6c-0.6,0.9-1.7,1.1-2.7,0.6L22.9,34.2L6.3,45.4C5.9,45.7,5.6,45.8,5.2,45.8z
			M22.9,29.8l-2.9,2L4.3,42.4c-0.5,0.3-0.5,0.9-0.2,1.3l0.4,0.6c0.1,0.2,0.3,0.4,0.6,0.4c0.2,0.1,0.5,0,0.7-0.2l2.5-1.7L22.9,33
		l17.2,11.6c0.5,0.3,1,0.2,1.3-0.3l0.4-0.6c0.2-0.4,0.3-1.1-0.3-1.4L22.9,29.8z"/>
	<rect x="19.9" y="42.2" style="fill:#B3C2FF;" width="7.4" height="16.6"/>
	<path style="fill:#6576FF;" d="M27.8,59.3h-8.4V41.7h8.4V59.3z M20.4,58.3h6.4V42.7h-6.4V58.3z"/>
	<path style="fill:#6576FF;" d="M15.9,50.6h-4.5c-0.3,0-0.5-0.2-0.5-0.5V45c0-0.3,0.2-0.5,0.5-0.5h4.5c0.3,0,0.5,0.2,0.5,0.5v5.1
		C16.4,50.4,16.2,50.6,15.9,50.6z M11.9,49.6h3.5v-4.1h-3.5V49.6z"/>
	<circle style="fill:#E3E7FE;" cx="41.4" cy="48.2" r="10.5"/>
	<path style="fill:#6576FF;" d="M41.4,59.2c-6.1,0-11-4.9-11-11s4.9-11,11-11s11,4.9,11,11S47.5,59.2,41.4,59.2z M41.4,38.2
		c-5.5,0-10,4.5-10,10s4.5,10,10,10c5.5,0,10-4.5,10-10S46.9,38.2,41.4,38.2z"/>
	<rect x="18.3" y="17" style="fill:#6576FF;" width="29.1" height="1"/>
	<rect x="18.3" y="20.4" style="fill:#6576FF;" width="29.1" height="1"/>
	<rect x="18.3" y="23.8" style="fill:#6576FF;" width="16.2" height="1"/>
	<path style="fill:#6576FF;" d="M43.7,51c-0.2,0.3-0.4,0.6-0.7,0.8s-0.7,0.3-1.1,0.4v0.9h-0.7v-0.9c-0.6-0.1-1.1-0.3-1.5-0.6
		c-0.4-0.4-0.6-0.8-0.6-1.4h1.2c0,0.3,0.1,0.5,0.3,0.7s0.4,0.3,0.6,0.3v-2.4c-0.5-0.1-0.8-0.2-1.1-0.4c-0.3-0.1-0.5-0.3-0.7-0.6
		s-0.3-0.6-0.3-1.1c0-0.6,0.2-1.1,0.6-1.5c0.4-0.4,0.9-0.6,1.5-0.7v-0.9h0.7v0.9c0.6,0.1,1.1,0.3,1.4,0.6s0.6,0.8,0.6,1.4h-1.2
		c0-0.2-0.1-0.4-0.2-0.6c-0.1-0.2-0.3-0.3-0.6-0.4v2.3c0.5,0.1,0.8,0.2,1.1,0.4c0.3,0.1,0.5,0.3,0.7,0.6s0.3,0.6,0.3,1.1
		C43.9,50.3,43.8,50.7,43.7,51z M40.4,47.3c0.2,0.2,0.4,0.3,0.7,0.4v-2.2c-0.3,0-0.5,0.1-0.7,0.3s-0.3,0.4-0.3,0.8
		C40.2,47,40.3,47.2,40.4,47.3z M42.5,50.8c0.2-0.2,0.3-0.4,0.3-0.7s-0.1-0.5-0.2-0.7s-0.4-0.3-0.7-0.4v2.2
		C42.1,51.1,42.3,51,42.5,50.8z"/>
	<rect x="45.6" y="20.5" transform="matrix(0.8359 -0.5489 0.5489 0.8359 -3.1291 32.394)" style="fill:#B3C2FF;" width="14" height="1.9"/>
	<path style="fill:#6576FF;" d="M47.3,26.3C47.3,26.3,47.2,26.3,47.3,26.3c-0.1,0-0.2-0.1-0.2-0.1l-1-1.6c-0.1-0.1,0-0.3,0.1-0.3l11.7-7.7
		c0.1,0,0.1,0,0.2,0s0.1,0.1,0.2,0.1l1,1.6c0.1,0.1,0,0.3-0.1,0.3l-11.7,7.7C47.4,26.3,47.3,26.3,47.3,26.3z M46.6,24.5l0.8,1.2
		l11.3-7.4l-0.8-1.2L46.6,24.5z"/>
	<path style="fill:#6576FF;" d="M44.3,27.3c-0.1,0-0.2-0.1-0.2-0.1L44,26.9c0-0.1,0-0.2,0-0.3l2-2.3c0.1-0.1,0.1-0.1,0.2-0.1
		c0.1,0,0.2,0,0.2,0.1l1,1.6c0,0.1,0,0.1,0,0.2s-0.1,0.1-0.2,0.2L44.3,27.3C44.3,27.2,44.3,27.3,44.3,27.3z M46.2,24.9l-1.5,1.7
		l2.1-0.7L46.2,24.9z"/>
	<path style="fill:#6576FF;" d="M42.8,30.5c0.4,0.2,0.7,0.3,1,0.4c0,0.2,0,0.3,0,0.5c-0.3,0.1-0.6,0.1-0.9,0.2v0.1c0.3,0,0.6,0,0.8,0.1
		c0.5-0.3,0.9-0.6,1.3-0.9c0.1,0.2,0.2,0.3,0.2,0.4c0.4-0.1,0.8-0.1,1.1-0.2s0.4-0.4,0.8-0.6c-0.1,0.2-0.2,0.5-0.3,0.8
		c-0.5,0.1-1,0.3-1.5,0.3c-0.4,0-0.8,0.1-1.1,0.4c-0.4,0.4-1,0.4-1.6,0.1c-0.3-0.2-0.7-0.2-1.1-0.3c0.2-0.3,0.3-0.6,0.5-0.9
		c-0.4,0.1-0.6,0.3-0.7,0.7c-0.1,0.3-0.3,0.7-0.5,1.1c-0.2-0.2-0.4-0.3-0.5-0.4c0.6-0.7,1-1.4,1.5-2c0.5,0.6,0.5,0.6,0.2,1.5
		c0.2-0.2,0.4-0.3,0.4-0.4C42.6,31.1,42.7,30.8,42.8,30.5z"/>
</svg>
