<svg xmlns="http://www.w3.org/2000/svg" x="0px" y="0px" viewBox="0 0 64 64">

	<path style="fill:#E3E7FE;" d="M48,38.3L48,38.3L45.7,28c0,0-0.1,0-0.2,0.1c-0.9,0.6-4.8,3.3-7.2,2.9c-2.7-0.5-4.7-1.7-8.8-2.8
		c-4-1.1-11.7,0.6-12,0.7l0,0l-2.5,10l0,0l3.6,1.9l0,0l-0.1,0.8l0,0c0,0.4,0.2,0.8,0.5,1.2c0.6,0.6,1.5,0.7,2.2,0.3
		c-0.4,0.7-0.3,1.6,0.3,2.2c0.6,0.6,1.5,0.7,2.2,0.3c-0.4,0.7-0.3,1.6,0.3,2.2c0.6,0.6,1.5,0.7,2.2,0.3c-0.4,0.7-0.3,1.6,0.3,2.2
		c0.7,0.7,1.8,0.7,2.5,0l0.9-0.9c-0.5,0.5-0.3,1.4,0.4,2c0.7,0.7,1.7,0.8,2.2,0.4l1.4-1.3c0.2-0.2,0.3-0.5,0.3-0.7s0-0.4-0.1-0.6
		l0.3,0.2c0.3,0.3,0.7,0.4,1.1,0.4c0.5,0,1.1-0.2,1.5-0.7c0.6-0.7,0.5-1.8-0.1-2.4l0.2,0.1c0.3,0.3,0.7,0.4,1.1,0.4
		c0.5,0,1.1-0.2,1.5-0.7c0.6-0.7,0.5-1.7-0.1-2.4c0.3,0.2,0.7,0.4,1.1,0.4c0.5,0,1.1-0.2,1.5-0.7c0.5-0.6,0.5-1.4,0.2-2l0,0l0,0
		l0,0L48,38.3z"/>
	<path style="fill:#6576FF;" d="M31.7,52.5c-0.6,0-1.3-0.3-1.8-0.8c-0.3-0.3-0.6-0.6-0.7-1c-0.9,0.8-2.2,0.8-3.1-0.1
		c-0.5-0.5-0.7-1.2-0.7-1.8c-0.7,0-1.3-0.2-1.8-0.7c-0.5-0.5-0.7-1.2-0.7-1.8c-0.7,0-1.3-0.2-1.8-0.7c-0.5-0.5-0.7-1.2-0.7-1.8
		c-0.7,0-1.3-0.2-1.8-0.7c-0.5-0.6-0.6-1.1-0.6-1.6l0.1-0.5l-3.3-1.7c-0.2-0.1-0.3-0.3-0.3-0.6l2.5-10c0-0.2,0.2-0.3,0.3-0.4
		c0.1,0,8-1.9,12.3-0.7c2,0.5,3.5,1.1,4.8,1.6c1.4,0.5,2.6,1,4,1.2c1.4,0.2,3.6-0.7,6.7-2.7l0.1-0.1c0.2-0.2,0.4-0.2,0.5-0.2
		c0.2,0,0.4,0.2,0.5,0.4l2.3,10.3c0,0.2,0,0.4-0.2,0.5L43,42c0.2,0.7,0.1,1.5-0.4,2.1c-0.5,0.6-1.2,0.9-2,0.9
		c0.1,0.7,0,1.3-0.5,1.8c-0.5,0.6-1.4,1-2.2,0.9c0.1,0.6-0.1,1.3-0.5,1.7c-0.4,0.5-1.1,0.9-1.9,0.9c-0.3,0-0.6,0-0.8-0.1
		c-0.1,0.3-0.2,0.5-0.4,0.7l-1.4,1.3C32.5,52.4,32.1,52.5,31.7,52.5z M29.9,48.9c0.1,0,0.3,0,0.4,0.1c0.2,0.2,0.2,0.5,0,0.7
		c-0.1,0.1-0.1,0.2-0.1,0.4c0,0.3,0.2,0.6,0.5,0.9c0.6,0.6,1.3,0.6,1.6,0.4l1.4-1.3c0.1-0.1,0.1-0.3,0.1-0.3c0-0.2,0-0.3,0-0.4
		c-0.1-0.2-0.1-0.4,0.1-0.6c0.2-0.2,0.4-0.2,0.6,0l0.3,0.2c0.2,0.2,0.5,0.3,0.8,0.3c0.2,0,0.7,0,1.1-0.5c0.5-0.5,0.3-1.3-0.1-1.7
		c-0.2-0.2-0.2-0.4-0.1-0.6c0.1-0.2,0.4-0.3,0.6-0.2l0.2,0.1c0,0,0.1,0.1,0.1,0.1c0.2,0.2,0.4,0.3,0.7,0.3c0.2,0,0.7,0,1.1-0.5
		c0.4-0.5,0.4-1.2-0.1-1.8c-0.2-0.2-0.2-0.5,0-0.7c0.2-0.2,0.4-0.2,0.7-0.1c0.3,0.2,0.6,0.3,0.8,0.3c0.2,0,0.7,0,1.1-0.5
		c0.4-0.5,0.3-1.1,0.1-1.5c-0.1-0.2,0-0.5,0.2-0.6l5.3-3.3l-2.1-9.3c-1.4,1-4.8,3.1-7.1,2.7c-1.5-0.3-2.7-0.7-4.1-1.3
		c-1.3-0.5-2.8-1-4.7-1.5c-3.4-0.9-10,0.3-11.5,0.6l-2.3,9.3l3.3,1.7c0.2,0.1,0.3,0.3,0.3,0.5L19,41.7c0,0.2,0.1,0.5,0.4,0.8
		c0.4,0.4,1,0.5,1.6,0.2c0.2-0.1,0.4-0.1,0.6,0.1c0.2,0.2,0.2,0.4,0.1,0.6c-0.3,0.5-0.2,1.2,0.2,1.6c0.4,0.4,1.1,0.5,1.6,0.2
		c0.2-0.1,0.4-0.1,0.6,0.1c0.2,0.2,0.2,0.4,0.1,0.6c-0.3,0.5-0.2,1.2,0.2,1.6c0.4,0.4,1.1,0.5,1.6,0.2c0.2-0.1,0.4-0.1,0.6,0.1
		c0.2,0.2,0.2,0.4,0.1,0.6c-0.3,0.5-0.2,1.2,0.2,1.6c0.5,0.5,1.3,0.5,1.8,0l0.9-0.9C29.6,48.9,29.8,48.9,29.9,48.9z M45.9,28.5
		L45.9,28.5C45.8,28.5,45.8,28.5,45.9,28.5z"/>
	<path style="fill:#E3E7FE;" d="M40.7,39.8l-0.2,0.3l-8.2-6.5l-4.7,2.5c-1,0.5-2.2,0.2-2.7-0.8c-0.2-0.3-0.2-0.6-0.2-0.9
		c0-0.7,0.4-1.4,1.1-1.8l5.7-3c0.2-0.1,0.5-0.2,0.7-0.2"/>
	<path style="fill:#6576FF;" d="M40.5,40.6c-0.1,0-0.2,0-0.3-0.1l-7.9-6.3l-4.4,2.3c-0.6,0.3-1.3,0.4-1.9,0.2c-0.6-0.2-1.2-0.6-1.5-1.2
		c-0.3-0.4-0.3-0.8-0.3-1.1c0-0.9,0.5-1.8,1.4-2.2l5.7-3c0.2-0.1,0.6-0.3,0.9-0.3v1c-0.1,0-0.3,0.1-0.5,0.1L26,33
		c-0.5,0.3-0.8,0.8-0.8,1.4c0,0.3,0,0.5,0.1,0.6c0.2,0.4,0.5,0.7,0.9,0.8c0.4,0.1,0.8,0.1,1.2-0.1l4.7-2.5c0.2-0.1,0.4-0.1,0.5,0
		l8.2,6.5l-0.1,0.1l0.4,0.3l-0.2,0.3C40.8,40.5,40.7,40.6,40.5,40.6C40.6,40.6,40.5,40.6,40.5,40.6z"/>
	<path style="fill:#6576FF;" d="M20.2,43.7c-0.6,0-1.2-0.2-1.7-0.7c-0.4-0.4-0.6-1-0.6-1.6c0-0.3,0-0.6,0.1-1c0.1-0.3,0.3-0.5,0.5-0.8l2-2
		c0.9-0.9,2.3-0.9,3.2,0c0.5,0.6,0.7,1.2,0.7,1.8c0,0.4-0.1,0.8-0.4,1.2c0,0,0,0.1-0.1,0.1l-2.6,2.6c0,0-0.1,0.1-0.1,0.1
		C21,43.6,20.6,43.7,20.2,43.7z M22.2,38.1c-0.3,0-0.7,0.1-0.9,0.4l-2,2c-0.1,0.1-0.2,0.3-0.3,0.5c0,0.2,0,0.3,0,0.6
		c0,0.3,0.1,0.6,0.4,0.8c0.4,0.4,1,0.5,1.5,0.2l2.5-2.5c0.1-0.2,0.2-0.4,0.2-0.6c0-0.3-0.2-0.7-0.5-1.1
		C22.8,38.2,22.5,38.1,22.2,38.1z"/>
	<path style="fill:#6576FF;" d="M22.6,46.2c-0.6,0-1.2-0.2-1.7-0.7c-0.7-0.7-0.9-1.9-0.4-2.8c0,0,0-0.1,0.1-0.1l2.6-2.6c0,0,0.1-0.1,0.1-0.1
		c0.9-0.5,2.1-0.4,2.8,0.4c0.5,0.5,0.7,1,0.7,1.7c0,0.4-0.1,0.8-0.4,1.2c0,0,0,0.1-0.1,0.1l-2.6,2.6c0,0-0.1,0.1-0.1,0.1
		C23.4,46.1,23,46.2,22.6,46.2z M21.4,43.3c-0.3,0.5-0.2,1.1,0.2,1.5c0.4,0.4,1,0.5,1.5,0.2l2.5-2.5c0.1-0.2,0.2-0.4,0.2-0.6
		c0-0.4-0.1-0.6-0.5-0.9c-0.4-0.4-1-0.5-1.5-0.2L21.4,43.3z"/>
	<path style="fill:#6576FF;" d="M25.1,48.6c-0.6,0-1.2-0.2-1.7-0.7c-0.7-0.7-0.9-1.9-0.4-2.8c0,0,0-0.1,0.1-0.1l2.6-2.6c0,0,0,0,0.1-0.1
		c0.7-0.5,1.7-0.4,2.5,0c0.1,0,0.1,0.1,0.2,0.1c0.1,0,0.1,0.1,0.2,0.2c0.5,0.6,0.7,1.2,0.7,1.7c0,0.2,0,0.4-0.1,0.6
		c0,0.2-0.2,0.5-0.3,0.6l-2.6,2.6c0,0-0.1,0.1-0.1,0.1C25.9,48.5,25.5,48.6,25.1,48.6z M23.9,45.7c-0.3,0.5-0.2,1.1,0.2,1.5
		c0.4,0.4,1,0.5,1.5,0.2l2.5-2.5c0,0,0.1-0.1,0.1-0.1c0-0.1,0-0.1,0-0.2c0-0.1,0-0.1,0-0.3c0-0.3-0.2-0.6-0.4-1c0,0-0.1,0-0.1-0.1
		c0,0-0.1,0-0.1,0c-0.4-0.3-1-0.4-1.4-0.1L23.9,45.7z"/>
	<path style="fill:#6576FF;" d="M27.6,51.1c-0.6,0-1.2-0.2-1.6-0.7c-0.7-0.7-0.9-1.9-0.4-2.8c0,0,0-0.1,0.1-0.1l2.6-2.6
		c0.2-0.2,0.5-0.3,0.8-0.3c0.8-0.2,1.7,0,2.2,0.7c0,0,0,0.1,0.1,0.1c0.2,0.4,0.5,0.9,0.5,1.5c0,0.7-0.3,1.2-0.6,1.6l-1.9,2
		C28.8,50.9,28.3,51.1,27.6,51.1z M26.5,48.2c-0.3,0.5-0.2,1.1,0.2,1.5c0.5,0.5,1.3,0.5,1.8,0l1.9-1.9c0.2-0.3,0.4-0.6,0.4-0.9
		c0-0.4-0.1-0.7-0.3-1c-0.3-0.3-0.7-0.4-1.1-0.3c-0.1,0-0.3,0-0.3,0.1L26.5,48.2z"/>
	<path style="fill:#6576FF;" d="M31.6,52.3c-0.1,0-0.2,0-0.4,0c-0.5-0.1-1-0.4-1.4-0.8c-0.4-0.4-0.7-0.9-0.8-1.4c-0.1-0.5,0-1,0.4-1.3l1.4-1.4
		c0.3-0.3,0.9-0.4,1.3-0.4c0.6,0,1.2,0.3,1.7,0.7c0.3,0.3,0.5,0.6,0.6,0.9c0.2,0.4,0.2,0.7,0.2,0.9c0,0.4-0.1,0.7-0.4,1.1l-1.4,1.3
		C32.4,52.1,32,52.3,31.6,52.3z M32,47.9c-0.2,0-0.5,0.1-0.5,0.2l-1.4,1.4c-0.1,0.1-0.1,0.3-0.1,0.4c0,0.3,0.2,0.6,0.5,0.8
		c0.3,0.3,0.6,0.5,0.9,0.5c0.1,0,0.4,0,0.6-0.1l1.4-1.3c0.1-0.1,0.1-0.2,0.1-0.3c0-0.2,0-0.2-0.1-0.4c0,0,0-0.1-0.1-0.1
		c-0.1-0.2-0.2-0.4-0.4-0.6C32.6,48,32.2,47.9,32,47.9z"/>
	<path style="fill:#6576FF;" d="M40.2,44.5c-0.6,0-1.1-0.2-1.5-0.5l-5.3-4.2c-0.2-0.2-0.3-0.5-0.1-0.7c0.2-0.2,0.5-0.3,0.7-0.1l5.3,4.2
		c0.2,0.2,0.5,0.3,0.8,0.3c0.5,0,0.8-0.2,1.1-0.5c0.4-0.5,0.3-1,0.2-1.4c-0.1-0.1-0.1-0.1-0.2-0.2c-0.1-0.1-0.1-0.1-0.2-0.2l-5-3.9
		c-0.2-0.2-0.3-0.5-0.1-0.7c0.2-0.2,0.5-0.3,0.7-0.1l4.9,3.8c0.1,0.1,0.3,0.2,0.4,0.4c0,0.1,0.1,0.1,0.2,0.2c0,0,0.1,0.1,0.1,0.1
		c0.4,0.8,0.3,1.8-0.3,2.5C41.6,44.2,41,44.5,40.2,44.5z"/>
	<rect x="35.8" y="36.6" transform="matrix(0.5994 -0.8005 0.8005 0.5994 -14.9547 43.8199)" style="fill:#6576FF;" width="1" height="0.5"/>
	<path style="fill:#6576FF;" d="M35.2,49.9c-0.6,0-1.1-0.2-1.5-0.5c-0.2-0.2-0.2-0.5,0-0.7c0.2-0.2,0.5-0.2,0.7,0c0.2,0.2,0.4,0.3,0.7,0.3
		c0.5,0,0.8-0.2,1.1-0.5c0.4-0.5,0.4-1.2,0-1.6c-0.1,0-0.1-0.1-0.1-0.1c0,0-0.1,0-0.1-0.1l-4.9-3.8c-0.2-0.2-0.3-0.5-0.1-0.7
		c0.2-0.2,0.5-0.3,0.7-0.1l4.8,3.7c0.1,0,0.1,0.1,0.2,0.1c0,0,0.1,0,0.1,0.1c0.9,0.8,1,2.2,0.2,3.1C36.6,49.6,36,49.9,35.2,49.9z"/>
	<path style="fill:#6576FF;" d="M31.5,42.9c-0.1,0-0.2,0-0.3-0.1l-0.3-0.2c-0.2-0.2-0.3-0.5-0.1-0.7c0.2-0.2,0.5-0.3,0.7-0.1l0.3,0.2
		c0.2,0.2,0.3,0.5,0.1,0.7C31.8,42.8,31.7,42.9,31.5,42.9z"/>
	<polygon style="fill:#B3C2FF;" points="5.2,20.4 14.2,24.9 10.7,38.8 5.2,37.6 	"/>
	<path style="fill:#6576FF;" d="M11.1,39.4L4.7,38V19.6l10.1,5L11.1,39.4z M5.7,37.2l4.6,1l3.3-13l-7.9-4V37.2z"/>
	<path style="fill:#6576FF;" d="M17.5,29.3c-0.3,0-0.5-0.2-0.5-0.5s0.2-0.5,0.5-0.5s0.5,0.2,0.5,0.5v0.1C18,29.1,17.8,29.3,17.5,29.3z"/>
	<path style="fill:#E3E7FE;" d="M32.4,33.5l-0.2,0.1l-4.7,2.5c-1,0.5-2.2,0.2-2.7-0.8c-0.2-0.3-0.2-0.6-0.2-0.9c0-0.7,0.4-1.4,1.1-1.8l5.7-3
		c0.2-0.1,0.5-0.2,0.7-0.2"/>
	<path style="fill:#6576FF;" d="M26.5,36.8c-0.9,0-1.7-0.5-2.2-1.3c-0.3-0.4-0.3-0.8-0.3-1.1c0-0.9,0.5-1.8,1.4-2.2l5.7-3
		c0.2-0.1,0.6-0.3,0.9-0.3v1c-0.1,0-0.3,0.1-0.5,0.1l-5.7,3c-0.5,0.3-0.8,0.8-0.8,1.4c0,0.3,0,0.5,0.1,0.6c0.2,0.4,0.5,0.7,0.9,0.8
		c0.4,0.1,0.8,0.1,1.2-0.1l4.9-2.6l0.4,0.9L32.4,34l-4.7,2.5C27.3,36.7,26.9,36.8,26.5,36.8z"/>
	<polygon style="fill:#FFFFFF;" points="18,26.7 17.5,28.7 17.5,28.8 15,38.9 15,38.9 14.8,39.7 10.7,38.8 14.2,24.9 	"/>
	<path style="fill:#6576FF;" d="M14.8,40.2c0,0-0.1,0-0.1,0l-4.1-0.9c-0.1,0-0.2-0.1-0.3-0.2c-0.1-0.1-0.1-0.3-0.1-0.4l3.5-13.9
		c0-0.1,0.1-0.3,0.3-0.3s0.3-0.1,0.4,0l3.8,1.8c0.2,0.1,0.3,0.3,0.3,0.6L18,28.8c0,0.1,0,0.1,0,0.2l-2.7,10.9
		C15.2,40,15,40.2,14.8,40.2z M11.3,38.4l3.1,0.7L17,28.7c0-0.1,0-0.1,0-0.2l0.4-1.6l-2.9-1.4L11.3,38.4z"/>
	<polygon style="fill:#B3C2FF;" points="58.2,20.2 49.1,24.7 52.7,38.6 58.2,37.4 	"/>
	<path style="fill:#6576FF;" d="M52.3,39.2l-3.8-14.8l10.2-5v18.4L52.3,39.2z M49.7,25l3.4,13l4.6-1V21L49.7,25z"/>
	<polygon style="fill:#FFFFFF;" points="45.4,26.5 45.9,28.4 45.9,28.6 48.4,38.7 48.4,38.7 48.6,39.5 52.7,38.6 49.1,24.7 	"/>
	<path style="fill:#6576FF;" d="M48.6,40c-0.2,0-0.4-0.2-0.5-0.4l-2.7-10.9c0,0,0-0.1,0-0.1v-0.1l-0.5-1.8c-0.1-0.2,0-0.5,0.3-0.6l3.7-1.8
		c0.1-0.1,0.3-0.1,0.4,0c0.1,0.1,0.2,0.2,0.3,0.3l3.6,13.9c0,0.1,0,0.3-0.1,0.4c-0.1,0.1-0.2,0.2-0.3,0.2L48.7,40
		C48.7,40,48.6,40,48.6,40z M46.4,28.5L49,38.9l3.1-0.7l-3.3-12.8L46,26.8l0.4,1.5c0,0,0,0.1,0,0.1V28.5z"/>
	<rect x="32.4" y="32.9" transform="matrix(0.8944 -0.4472 0.4472 0.8944 -11.4952 18.1052)" style="fill:#6576FF;" width="0.4" height="1"/>
	<polyline style="fill:#E3E7FE;" points="40.5,40.1 32.2,33.6 32.4,33.5 	"/>
	<path style="fill:#6576FF;" d="M40.2,40.5L31.9,34c-0.1-0.1-0.2-0.3-0.2-0.4c0-0.2,0.1-0.3,0.3-0.4l0.2-0.1l0.2,0.4l0.2-0.2l8.3,6.5
		L40.2,40.5z"/>
</svg>
