<svg xmlns="http://www.w3.org/2000/svg" x="0px" y="0px" viewBox="0 0 64 64">

		<path style="fill:#E3E7FE;" d="M57.3,33v25.2c0,0.6-0.5,1.1-1.1,1.1H8.5c-0.6,0-1-0.5-1-1V32.9l0,0c1.8,1.1,4.1,1.3,6.4,0.4
			c2.7-1.1,4.3-4,4-6.9l0,0l0,0h29c0,0.2,0,0.4,0,0.6c0,3.8,3.1,7,7,7C55.2,33.7,56.3,33.4,57.3,33C57.2,33,57.3,33,57.3,33z"/>
		<path style="fill:#6576FF;" d="M56.2,59.8H8.5c-0.8,0-1.5-0.7-1.5-1.5V32.9c0-0.2,0.1-0.3,0.3-0.4c0.2-0.1,0.4-0.1,0.5,0
			c1.7,1,3.9,1.2,6,0.4c2.5-1,4-3.6,3.7-6.4c0-0.1,0-0.3,0.1-0.4c0.1-0.1,0.2-0.2,0.4-0.2h29c0.3,0,0.5,0.2,0.5,0.5v0.6
			c0,3.6,2.9,6.5,6.4,6.5c1.2-0.3,2.1-0.6,3-0.9c0.1-0.1,0.2-0.1,0.3-0.1l0,0l0,0l0,0l0,0l0,0l0,0l0,0l0,0c0.3,0,0.5,0.2,0.5,0.5
			v25.2C57.8,59,57.1,59.8,56.2,59.8z M8,33.7v24.6c0,0.2,0.2,0.5,0.5,0.5h47.6c0.3,0,0.6-0.3,0.6-0.6V33.7C55.9,34,55,34.2,54,34.5
			h-0.1c-4.1,0-7.5-3.4-7.5-7.5v-0.1h-28c0.1,3-1.6,5.8-4.3,6.9C12,34.5,10,34.5,8,33.7z"/>
		<path style="fill:#B3C2FF;" d="M18,26.7c0,3.8-3.1,7-7,7c-1.3,0-2.5-0.4-3.6-1c-2-1.2-3.4-3.4-3.4-6c0-0.2,0-0.4,0-0.6h13.9
			C18,26.3,18,26.5,18,26.7z"/>
		<path style="fill:#6576FF;" d="M11,34.2c-1.3,0-2.5-0.3-3.8-1.1c-2.3-1.4-3.7-3.8-3.7-6.4v-1.1h14.7l0.1,0.3c0.2,0.3,0.2,0.6,0.2,0.8
			C18.5,30.8,15.3,34.2,11,34.2z M4.6,26.6L4.6,26.6c0,2.4,1.2,4.5,3.2,5.7c1.1,0.6,2.2,0.9,3.3,0.9c3.6,0,6.5-2.9,6.5-6.5v-0.1H4.6
			z"/>
	
		<path style="fill:#B3C2FF;" d="M32.3,26.7c0,3.8-3.1,7-7,7s-7-3.1-7-7c0-0.2,0-0.4,0-0.6h13.9C32.3,26.3,32.3,26.5,32.3,26.7z"/>
		<path style="fill:#6576FF;" d="M25.3,34.2c-4.2,0-7.5-3.3-7.5-7.5v-1.1h14.7l0.1,0.3c0.2,0.3,0.2,0.6,0.2,0.8C32.8,30.8,29.5,34.2,25.3,34.2
			z M18.9,26.6L18.9,26.6c0,3.7,2.9,6.6,6.5,6.6s6.5-2.9,6.5-6.5v-0.1H18.9z"/>
		<path style="fill:#B3C2FF;" d="M46.7,26.7c0,3.8-3.1,7-7,7s-7-3.1-7-7c0-0.2,0-0.4,0-0.6h13.9C46.7,26.3,46.7,26.5,46.7,26.7z"/>
		<path style="fill:#6576FF;" d="M39.7,34.2c-4.2,0-7.5-3.3-7.5-7.5v-1.1h14.7l0.1,0.3c0.2,0.3,0.2,0.6,0.2,0.8C47.2,30.8,43.8,34.2,39.7,34.2
			z M33.2,26.6L33.2,26.6c0,3.7,2.9,6.6,6.5,6.6s6.5-2.9,6.5-6.5v-0.1H33.2z"/>
		<path style="fill:#B3C2FF;" d="M60.9,26.7c0,2.7-1.5,5-3.8,6.2c-1,0.5-2,0.8-3.2,0.8c-3.9,0-7-3.1-7-7c0-0.2,0-0.4,0-0.6h13.9
			C60.9,26.3,60.9,26.5,60.9,26.7z"/>
		<path style="fill:#6576FF;" d="M54,34.2c-4.2,0-7.5-3.3-7.5-7.5v-1.1h14.7l0.1,0.3c0.2,0.3,0.2,0.6,0.2,0.8c0,2.8-1.5,5.3-4.1,6.6
			C56.3,33.9,55.2,34.2,54,34.2z M47.5,26.6L47.5,26.6c0,3.7,2.9,6.6,6.5,6.6c1,0,1.9-0.2,3-0.7c2.2-1.1,3.5-3.3,3.5-5.8v-0.1H47.5z
			"/>
		<path style="fill:#B3C2FF;" d="M60.9,26.1L60.9,26.1L4.1,26.2v-0.1l2.4-4.7l4-7.7c0.2-0.3,0.5-0.5,0.8-0.5h41.5c0.4,0,0.7,0.2,0.9,0.5
			l4.2,7.3L60.9,26.1z"/>
		<path style="fill:#6576FF;" d="M3.6,26.7V26l2.5-4.8l4-7.7c0.3-0.5,0.8-0.8,1.2-0.8h41.5c0.5,0,1,0.3,1.3,0.7l4.2,7.3l3.4,5.8L3.6,26.7z
			 M11.4,13.7c-0.1,0-0.3,0.1-0.4,0.3L5,25.7l55.2-0.1l-2.6-4.3L53.4,14c-0.2-0.3-0.3-0.3-0.5-0.3H11.4z"/>
		<path style="fill:#6576FF;" d="M37,55.3H11.8V36.9H37V55.3z M12.8,54.3H36V37.9H12.8V54.3z"/>
		<rect x="41.3" y="37.4" style="fill:#B3C2FF;" width="11" height="21.8"/>
		<path style="fill:#6576FF;" d="M52.8,59.7h-12V36.9h12V59.7z M41.8,58.7h10V37.9h-10V58.7z"/>
		<path style="fill:#6576FF;" d="M28.5,48.7c-1.5,0-2.7-1.2-2.7-2.6s1.2-2.6,2.7-2.6s2.7,1.2,2.7,2.6S30,48.7,28.5,48.7z M28.5,44.3
			c-1.1,0-1.9,0.8-1.9,1.8s0.9,1.8,1.9,1.8s1.9-0.8,1.9-1.8S29.7,44.3,28.5,44.3z"/>
		<path style="fill:#6576FF;" d="M20.4,52H18v-6h2.4V52z M18.8,51.3h0.9v-4.6h-0.9V51.3z"/>
		<path style="fill:#6576FF;" d="M23.5,52h-2.4v-5.3h2.4V52z M21.9,51.3h0.9v-3.8h-0.9V51.3z"/>
		<path style="fill:#6576FF;" d="M26.7,51.9h-2.4v-3.3h2.4V51.9z M25,51.2H26v-1.8H25V51.2z"/>
		<path style="fill:#6576FF;" d="M29.8,51.9h-2.3v-2.2h2.3V51.9z M28.2,51.2H29v-0.8h-0.8V51.2z"/>
		<polygon style="fill:#6576FF;" points="17.5,46 17,45.5 20.4,42.4 22.5,44.3 25.5,39.8 27.2,42.9 30,40.3 30.5,40.8 27,44.1 25.5,41.3 
			22.6,45.4 20.4,43.4 			"/>
		<polygon style="fill:#6576FF;" points="30.7,42.6 30,42.6 30,40.8 28,40.8 28,40.1 30.7,40.1 			"/>
		<path style="fill:#6576FF;" d="M43.7,49.2c-0.5,0-0.9-0.4-0.9-0.9s0.4-0.9,0.9-0.9s0.9,0.4,0.9,0.9S44.2,49.2,43.7,49.2z M43.7,48.2
			C43.7,48.2,43.5,48.2,43.7,48.2C43.6,48.5,43.8,48.5,43.7,48.2C43.8,48.2,43.8,48.2,43.7,48.2z"/>
		<path style="fill:#E3E7FE;" d="M48,9.4v3.8H17.3V8.8c0-2.2,1.8-4,4-4H44c1.9,0,3.5,1.4,3.9,3.2"/>
		<path style="fill:#6576FF;" d="M48,13.7H17.3c-0.3,0-0.5-0.2-0.5-0.5V8.8c0-2.5,2-4.5,4.5-4.5H44c2.1,0,3.9,1.5,4.4,3.6l-1,0.2
			C47,6.5,45.6,5.3,44,5.3H21.3c-1.9,0-3.5,1.6-3.5,3.5v3.9h29.7V9.4h1v3.8C48.5,13.4,48.3,13.7,48,13.7z"/>
		<path style="fill:#6576FF;" d="M48.5,9.4h-1V8.7c0-0.3,0-0.4-0.1-0.6l0.9-0.3c0.1,0.4,0.1,0.6,0.1,1L48.5,9.4L48.5,9.4z"/>
			<path style="fill:#6576FF;" d="M29.3,47c-0.1,0.1-0.1,0.2-0.2,0.2c-0.1,0.1-0.2,0.1-0.3,0.1v0.2h-0.3v-0.2c-0.2,0-0.4-0.1-0.5-0.2
				c-0.1-0.1-0.2-0.2-0.2-0.4h0.4c0,0.1,0,0.1,0.1,0.2c0,0,0.1,0.1,0.2,0.1v-0.6c-0.1,0-0.3-0.1-0.3-0.1c-0.1,0-0.2-0.1-0.2-0.2
				S28,45.8,28,45.8c0-0.2,0.1-0.3,0.2-0.4c0.1-0.1,0.3-0.2,0.5-0.2v-0.2h0.2v0.2c0.2,0,0.3,0.1,0.4,0.2c0.1,0.1,0.2,0.2,0.2,0.4
				h-0.4c0-0.1,0-0.1-0.1-0.2c0,0-0.1-0.1-0.2-0.1V46c0.1,0,0.3,0.1,0.3,0.1c0.1,0,0.2,0.1,0.2,0.2c0.1,0.1,0.1,0.2,0.1,0.3
				C29.3,46.9,29.3,46.9,29.3,47z M28.3,46c0.1,0,0.1,0.1,0.2,0.1v-0.6c-0.1,0-0.2,0-0.2,0.1c-0.1,0.1-0.1,0.1-0.1,0.2
				S28.3,46,28.3,46z M29,47c0.1-0.1,0.1-0.1,0.1-0.2c0-0.1,0-0.1-0.1-0.2c-0.1,0-0.1-0.1-0.2-0.1V47C28.8,47.1,28.8,47,29,47z"/>
</svg>
