<svg width="74" height="66" viewBox="0 0 74 66" fill="none" xmlns="http://www.w3.org/2000/svg">
<path d="M60.1689 64.3852H3.9527C2.10811 64.3852 0.614864 62.8919 0.614864 61.0473V12.2973C0.614864 10.4527 2.10811 8.95947 3.9527 8.95947H60.1689C62.0135 8.95947 63.5068 10.4527 63.5068 12.2973V61.0473C63.6824 62.8919 62.1892 64.3852 60.1689 64.3852Z" fill="#E3E7FE"/>
<path d="M60.1689 65H3.9527C1.75676 65 0 63.2433 0 61.0473V12.2973C0 10.1014 1.75676 8.3446 3.9527 8.3446H60.1689C62.3649 8.3446 64.1216 10.1014 64.1216 12.2973V61.0473C64.2095 62.1014 63.7703 63.0676 63.0676 63.7703C62.4527 64.5608 61.3987 65 60.1689 65ZM3.9527 9.57433C2.45946 9.57433 1.31757 10.8041 1.31757 12.2095V60.9595C1.31757 62.4527 2.5473 63.5946 3.9527 63.5946H60.1689C60.9595 63.5946 61.6622 63.3311 62.1892 62.8041C62.6284 62.277 62.8919 61.6622 62.8919 60.9595V12.2095C62.8919 10.7162 61.6622 9.57433 60.2568 9.57433H3.9527V9.57433Z" fill="#6576FF"/>
<path d="M63.6824 16.3378H0.702702V12.2094C0.702702 10.3648 2.19594 8.87158 4.04054 8.87158H60.2568C62.1014 8.87158 63.5946 10.3648 63.5946 12.2094V16.3378H63.6824Z" fill="#B3C2FF"/>
<path d="M63.6824 16.6892H0.263512V12.1216C0.263512 10.0135 1.93243 8.3446 4.04054 8.3446H60.2567C62.3649 8.3446 64.0338 10.0135 64.0338 12.1216V16.25H63.6824V16.6892V16.6892ZM1.14189 15.8108H63.1554V12.1216C63.1554 10.5406 61.8378 9.22298 60.2567 9.22298H4.04054C2.45946 9.22298 1.14189 10.5406 1.14189 12.1216V15.8108V15.8108Z" fill="#6576FF"/>
<path d="M57.1824 13.6149C57.7161 13.6149 58.1486 13.1823 58.1486 12.6487C58.1486 12.1151 57.7161 11.6825 57.1824 11.6825C56.6488 11.6825 56.2162 12.1151 56.2162 12.6487C56.2162 13.1823 56.6488 13.6149 57.1824 13.6149Z" fill="#E3E7FE"/>
<path d="M57.2703 14.2297C56.3919 14.2297 55.6013 13.527 55.6013 12.6487C55.6013 11.7703 56.3041 10.9797 57.2703 10.9797C58.1486 10.9797 58.8514 11.6824 58.8514 12.6487C58.8514 13.527 58.1486 14.2297 57.2703 14.2297ZM57.2703 12.2973C57.0946 12.2973 56.9189 12.473 56.9189 12.6487C56.9189 12.8243 57.0946 12.9122 57.2703 12.9122C57.4459 12.9122 57.5338 12.7365 57.5338 12.6487C57.5338 12.473 57.3581 12.2973 57.2703 12.2973Z" fill="#6576FF"/>
<path d="M54.4595 13.6149C54.9931 13.6149 55.4257 13.1823 55.4257 12.6487C55.4257 12.1151 54.9931 11.6825 54.4595 11.6825C53.9258 11.6825 53.4932 12.1151 53.4932 12.6487C53.4932 13.1823 53.9258 13.6149 54.4595 13.6149Z" fill="#E3E7FE"/>
<path d="M54.4595 14.2297C53.5811 14.2297 52.7905 13.527 52.7905 12.6487C52.7905 11.7703 53.4932 10.9797 54.4595 10.9797C55.3378 10.9797 56.0405 11.6824 56.0405 12.6487C56.0405 13.527 55.3378 14.2297 54.4595 14.2297ZM54.4595 12.2973C54.2838 12.2973 54.1081 12.473 54.1081 12.6487C54.1081 12.8243 54.2838 12.9122 54.4595 12.9122C54.6351 12.9122 54.723 12.7365 54.723 12.6487C54.723 12.473 54.5473 12.2973 54.4595 12.2973Z" fill="#6576FF"/>
<path d="M51.473 13.6149C52.0066 13.6149 52.4392 13.1823 52.4392 12.6487C52.4392 12.1151 52.0066 11.6825 51.473 11.6825C50.9393 11.6825 50.5068 12.1151 50.5068 12.6487C50.5068 13.1823 50.9393 13.6149 51.473 13.6149Z" fill="#E3E7FE"/>
<path d="M51.5608 14.2297C50.6824 14.2297 49.8919 13.527 49.8919 12.6487C49.8919 11.7703 50.5946 10.9797 51.5608 10.9797C52.4392 10.9797 53.1419 11.6824 53.1419 12.6487C53.1419 13.527 52.4392 14.2297 51.5608 14.2297ZM51.5608 12.2973C51.3851 12.2973 51.2095 12.473 51.2095 12.6487C51.2095 12.8243 51.3851 12.9122 51.5608 12.9122C51.7365 12.9122 51.8243 12.7365 51.8243 12.6487C51.8243 12.473 51.6486 12.2973 51.5608 12.2973Z" fill="#6576FF"/>
<path d="M68.6013 56.2162H12.3851C10.5405 56.2162 9.04729 54.723 9.04729 52.8784V4.12837C9.04729 2.28377 10.5405 0.790527 12.3851 0.790527H68.6013C70.4459 0.790527 71.9392 2.28377 71.9392 4.12837V52.8784C72.027 54.723 70.5338 56.2162 68.6013 56.2162Z" fill="white"/>
<path d="M68.6892 56.8311H12.473C10.277 56.8311 8.43243 55.0743 8.43243 52.8784V4.12836C8.43243 1.93242 10.1892 0.175659 12.473 0.175659H68.6892C70.8851 0.175659 72.6419 1.93242 72.6419 4.12836V52.8784C72.7297 53.8446 72.2905 54.8986 71.5878 55.6013C70.7973 56.3919 69.7432 56.8311 68.6892 56.8311ZM12.473 1.40539C10.9797 1.40539 9.75 2.63512 9.75 4.04052V52.7905C9.75 54.2838 10.9797 55.4257 12.473 55.4257H68.6892C69.4797 55.4257 70.1824 55.0743 70.7095 54.5473C71.1487 54.0203 71.4122 53.4054 71.4122 52.7905V4.04052C71.4122 2.54728 70.1824 1.40539 68.777 1.40539H12.473V1.40539Z" fill="#6576FF"/>
<path d="M72.027 8.16885H9.04729V4.04047C9.04729 2.19588 10.5405 0.702637 12.3851 0.702637H68.6013C70.4459 0.702637 71.9392 2.19588 71.9392 4.04047V8.16885H72.027Z" fill="#E3E7FE"/>
<path d="M72.027 8.78378H8.43243V3.9527C8.43243 1.75676 10.1892 0 12.473 0H68.6892C70.8851 0 72.6419 1.75676 72.6419 3.9527V8.08108H72.027V8.78378ZM9.75 7.46622H71.3243V3.9527C71.3243 2.45946 70.0946 1.31757 68.6892 1.31757H12.473C10.9797 1.31757 9.75 2.5473 9.75 3.9527V7.46622V7.46622Z" fill="#6576FF"/>
<path d="M65.9662 5.44598C66.4998 5.44598 66.9324 5.01339 66.9324 4.47977C66.9324 3.94614 66.4998 3.51355 65.9662 3.51355C65.4326 3.51355 65 3.94614 65 4.47977C65 5.01339 65.4326 5.44598 65.9662 5.44598Z" fill="#6576FF"/>
<path d="M63.2432 5.44598C63.7769 5.44598 64.2095 5.01339 64.2095 4.47977C64.2095 3.94614 63.7769 3.51355 63.2432 3.51355C62.7096 3.51355 62.277 3.94614 62.277 4.47977C62.277 5.01339 62.7096 5.44598 63.2432 5.44598Z" fill="#6576FF"/>
<path d="M60.2568 5.44598C60.7904 5.44598 61.223 5.01339 61.223 4.47977C61.223 3.94614 60.7904 3.51355 60.2568 3.51355C59.7231 3.51355 59.2905 3.94614 59.2905 4.47977C59.2905 5.01339 59.7231 5.44598 60.2568 5.44598Z" fill="#6576FF"/>
<path d="M45.9392 44.5338C42.6013 44.5338 39.1757 44.5338 35.8378 44.5338C34.3446 44.5338 33.554 43.6554 33.554 42.25C33.554 37.5068 33.554 32.8514 33.554 28.1081C33.554 26.7027 34.4324 25.8243 35.8378 25.8243C38.2973 25.8243 40.7568 25.8243 43.2162 25.8243C43.9189 25.8243 44.5338 26.0879 44.973 26.527C45.5 27.0541 46.027 27.5811 46.554 28.196C46.8176 28.4595 47.1689 28.6352 47.5203 28.6352C50.4189 28.6352 53.2297 28.6352 56.1284 28.6352C57.6216 28.6352 58.4122 29.5135 58.4122 30.9189C58.4122 34.696 58.4122 38.473 58.4122 42.25C58.4122 43.6554 57.5338 44.5338 56.1284 44.5338C52.7027 44.5338 49.277 44.5338 45.9392 44.5338ZM45.9392 43.1284C49.277 43.1284 52.7027 43.1284 56.0405 43.1284C56.7432 43.1284 57.0068 42.9527 57.0068 42.1622C57.0068 38.3852 57.0068 34.696 57.0068 30.9189C57.0068 30.2162 56.8311 29.9527 56.0405 29.9527C53.1419 29.9527 50.2432 29.9527 47.2568 29.9527C46.554 29.9527 46.027 29.6892 45.5878 29.25C44.973 28.6352 44.4459 28.0203 43.8311 27.4933C43.6554 27.4054 43.304 27.2297 43.0405 27.2297C40.5811 27.2297 38.2095 27.2297 35.75 27.2297C35.0473 27.2297 34.7838 27.4054 34.7838 28.196C34.7838 32.8514 34.7838 37.5068 34.7838 42.1622C34.7838 42.9527 34.9595 43.1284 35.75 43.1284C39.1757 43.1284 42.6013 43.1284 45.9392 43.1284Z" fill="#6576FF"/>
<path d="M44.3581 23.8919C44.0068 24.2432 43.7432 24.5946 43.3919 24.9459C43.0405 24.5946 42.6892 24.2432 42.3378 23.8041C42.1622 23.6284 41.9865 23.5405 41.723 23.6284C41.1081 23.8919 40.4054 24.1554 39.7905 24.4189C39.6149 24.5068 39.3513 24.5068 39.1757 24.4189C38.5608 24.1554 37.9459 23.8919 37.3311 23.6284C37.1554 23.5405 36.9797 23.3649 36.8919 23.1892C36.5405 22.4865 36.277 21.8716 36.0135 21.1689C35.9257 20.9054 35.75 20.8176 35.5743 20.8176C35.0473 20.8176 34.6081 20.8176 34.0811 20.8176C33.7297 21.6081 33.4662 22.3986 33.1149 23.1014C33.027 23.277 32.8513 23.4527 32.6757 23.5405C32.0608 23.8041 31.4459 24.0676 30.8311 24.3311C30.6554 24.4189 30.3919 24.4189 30.2162 24.3311C29.5135 24.0676 28.8986 23.8041 28.1959 23.5405C27.9324 23.4527 27.8446 23.4527 27.6689 23.6284C27.3176 23.9797 26.7905 24.3311 26.7027 24.7703C26.6149 25.2095 26.9662 25.7365 27.1419 26.1757C27.6689 27.0541 27.4932 27.7568 27.1419 28.723C26.7905 29.6014 26.3513 30.2162 25.3851 30.4797C24.9459 30.5676 24.4189 30.8311 23.9797 31.0946C23.9797 31.6216 23.9797 32.2365 23.9797 32.7635C23.9797 32.8514 24.1554 33.027 24.2432 33.1149C24.9459 33.3784 25.5608 33.7297 26.2635 33.9932C26.4392 34.0811 26.6149 34.2568 26.7027 34.4324C26.9662 35.0473 27.2297 35.6622 27.4932 36.277C27.5811 36.4527 27.5811 36.7162 27.4932 36.8919C27.2297 37.5946 26.9662 38.2095 26.7027 38.8243C26.3513 39.0878 26.3513 39.2635 26.527 39.527C26.8784 39.8784 27.2297 40.4054 27.6689 40.4932C28.1081 40.5811 28.6351 40.2297 29.0743 40.0541C29.9527 39.527 30.7432 39.6149 31.5338 40.0541C31.7095 40.2297 31.973 40.2297 32.3243 40.4054C32.1486 40.8446 31.973 41.1959 31.7973 41.6351C31.3581 41.4595 31.0068 41.2838 30.6554 41.1959C30.4797 41.1081 30.2162 41.1081 30.0405 41.1959C29.25 41.4595 28.4595 41.8108 27.7568 42.0743C27.4054 42.1622 27.2297 42.1622 27.054 41.8986C26.3513 41.1959 25.7365 40.4932 25.0338 39.8784C24.7703 39.7027 24.7703 39.527 24.8581 39.1757C25.2095 38.473 25.473 37.6824 25.7365 36.9797C25.8243 36.7162 25.8243 36.4527 25.7365 36.1892C25.5608 35.3986 25.0338 34.9595 24.2432 34.6959C23.7162 34.5203 23.1892 34.2568 22.6622 33.9932C22.3986 33.9054 22.3108 33.7297 22.3108 33.5541C22.3108 32.5878 22.3108 31.5338 22.3108 30.5676C22.3108 30.3041 22.3986 30.1284 22.6622 30.0405C23.3649 29.777 24.1554 29.4257 24.8581 29.0743C25.1216 28.9865 25.2973 28.8108 25.3851 28.5473C25.8243 27.8446 25.8243 27.1419 25.3851 26.4392C25.1216 25.9122 24.9459 25.3851 24.6824 24.7703C24.5946 24.5068 24.5946 24.4189 24.7703 24.2432C25.473 23.5405 26.2635 22.8378 26.9662 22.0473C27.1419 21.8716 27.3176 21.8716 27.4932 21.9595C28.2838 22.3108 28.9865 22.5743 29.777 22.9257C30.0405 23.0135 30.304 23.0135 30.5676 22.9257C31.3581 22.75 31.7973 22.223 32.0608 21.4324C32.2365 20.9054 32.5 20.3784 32.7635 19.7635C32.8513 19.6757 33.027 19.5 33.2027 19.5C34.2568 19.5 35.3108 19.5 36.3649 19.5C36.5405 19.5 36.7162 19.6757 36.8041 19.7635C37.1554 20.4662 37.5068 21.2568 37.7703 22.0473C37.8581 22.3108 38.0338 22.4865 38.2973 22.5743C39 23.0135 39.7027 23.0135 40.4054 22.5743C40.9324 22.3108 41.4595 22.1351 42.0743 21.8716C42.1622 21.8716 42.3378 21.8716 42.4257 21.8716C43.1284 22.6622 43.7432 23.277 44.3581 23.8919Z" fill="#6576FF"/>
<path d="M32.3243 37.0675C32.1487 37.5067 31.973 37.8581 31.7095 38.2094C29.6892 37.5945 27.8446 34.6959 27.8446 32.0608C27.8446 29.4256 29.6014 26.527 31.7095 25.9121C31.8851 26.2635 32.0608 26.7026 32.3243 27.054C30.3919 28.1959 29.25 29.777 29.25 32.0608C29.3378 34.2567 30.3919 35.9256 32.3243 37.0675Z" fill="#6576FF"/>
<path d="M41.2838 40.0541C39.9662 38.7365 38.7365 37.5068 37.4189 36.1892C38.6487 34.9595 39.9662 33.6419 41.2838 32.3243C41.5473 32.5879 41.8108 32.8514 42.0743 33.2027C41.1081 34.1689 40.1419 35.1351 39.1757 36.1014C40.2297 37.1554 41.196 38.1216 42.1622 39.0879C41.8987 39.527 41.6351 39.7906 41.2838 40.0541Z" fill="#6576FF"/>
<path d="M49.6284 39.1757C50.5946 38.2095 51.5608 37.2433 52.527 36.277C51.473 35.3108 50.5068 34.3446 49.5405 33.2906C49.9797 32.9392 50.2432 32.6757 50.5946 32.3243C51.8243 33.5541 53.1419 34.8716 54.4595 36.1892C53.2297 37.4189 51.9122 38.7365 50.5946 40.0541C50.2432 39.7906 49.9797 39.527 49.6284 39.1757Z" fill="#6576FF"/>
<path d="M47.4324 33.1147C47.8716 33.3783 48.223 33.5539 48.6622 33.8174C47.5203 35.9256 46.3784 37.9458 45.2365 40.0539C44.7973 39.7904 44.4459 39.6147 44.0068 39.3512C45.1487 37.2431 46.2905 35.2229 47.4324 33.1147Z" fill="#6576FF"/>
<path d="M16.9527 5.53384C16.0743 5.53384 15.1959 5.53384 14.3176 5.53384C13.7027 5.53384 13.3513 5.18249 13.3513 4.7433C13.3513 4.30411 13.7905 3.95276 14.3176 3.95276C16.0743 3.95276 17.8311 3.95276 19.6757 3.95276C20.2905 3.95276 20.6419 4.30411 20.6419 4.7433C20.6419 5.18249 20.2027 5.53384 19.6757 5.53384C18.7095 5.53384 17.8311 5.53384 16.9527 5.53384Z" fill="#6576FF"/>
</svg>
